<?xml version="1.0" encoding="utf-8"?>
<svg xmlns="http://www.w3.org/2000/svg" viewBox="0 0 1000 250"><defs><style>.cls-1{fill:#1a1a1a;}.cls-2{opacity:0.5;}.cls-3{fill:#333;}.cls-4{fill:#8ba9a3;}.cls-5,.cls-9{font-size:15px;}.cls-5{fill:#999;}.cls-10,.cls-5{font-family:Helvetica, Helvetica;}.cls-6{fill:#929497;}.cls-7{fill:#fff;}.cls-10,.cls-8,.cls-9{fill:#b3b3b3;}.cls-9{font-family:Helvetica-Bold, Helvetica;font-weight:700;}.cls-10{font-size:13px;}.cls-11{fill:none;stroke:#8ba9a3;stroke-linecap:round;stroke-miterlimit:10;stroke-width:4.03px;}.cls-12{fill:#89a7a1;}</style></defs><title>banner-graz</title><g id="bg"><rect class="cls-1" width="1000" height="250"/><g class="cls-2"><polygon class="cls-3" points="238.01 204.17 283.58 278.94 324.38 204.17 373.55 234.25 458.84 184.22 331.11 120.32 387.31 88.62 310.57 40 114.78 51.91 7.3 204 80.11 204 114.74 279 202.81 279 238.01 204.17"/><polygon class="cls-3" points="342.3 120.3 463.99 180.33 538.42 146.78 881.12 213.21 985.92 -45.34 688.47 -26.82 603.75 61.38 391.75 93.46 342.3 120.3"/></g><g id="Layer_1" data-name="Layer 1"><path class="cls-4" d="M866,107c-13.14,0-23.81,10.43-23.81,23.26,0,16.92,22.1,37.51,23,38.39a1,1,0,0,0,.7.27,1,1,0,0,0,.71-.28c.94-.89,23-22,23-38.38C889.66,117.24,879.28,107,866,107Zm0,30.84a8.2,8.2,0,1,1,8.2-8.2A8.2,8.2,0,0,1,866,137.86Z"/></g><g id="Layer_1-2" data-name="Layer 1"><path class="cls-4" d="M144.54,22.6a12.12,12.12,0,0,0-12.25,12c0,8.7,11.37,19.29,11.85,19.74a.51.51,0,0,0,.36.14.54.54,0,0,0,.37-.15c.48-.46,11.82-11.31,11.82-19.74A11.93,11.93,0,0,0,144.54,22.6Zm0,15.86a4.22,4.22,0,1,1,4.22-4.22A4.22,4.22,0,0,1,144.54,38.46Z"/></g></g><g id="Layer_1-3" data-name="Layer 1"><text class="cls-5" transform="translate(229.51 -38.55)"><tspan xml:space="preserve">Denkmal.org gibts neu auch in Graz!  Parallel-Launch-Event in Graz und Basel!</tspan></text><text></text><polygon class="cls-6" points="43.58 41.56 45.82 35 48.06 41.56 54.62 43.8 48.06 46.04 45.82 52.6 43.58 46.04 37.02 43.8 43.58 41.56"/><polygon class="cls-6" points="769.44 65.2 772.57 56.04 775.7 65.2 784.86 68.33 775.7 71.46 772.57 80.61 769.44 71.46 760.28 68.33 769.44 65.2"/><polygon class="cls-6" points="199.44 182.2 202.57 173.04 205.7 182.2 214.86 185.33 205.7 188.46 202.57 197.61 199.44 188.46 190.28 185.33 199.44 182.2"/><path class="cls-7" d="M400,147.68v-.53a19,19,0,0,1,.15-3.19,1.52,1.52,0,0,1,.69-.9l.6-.31.82-.45q.69-.29,1.46-.66a15.65,15.65,0,0,0,1.93-1.18,5.8,5.8,0,0,0,1.64-1.55q3.87.06,5.8.06a9,9,0,0,0,1.26-.06.37.37,0,0,1,.2.08.45.45,0,0,1,.11.24,2.8,2.8,0,0,1,0,.34c0,.11,0,.28,0,.53v8.61q0,2.4.1,7.18t.1,7.2q-.08.58-2.32.58l-.87,0-.74,0-1.27,0-1.21,0q-1,0-3-.06l-.42-.55a1,1,0,0,1-.16-.68q0-2.45.06-7.09v-7a17.51,17.51,0,0,1-4.42,2.19.67.67,0,0,1-.4-.1A.45.45,0,0,1,400,150Z"/><path class="cls-7" d="M418.84,159.15v-4.83a4.28,4.28,0,0,1,.12-.93,9.08,9.08,0,0,1,.25-.89,8.24,8.24,0,0,1,.43-1c.2-.4.35-.69.44-.85l.52-.89.42-.72q.92-1.47,3-4.88t3.15-5.14h12.12v1q0,1.5-.06,4.46t-.06,4.46v.74a7.15,7.15,0,0,0,0,.77v.13a3.07,3.07,0,0,1,0,.52v.58c0,.8.23,1.19.71,1.19l.68,0,.68,0a1,1,0,0,1,.69.17,1.33,1.33,0,0,1,.15.8.06.06,0,0,1-.06.06c0,.05,0,.28,0,.69s0,.9,0,1.48,0,1.13,0,1.64a7.63,7.63,0,0,1-.11,1.57c-.07.28-.22.43-.44.43h-2.26c0,1.33.06,2.3.06,2.9a4.16,4.16,0,0,1,0,.51.52.52,0,0,1-.17.29.77.77,0,0,1-.45.17h-3.13q-3.87,0-5.22.1l-.55-.68v-3.51h-9.93l-.25,0h-.23l-.19,0a.36.36,0,0,1-.19-.11A1.36,1.36,0,0,1,418.84,159.15Zm6.67-6.12v.42a.5.5,0,0,0,.19.24l.2.18c.49,0,1.25,0,2.3,0l2.28,0a.89.89,0,0,0,.49-.58v-.61a3.17,3.17,0,0,1,0-.58v-.39c0-.25,0-.58,0-1s0-.83,0-1.22q0-4.61-.64-4.61V145q-.71,1.24-2.37,3.92T425.51,153Z"/><path class="cls-7" d="M443.85,162.92v-.48c0-.16,0-.42,0-.77s0-.63,0-.85V160q0-3.93.52-3.93H451q1.55,0,1.55.45.06,3.09.06,4.74v.55c0,.08,0,.19,0,.35s0,.28,0,.36c0,.6-.12.9-.35.9h-7.93Z"/><path class="cls-7" d="M455,147.68v-.53a19,19,0,0,1,.15-3.19,1.52,1.52,0,0,1,.69-.9l.6-.31.82-.45q.69-.29,1.46-.66a15.65,15.65,0,0,0,1.93-1.18,5.8,5.8,0,0,0,1.64-1.55q3.87.06,5.8.06a9,9,0,0,0,1.26-.06.37.37,0,0,1,.2.08.45.45,0,0,1,.11.24,2.8,2.8,0,0,1,0,.34c0,.11,0,.28,0,.53v8.61q0,2.4.1,7.18t.1,7.2q-.08.58-2.32.58l-.87,0-.74,0-1.27,0-1.21,0q-1,0-3-.06l-.42-.55a1,1,0,0,1-.16-.68q0-2.45.06-7.09v-7a17.51,17.51,0,0,1-4.42,2.19.67.67,0,0,1-.4-.1A.45.45,0,0,1,455,150Z"/><path class="cls-7" d="M486.08,164a14.66,14.66,0,0,1-3.31-.35,10.28,10.28,0,0,1-2.59-.94,7.49,7.49,0,0,1-1.94-1.51,9.52,9.52,0,0,1-1.4-2,12.28,12.28,0,0,1-.94-2.38,21.19,21.19,0,0,1-.59-2.67q-.2-1.32-.32-2.95,0-12.23,11.28-13.12a13.51,13.51,0,0,1,3.57.44,9.85,9.85,0,0,1,2.76,1.18,8.94,8.94,0,0,1,2,1.81,10.16,10.16,0,0,1,1.42,2.23,14.33,14.33,0,0,1,.87,2.52,19.27,19.27,0,0,1,.47,2.6,25.29,25.29,0,0,1,.13,2.58,15.84,15.84,0,0,1-.88,5.46,10.07,10.07,0,0,1-6.05,6.25A12.53,12.53,0,0,1,486.08,164Zm-2.45-12.12c0,.42,0,.79,0,1.11s0,.72.07,1.18.09.88.15,1.22a8.06,8.06,0,0,0,.28,1.09,3.57,3.57,0,0,0,.44.93,2.06,2.06,0,0,0,.65.6,1.71,1.71,0,0,0,.89.23,2.07,2.07,0,0,0,1-.24,2.48,2.48,0,0,0,.73-.58,2.83,2.83,0,0,0,.47-.93,10.38,10.38,0,0,0,.29-1.06,8.61,8.61,0,0,0,.14-1.21c0-.5.05-.88.06-1.14s0-.62,0-1.08v-.21a15.86,15.86,0,0,0,.06-1.71q0-.08,0-.64c0-.38,0-.68,0-.91s0-.56,0-1a10.38,10.38,0,0,0-.13-1.06,6.74,6.74,0,0,0-.27-1,2.77,2.77,0,0,0-.44-.85,2.21,2.21,0,0,0-.66-.53,1.91,1.91,0,0,0-.92-.22,2.57,2.57,0,0,0-.77.11,1.53,1.53,0,0,0-.62.38,5.4,5.4,0,0,0-.47.54,2.37,2.37,0,0,0-.35.74l-.26.83a5.12,5.12,0,0,0-.18,1c0,.4-.08.73-.1,1s0,.61-.06,1.06,0,.79,0,1v1.31Z"/><path class="cls-7" d="M498.05,162.92v-.48c0-.16,0-.42,0-.77s0-.63,0-.85V160q0-3.93.52-3.93h6.61q1.55,0,1.55.45.06,3.09.06,4.74v.55c0,.08,0,.19,0,.35s0,.28,0,.36q0,.9-.35.9h-7.93Z"/><path class="cls-7" d="M531.28,145.81a7.91,7.91,0,0,1-.4,2.55,7.2,7.2,0,0,1-1,2,12.32,12.32,0,0,1-1.51,1.68,18.25,18.25,0,0,1-1.76,1.47q-.85.62-1.94,1.49a22.81,22.81,0,0,0-1.86,1.64q1.09,0,3.36-.06t3.44-.06a1.54,1.54,0,0,1,1.51.75,4.71,4.71,0,0,1,.4,2.15c0,.29,0,.78,0,1.47s0,1.22,0,1.59v.29a1.69,1.69,0,0,1,0,.37.47.47,0,0,1-.18.24,1,1,0,0,1-.44.16h-1.16l-5.22-.13q-6.45,0-14.08.26v-.32a1.06,1.06,0,0,1-.4-.58,2.91,2.91,0,0,1-.15-1v-4.71q0-.37,1.1-1.1,4.43-3,6.35-4.35l1-.77q3.48-2.71,3.48-4.83a1.42,1.42,0,0,0-.4-1.06,1.67,1.67,0,0,0-1.95-.14,1.26,1.26,0,0,0-.45.61,5.67,5.67,0,0,0-.19.73,3.13,3.13,0,0,1-.21.68.59.59,0,0,1-.41.37h-7.48q-.9,0-.9-.48a11,11,0,0,1,1.11-4,7,7,0,0,1,2.32-2.64,10.2,10.2,0,0,1,3.27-1.41,17.67,17.67,0,0,1,4.16-.44,18.74,18.74,0,0,1,3.22.27,13.24,13.24,0,0,1,2.92.85,9.18,9.18,0,0,1,2.39,1.45,6.29,6.29,0,0,1,1.6,2.14A6.62,6.62,0,0,1,531.28,145.81Z"/><path class="cls-7" d="M543.63,164a14.66,14.66,0,0,1-3.31-.35,10.31,10.31,0,0,1-2.59-.94,7.48,7.48,0,0,1-1.94-1.51,9.52,9.52,0,0,1-1.4-2,12.18,12.18,0,0,1-.94-2.38,21.2,21.2,0,0,1-.59-2.67q-.2-1.32-.31-2.95,0-12.23,11.28-13.12a13.51,13.51,0,0,1,3.57.44,9.87,9.87,0,0,1,2.76,1.18,8.93,8.93,0,0,1,2,1.81,10.1,10.1,0,0,1,1.42,2.23,14.33,14.33,0,0,1,.87,2.52,19.25,19.25,0,0,1,.47,2.6,24.81,24.81,0,0,1,.13,2.58,15.84,15.84,0,0,1-.88,5.46,10.07,10.07,0,0,1-6.05,6.25A12.54,12.54,0,0,1,543.63,164Zm-2.45-12.12q0,.63,0,1.11t.07,1.18a12.21,12.21,0,0,0,.15,1.22,8.32,8.32,0,0,0,.28,1.09,3.57,3.57,0,0,0,.44.93,2.05,2.05,0,0,0,.65.6,1.72,1.72,0,0,0,.89.23,2.07,2.07,0,0,0,1-.24,2.47,2.47,0,0,0,.72-.58,2.8,2.8,0,0,0,.48-.93,10.33,10.33,0,0,0,.29-1.06,8.83,8.83,0,0,0,.15-1.21q0-.75.06-1.14t0-1.08v-.21a16.33,16.33,0,0,0,.06-1.71c0-.05,0-.27,0-.64s0-.68,0-.91,0-.56,0-1a9.93,9.93,0,0,0-.13-1.06,7,7,0,0,0-.27-1,2.73,2.73,0,0,0-.44-.85,2.18,2.18,0,0,0-.66-.53A1.92,1.92,0,0,0,544,144a2.55,2.55,0,0,0-.77.11,1.51,1.51,0,0,0-.62.38,5.4,5.4,0,0,0-.47.54,2.41,2.41,0,0,0-.35.74l-.26.83a5.26,5.26,0,0,0-.18,1c0,.4-.08.73-.1,1s0,.61-.06,1.06,0,.79,0,1v1.31Z"/><path class="cls-7" d="M557.61,147.68v-.53a19.47,19.47,0,0,1,.14-3.19,1.55,1.55,0,0,1,.69-.9l.6-.31.82-.45q.69-.29,1.46-.66a15.41,15.41,0,0,0,1.93-1.18,5.8,5.8,0,0,0,1.64-1.55q3.87.06,5.8.06a9,9,0,0,0,1.26-.06.38.38,0,0,1,.2.08.42.42,0,0,1,.1.24,2.51,2.51,0,0,1,0,.34c0,.11,0,.28,0,.53v8.61q0,2.4.1,7.18t.1,7.2q-.08.58-2.32.58l-.87,0-.74,0-1.27,0-1.21,0q-1,0-3-.06l-.42-.55a1,1,0,0,1-.16-.68q0-2.45.06-7.09v-7a17.51,17.51,0,0,1-4.42,2.19.68.68,0,0,1-.4-.1.46.46,0,0,1-.14-.35Z"/><path class="cls-7" d="M589.94,164q-6,0-9-3.34T578,151a15.34,15.34,0,0,1,1.39-6.72,10.6,10.6,0,0,1,4.06-4.54,12,12,0,0,1,6.28-1.69,16,16,0,0,1,3.83.41,8.81,8.81,0,0,1,2.63,1,5.4,5.4,0,0,1,1.61,1.6,6.66,6.66,0,0,1,.88,1.9,11,11,0,0,1,.33,2.09q0,.29-1.11.46a22.16,22.16,0,0,1-2.81.2l-2.52,0-1.39,0c-.43,0-.64-.09-.64-.26v-.84q-.14-.29-.77-.29-2.61,0-2.61,4.22v.26q1.45-1.71,4.64-1.71a8.35,8.35,0,0,1,5.91,2.18A7.22,7.22,0,0,1,600,154.9a9.39,9.39,0,0,1-.6,3.44,7.55,7.55,0,0,1-1.59,2.55,9.21,9.21,0,0,1-2.31,1.71,11,11,0,0,1-2.71,1A16,16,0,0,1,589.94,164Zm-3.09-8.35a3.92,3.92,0,0,0,.67,2.29,2.18,2.18,0,0,0,1.91,1,2.71,2.71,0,0,0,1.38-.33,2.16,2.16,0,0,0,.86-.89,4.52,4.52,0,0,0,.41-1.15,6.23,6.23,0,0,0,.12-1.27,4.63,4.63,0,0,0-.67-2.42,2.25,2.25,0,0,0-2-.84,3,3,0,0,0-1.37.29,1.87,1.87,0,0,0-.84.83,4.22,4.22,0,0,0-.39,1.14A7.59,7.59,0,0,0,586.85,155.64Z"/><path class="cls-8" d="M386.44,62.4H382.5V44.68q3.77-.13,4.73-.13a8.3,8.3,0,0,1,6.14,2.27,8.14,8.14,0,0,1,2.27,6Q395.65,62.4,386.44,62.4Zm-.79-15V59.53q.76.07,1.65.07A4.47,4.47,0,0,0,391,57.87,7.71,7.71,0,0,0,392.38,53q0-5.69-5.29-5.69Q386.58,47.34,385.65,47.42Z"/><path class="cls-8" d="M401.58,47.46v4.15h5.86v2.68h-5.86V59.6h8v2.8H398.43V44.66h11.32v2.8Z"/><path class="cls-8" d="M424.17,62.64l-8.61-11.22v11h-3V44.66h1.51l8.38,10.7V44.66h3v18Z"/><path class="cls-8" d="M439.14,62.4l-4.94-7.55-2,2.7V62.4h-3.15V44.66h3.15v8.49l6-8.49h3.58l-5.56,7.75,6.62,10Z"/><path class="cls-8" d="M460.92,62.41h-3.05L456,52.85l-3.57,9.79h-1.13l-3.57-9.79-1.91,9.56h-3l3.57-17.75h1.67l3.84,11.95,3.75-11.95h1.66Z"/><path class="cls-8" d="M473.21,62.4l-1.3-3.6h-6.08l-1.23,3.6h-3.5l7.07-18h1.38l7.13,18Zm-4.35-12.55-2.13,6.55H471Z"/><path class="cls-8" d="M478.56,62.4V44.66h3.15V59.6h8v2.8Z"/><path class="cls-8" d="M492.55,60.81a2.18,2.18,0,1,1,.64,1.55A2.11,2.11,0,0,1,492.55,60.81Z"/><path class="cls-8" d="M499.17,53.38A10,10,0,0,1,501.24,47a6.72,6.72,0,0,1,5.55-2.62,7.26,7.26,0,0,1,5.85,2.37,10,10,0,0,1,2,6.66,10.25,10.25,0,0,1-2.11,6.8,7.39,7.39,0,0,1-6,2.52,6.48,6.48,0,0,1-5.48-2.49A11,11,0,0,1,499.17,53.38Zm3.27,0a9.19,9.19,0,0,0,1.05,4.82,3.38,3.38,0,0,0,3.06,1.71,4.21,4.21,0,0,0,3.6-1.67,8.05,8.05,0,0,0,1.24-4.85q0-6.23-4.6-6.23a3.65,3.65,0,0,0-3.23,1.69A8.1,8.1,0,0,0,502.44,53.38Z"/><path class="cls-8" d="M527.45,62.4l-4.73-7.32q-.72,0-2-.08V62.4h-3.27V44.66l2-.09q1.78-.09,2.87-.09,6.75,0,6.75,5.23a4.8,4.8,0,0,1-.93,2.87,5,5,0,0,1-2.35,1.83l5.24,8Zm-6.73-15v4.93q.87.07,1.33.07a5.74,5.74,0,0,0,2.89-.56,2.33,2.33,0,0,0,.91-2.17,1.89,1.89,0,0,0-1-1.83,6.9,6.9,0,0,0-3.09-.52A8.25,8.25,0,0,0,520.72,47.4Z"/><path class="cls-8" d="M545.69,46.1l-1.32,2.53a6.32,6.32,0,0,0-1.72-1,5.31,5.31,0,0,0-2-.49,5.14,5.14,0,0,0-4.13,1.77A7.08,7.08,0,0,0,535,53.68a6.63,6.63,0,0,0,1.48,4.53,5.09,5.09,0,0,0,4,1.69A4.15,4.15,0,0,0,543.3,59V55.5h-2.46V52.81h5.6v7.94a8.09,8.09,0,0,1-2.9,1.43,12.62,12.62,0,0,1-3.53.51,7.7,7.7,0,0,1-6-2.5,9.54,9.54,0,0,1-2.23-6.6,9.29,9.29,0,0,1,2.43-6.67,8.59,8.59,0,0,1,6.55-2.57A7.39,7.39,0,0,1,545.69,46.1Z"/><path class="cls-8" d="M550.34,62.4h-2.72l6.69-17.81H557Z"/><path class="cls-8" d="M572,46.1l-1.32,2.53a6.32,6.32,0,0,0-1.72-1,5.31,5.31,0,0,0-2-.49,5.14,5.14,0,0,0-4.13,1.77,7.08,7.08,0,0,0-1.51,4.75,6.63,6.63,0,0,0,1.48,4.53,5.09,5.09,0,0,0,4,1.69,4.15,4.15,0,0,0,2.77-.92V55.5h-2.46V52.81h5.6v7.94a8.09,8.09,0,0,1-2.9,1.43,12.62,12.62,0,0,1-3.53.51,7.7,7.7,0,0,1-6-2.5,9.54,9.54,0,0,1-2.23-6.6,9.29,9.29,0,0,1,2.43-6.67A8.59,8.59,0,0,1,567,44.36,7.39,7.39,0,0,1,572,46.1Z"/><path class="cls-8" d="M585.55,62.4l-4.73-7.32q-.72,0-2-.08V62.4h-3.27V44.66l2-.09q1.78-.09,2.87-.09,6.75,0,6.75,5.23a4.8,4.8,0,0,1-.93,2.87,5,5,0,0,1-2.35,1.83l5.24,8Zm-6.73-15v4.93q.87.07,1.33.07a5.74,5.74,0,0,0,2.89-.56,2.33,2.33,0,0,0,.91-2.17,1.89,1.89,0,0,0-1-1.83,6.9,6.9,0,0,0-3.09-.52A8.25,8.25,0,0,0,578.82,47.4Z"/><path class="cls-8" d="M601,62.4l-1.3-3.6h-6.08l-1.23,3.6h-3.5l7.07-18h1.38l7.13,18ZM596.7,49.85l-2.13,6.55h4.26Z"/><path class="cls-8" d="M605.55,62.4v-1l7.4-13.92h-7.27v-2.8h11.56v1L609.81,59.6h7.69v2.8Z"/><path class="cls-7" d="M330,81.44h9.76v24.42h10.78v6.67H330Z"/><path class="cls-7" d="M360.21,81.44h13.73l9,31.09H372.31l-1.19-6h-8l-1.28,6H351.6ZM370.05,101l-3-13.6L364,101Z"/><path class="cls-7" d="M400.24,105.07a5.07,5.07,0,0,0,3.85-1.38,5.66,5.66,0,0,0,1.31-4.05V81.44h10.2V99.63A13.89,13.89,0,0,1,415,104a12.37,12.37,0,0,1-1.72,3.44,12.05,12.05,0,0,1-2.57,2.62,15,15,0,0,1-3.19,1.82,17.34,17.34,0,0,1-3.57,1.06,20.31,20.31,0,0,1-3.69.34,16.7,16.7,0,0,1-10.67-3.44,12.16,12.16,0,0,1-4.7-10.16V81.44h10.2V99.63Q395.07,105.07,400.24,105.07Z"/><path class="cls-7" d="M421.24,81.44h9.05L442.7,98.18V81.44h8.08v31.09h-9.05L429.28,96.32v16.21h-8Z"/><path class="cls-7" d="M473.06,105.07a12.33,12.33,0,0,0,1.44-.08,11.33,11.33,0,0,0,1.31-.23,12.75,12.75,0,0,0,1.34-.4q.68-.24,1.52-.57l1.24,7.18a16.81,16.81,0,0,1-8.57,2.27A16,16,0,0,1,455.13,97a17.1,17.1,0,0,1,1.21-6.51,15.44,15.44,0,0,1,3.36-5.13A15.27,15.27,0,0,1,464.76,82a16.39,16.39,0,0,1,6.32-1.2A17.44,17.44,0,0,1,479.86,83l-1.19,7a16.7,16.7,0,0,0-5.87-1.24,7.13,7.13,0,0,0-5.6,2.13,8.67,8.67,0,0,0-1.91,6,10.54,10.54,0,0,0,.52,3.43,6.93,6.93,0,0,0,1.51,2.56,6.49,6.49,0,0,0,2.44,1.6A9.2,9.2,0,0,0,473.06,105.07Z"/><path class="cls-7" d="M484,81.44h10.16V93.8h9.63V81.44H514v31.09H503.8V100.34h-9.63v12.19H484Z"/><path class="cls-7" d="M528.37,81.44h11.22a25.5,25.5,0,0,1,6.2.68,13.45,13.45,0,0,1,4.57,2,8.92,8.92,0,0,1,2.83,3.23,9.48,9.48,0,0,1,1,4.36,8.24,8.24,0,0,1-1.1,4.26,10,10,0,0,1-3,3.19,14.67,14.67,0,0,1-4.49,2,21,21,0,0,1-5.51.7h-1.9v10.64h-9.76Zm11.7,14.18a6.09,6.09,0,0,0,3.67-1,3.83,3.83,0,0,0,.94-4.57,3.49,3.49,0,0,0-1.06-1.18,5,5,0,0,0-1.58-.72,7.58,7.58,0,0,0-2-.24h-1.94v7.6q.31,0,.79.07Z"/><path class="cls-7" d="M562.07,81.44H575.8l9,31.09H574.17l-1.19-6h-8l-1.28,6h-10.2ZM571.92,101l-3-13.6-3,13.6Z"/><path class="cls-7" d="M615.5,112.44a18.12,18.12,0,0,1-4.17.79q-8.19,0-10.29-7.46l-1.24-5h-2.12v11.79h-9.89V81.44h13.82a20.27,20.27,0,0,1,5.06.61,13.53,13.53,0,0,1,4.12,1.77,8.74,8.74,0,0,1,2.76,2.86,7.55,7.55,0,0,1,1,3.91,9.72,9.72,0,0,1-.41,2.93A7.66,7.66,0,0,1,613,95.82a8.57,8.57,0,0,1-1.89,1.82,14,14,0,0,1-2.53,1.41l.2,1.08c0,.25.09.46.13.64l.11.44.24.95a7,7,0,0,0,.61,1.42,2.91,2.91,0,0,0,.87.95,3.61,3.61,0,0,0,1.31.53,9.39,9.39,0,0,0,1.91.17l.56,0,1-.13ZM605.5,91a2.57,2.57,0,0,0-.36-1.42,2.5,2.5,0,0,0-1-.88,4.88,4.88,0,0,0-1.5-.44,13.37,13.37,0,0,0-1.85-.12h-3.09v6.23h1.72l1.46-.07a14.14,14.14,0,0,0,1.69-.23,5.18,5.18,0,0,0,1.49-.53,2.93,2.93,0,0,0,1.06-1A2.79,2.79,0,0,0,605.5,91Z"/><path class="cls-7" d="M623.72,88h-6.45V81.44h23.45V88h-6.45v24.51H623.72Z"/><path class="cls-7" d="M650.88,103.87l-9-22.43h9.45l4.37,14,4.33-14H670l-9.41,22.43v8.66h-9.72Z"/><text class="cls-9" transform="translate(122.9 72.6)">Renée</text><text class="cls-10" transform="translate(124.46 89.2)">(Basel)</text><text class="cls-9" transform="translate(810.08 191.68)">Postgarage 2nd</text><text class="cls-10" transform="translate(847.31 208.27)">(Graz)</text><polyline class="cls-11" points="177.5 83.75 239 125 765.5 125 819 150.39"/><path class="cls-12" d="M497,222.29c-1.85-1.19-7.18-5.2-7.17-11.11,0-9.51,7.19-9.15,7.19-9.15s7.15-.36,7.15,9.15C504.13,217.09,498.8,221.1,497,222.29Z"/><path class="cls-7" d="M499.55,191.75a17.73,17.73,0,0,0-1.37,6.83c0,.4,0,.8,0,1.2,5.06.58,8.26,4.92,8.26,11.39a10.45,10.45,0,0,1-.27,2.3,17.81,17.81,0,0,0,24.07-25.55ZM516,209.59a7.24,7.24,0,1,1,7.24-7.24A7.24,7.24,0,0,1,516,209.59Z"/><path class="cls-7" d="M463.71,187.94a17.82,17.82,0,0,0,24.07,25.55,10.45,10.45,0,0,1-.27-2.3c0-6.47,3.2-10.81,8.26-11.39,0-.4,0-.8,0-1.2a17.73,17.73,0,0,0-1.37-6.84ZM478,209.59a7.24,7.24,0,1,1,7.24-7.24A7.24,7.24,0,0,1,478,209.59Z"/></g></svg>
