<?xml version="1.0" encoding="utf-8"?>
<!-- Generator: Adobe Illustrator 16.0.0, SVG Export Plug-In . SVG Version: 6.00 Build 0)  -->
<!DOCTYPE svg PUBLIC "-//W3C//DTD SVG 1.1//EN" "http://www.w3.org/Graphics/SVG/1.1/DTD/svg11.dtd">
<svg version="1.1" xmlns="http://www.w3.org/2000/svg" xmlns:xlink="http://www.w3.org/1999/xlink" x="0px" y="0px" width="300px"
	 height="150px" viewBox="0 0 300 150" style="enable-background:new 0 0 300 150;" xml:space="preserve">
<g id="Layer_1">
	<g>
		<g>
			<g>
				<path style="fill:#FFFFFF;" d="M24.075,112.785c-1.747,0-3.108,0.709-4.08,2.14c-0.984,1.431-1.47,3.403-1.47,5.904
					c0,5.22,1.987,7.834,5.951,7.834c1.204,0,2.37-0.174,3.491-0.509c1.121-0.326,2.255-0.732,3.394-1.2v6.192
					c-2.266,0.997-4.818,1.508-7.68,1.508c-4.094,0-7.226-1.191-9.408-3.561C12.091,128.711,11,125.283,11,120.801
					c0-2.81,0.528-5.277,1.584-7.401s2.583-3.76,4.561-4.905c1.986-1.147,4.314-1.719,7.008-1.719c2.929,0,5.721,0.639,8.4,1.909
					l-2.246,5.77c-0.999-0.466-2.008-0.866-3.006-1.189C26.303,112.944,25.227,112.785,24.075,112.785z"/>
				<path style="fill:#FFFFFF;" d="M53.278,134.278l-1.335-5.077h-8.802l-1.372,5.077h-8.058l8.853-27.226h9.773l8.957,27.226
					H53.278z M50.428,123.19l-1.172-4.454c-0.271-0.984-0.604-2.262-0.989-3.841c-0.393-1.567-0.65-2.693-0.768-3.368
					c-0.114,0.623-0.332,1.671-0.661,3.109c-0.33,1.451-1.055,4.295-2.181,8.554H50.428z"/>
				<path style="fill:#FFFFFF;" d="M71.549,124.411v9.867h-7.326v-27.109h8.879c7.37,0,11.06,2.668,11.06,8.005
					c0,3.147-1.538,5.577-4.607,7.287l7.898,11.817h-8.301l-5.752-9.867H71.549z M71.549,118.91h1.372
					c2.555,0,3.839-1.134,3.839-3.399c0-1.866-1.262-2.803-3.763-2.803h-1.448V118.91z"/>
				<path style="fill:#FFFFFF;" d="M100.808,118.401h11.702v14.621c-3.174,1.088-6.665,1.632-10.472,1.632
					c-4.184,0-7.412-1.218-9.698-3.639c-2.273-2.423-3.416-5.876-3.416-10.369c0-4.377,1.243-7.778,3.743-10.215
					c2.499-2.434,5.997-3.656,10.501-3.656c1.7,0,3.311,0.167,4.83,0.479c1.511,0.324,2.829,0.736,3.956,1.229l-2.313,5.751
					c-1.954-0.97-4.1-1.449-6.443-1.449c-2.138,0-3.791,0.701-4.952,2.083c-1.171,1.392-1.757,3.383-1.757,5.961
					c0,2.539,0.526,4.471,1.584,5.798c1.056,1.329,2.586,1.998,4.569,1.998c1.087,0,2.096-0.107,3.004-0.317v-4.242h-4.838V118.401z
					"/>
				<path style="fill:#FFFFFF;" d="M143.403,120.686c0,4.561-1.119,8.025-3.351,10.408c-2.24,2.369-5.517,3.561-9.83,3.561
					c-4.25,0-7.51-1.197-9.782-3.582c-2.272-2.384-3.408-5.866-3.408-10.426c0-4.509,1.13-7.962,3.388-10.339
					c2.261-2.377,5.542-3.572,9.842-3.572c4.312,0,7.582,1.186,9.81,3.542C142.289,112.647,143.403,116.113,143.403,120.686z
					 M124.75,120.686c0,5.245,1.82,7.862,5.473,7.862c1.853,0,3.229-0.641,4.128-1.911c0.889-1.269,1.344-3.257,1.344-5.951
					c0-2.707-0.461-4.711-1.364-6c-0.91-1.289-2.269-1.94-4.068-1.94C126.585,112.745,124.75,115.39,124.75,120.686z"/>
			</g>
			<g>
				<path style="fill:#FFFFFF;" d="M185.032,134.153V116.62c0-2.146-0.457-3.758-1.378-4.83c-0.922-1.072-2.342-1.609-4.277-1.609
					c-2.546,0-4.423,0.725-5.63,2.188c-1.218,1.453-1.827,3.702-1.827,6.738v15.047h-4.084V116.62c0-2.146-0.456-3.758-1.378-4.83
					c-0.911-1.072-2.35-1.609-4.304-1.609c-2.551,0-4.423,0.764-5.615,2.292c-1.194,1.541-1.788,4.045-1.788,7.537v14.144h-4.074
					v-26.949h3.312l0.668,3.684h0.194c0.769-1.309,1.854-2.332,3.259-3.076c1.403-0.735,2.971-1.108,4.714-1.108
					c4.21,0,6.965,1.531,8.259,4.583h0.205c0.802-1.411,1.958-2.527,3.491-3.348c1.52-0.819,3.262-1.235,5.216-1.235
					c3.041,0,5.329,0.792,6.842,2.355c1.521,1.562,2.279,4.071,2.279,7.511v17.584H185.032z"/>
				<path style="fill:#FFFFFF;" d="M208.914,134.654c-3.979,0-7.132-1.22-9.429-3.645c-2.311-2.427-3.465-5.8-3.465-10.111
					c0-4.347,1.079-7.795,3.218-10.356c2.141-2.552,5.009-3.839,8.619-3.839c3.372,0,6.055,1.112,8.014,3.335
					c1.971,2.225,2.95,5.153,2.95,8.798v2.576h-18.564c0.085,3.174,0.884,5.574,2.397,7.213c1.513,1.641,3.658,2.461,6.402,2.461
					c2.91,0,5.774-0.609,8.616-1.826v3.644c-1.446,0.626-2.812,1.068-4.096,1.338C212.292,134.513,210.732,134.654,208.914,134.654z
					 M207.806,110.127c-2.163,0-3.893,0.703-5.177,2.114c-1.286,1.412-2.041,3.366-2.271,5.86h14.095
					c0-2.58-0.575-4.555-1.727-5.923C211.577,110.808,209.937,110.127,207.806,110.127z"/>
				<path style="fill:#FFFFFF;" d="M244.132,130.546h-0.219c-1.885,2.738-4.71,4.108-8.462,4.108c-3.526,0-6.27-1.212-8.221-3.619
					c-1.962-2.41-2.948-5.843-2.948-10.28c0-4.447,0.991-7.896,2.955-10.357c1.966-2.459,4.705-3.694,8.214-3.694
					c3.66,0,6.457,1.337,8.411,3.991h0.321l-0.167-1.945l-0.104-1.893V95.883h4.084v38.271h-3.323L244.132,130.546z
					 M235.965,131.229c2.792,0,4.816-0.757,6.068-2.268c1.249-1.524,1.88-3.973,1.88-7.342v-0.864c0-3.821-0.641-6.548-1.907-8.18
					c-1.267-1.631-3.301-2.448-6.081-2.448c-2.401,0-4.232,0.927-5.499,2.797c-1.279,1.856-1.908,4.482-1.908,7.883
					c0,3.44,0.626,6.034,1.895,7.794C231.673,130.35,233.523,131.229,235.965,131.229z"/>
				<path style="fill:#FFFFFF;" d="M256.307,99.898c0-0.938,0.24-1.618,0.695-2.059c0.455-0.431,1.03-0.645,1.726-0.645
					c0.649,0,1.215,0.219,1.689,0.656c0.482,0.441,0.72,1.125,0.72,2.047c0,0.912-0.237,1.603-0.72,2.051
					c-0.475,0.446-1.04,0.679-1.689,0.679c-0.695,0-1.271-0.232-1.726-0.679C256.547,101.501,256.307,100.811,256.307,99.898z
					 M260.736,134.153h-4.082v-26.949h4.082V134.153z"/>
				<path style="fill:#FFFFFF;" d="M285.973,134.153l-0.812-3.835h-0.193c-1.346,1.688-2.684,2.834-4.02,3.435
					c-1.336,0.6-3.007,0.901-5.011,0.901c-2.671,0-4.762-0.695-6.285-2.074c-1.513-1.376-2.27-3.338-2.27-5.874
					c0-5.443,4.354-8.302,13.062-8.563l4.573-0.143v-1.677c0-2.11-0.461-3.671-1.364-4.687c-0.913-1.005-2.374-1.51-4.368-1.51
					c-2.248,0-4.794,0.684-7.624,2.062l-1.259-3.117c1.334-0.728,2.782-1.284,4.364-1.701c1.591-0.402,3.175-0.617,4.765-0.617
					c3.211,0,5.591,0.721,7.149,2.141c1.545,1.427,2.319,3.721,2.319,6.864v18.396H285.973z M276.749,131.278
					c2.546,0,4.535-0.692,5.991-2.086c1.453-1.396,2.175-3.35,2.175-5.86v-2.434l-4.082,0.178c-3.246,0.109-5.583,0.611-7.021,1.508
					c-1.438,0.898-2.15,2.29-2.15,4.173c0,1.471,0.442,2.595,1.34,3.363C273.896,130.89,275.144,131.278,276.749,131.278z"/>
			</g>
		</g>
		<g>
			<g>
				<g>
					<path style="fill:#FFFFFF;" d="M134.858,25.605c0,5.664-4.589,10.256-10.255,10.256c-5.674,0-10.271-4.592-10.271-10.256
						c0-5.668,4.597-10.26,10.271-10.26C130.27,15.346,134.858,19.938,134.858,25.605z"/>
				</g>
				<g>
					<path style="fill:#FFFFFF;" d="M159.484,25.605c0,5.664-4.595,10.256-10.26,10.256c-5.662,0-10.259-4.592-10.259-10.256
						c0-5.668,4.597-10.26,10.259-10.26C154.89,15.346,159.484,19.938,159.484,25.605z"/>
				</g>
				<g>
					<path style="fill:#FFFFFF;" d="M184.107,25.605c0,5.664-4.598,10.256-10.26,10.256S163.59,31.27,163.59,25.605
						c0-5.668,4.596-10.26,10.258-10.26S184.107,19.938,184.107,25.605z"/>
				</g>
			</g>
			<g>
				<g>
					<path style="fill:#FFFFFF;" d="M134.858,50.232c0,5.668-4.589,10.262-10.255,10.262c-5.674,0-10.271-4.594-10.271-10.262
						c0-5.667,4.597-10.268,10.271-10.268C130.27,39.965,134.858,44.565,134.858,50.232z"/>
				</g>
				<g>
					<path style="fill:#FFFFFF;" d="M159.484,50.232c0,5.668-4.595,10.262-10.26,10.262c-5.662,0-10.259-4.594-10.259-10.262
						c0-5.667,4.597-10.268,10.259-10.268C154.89,39.965,159.484,44.565,159.484,50.232z"/>
				</g>
				<g>
					<path style="fill:#FFFFFF;" d="M184.107,50.232c0,5.668-4.598,10.262-10.26,10.262S163.59,55.9,163.59,50.232
						c0-5.667,4.596-10.268,10.258-10.268S184.107,44.565,184.107,50.232z"/>
				</g>
			</g>
			<g>
				<g>
					<path style="fill:#FFFFFF;" d="M134.858,74.856c0,5.664-4.589,10.262-10.255,10.262c-5.674,0-10.271-4.598-10.271-10.262
						c0-5.66,4.597-10.255,10.271-10.255C130.27,64.602,134.858,69.196,134.858,74.856z"/>
				</g>
				<g>
					<path style="fill:#FFFFFF;" d="M159.484,74.856c0,5.664-4.595,10.262-10.26,10.262c-5.662,0-10.259-4.598-10.259-10.262
						c0-5.66,4.597-10.255,10.259-10.255C154.89,64.602,159.484,69.196,159.484,74.856z"/>
				</g>
				<g>
					<path style="fill:#FFFFFF;" d="M184.107,74.856c0,5.664-4.598,10.262-10.26,10.262s-10.258-4.598-10.258-10.262
						c0-5.66,4.596-10.255,10.258-10.255S184.107,69.196,184.107,74.856z"/>
				</g>
			</g>
		</g>
	</g>
</g>
<g id="Layer_2">
</g>
</svg>
