<?xml version="1.0" encoding="utf-8"?>
<!-- Generator: Adobe Illustrator 16.0.0, SVG Export Plug-In . SVG Version: 6.00 Build 0)  -->
<!DOCTYPE svg PUBLIC "-//W3C//DTD SVG 1.1//EN" "http://www.w3.org/Graphics/SVG/1.1/DTD/svg11.dtd">
<svg version="1.1" xmlns="http://www.w3.org/2000/svg" xmlns:xlink="http://www.w3.org/1999/xlink" x="0px" y="0px" width="300px"
	 height="300px" viewBox="0 0 300 300" style="enable-background:new 0 0 300 300;" xml:space="preserve">
<g id="Layer_1">
	<g>
		<path style="fill:#FFFFFF;" d="M153.012,55.579h-2.574l13.871-23.138h2.491L153.012,55.579z"/>
		<path style="fill:#FFFFFF;" d="M181.521,55.579L167.71,32.441h2.494l13.891,23.138H181.521z"/>
		<path style="fill:#FFFFFF;" d="M185.542,57.097v-2.179h15.275v2.179H185.542z"/>
		<path style="fill:#FFFFFF;" d="M204.872,55.579h-2.574l13.871-23.138h2.493L204.872,55.579z"/>
		<path style="fill:#FFFFFF;" d="M233.381,55.579L219.57,32.441h2.496l13.889,23.138H233.381z"/>
		<path style="fill:#FFFFFF;" d="M66.604,90.146H64.03L77.9,67.006h2.494L66.604,90.146z"/>
		<path style="fill:#FFFFFF;" d="M95.112,90.146L81.302,67.006h2.497l13.889,23.141H95.112z"/>
		<path style="fill:#FFFFFF;" d="M135.752,90.146h-2.574l13.871-23.141h2.493L135.752,90.146z"/>
		<path style="fill:#FFFFFF;" d="M175.931,89.922c-2.25,0-4.048-0.786-5.399-2.357c-1.347-1.571-2.022-3.551-2.022-5.943
			c0-2.391,0.676-4.37,2.022-5.936c1.352-1.566,3.149-2.348,5.399-2.348c2.238,0,4.031,0.781,5.381,2.348
			c1.349,1.565,2.024,3.545,2.024,5.936c0,2.393-0.676,4.372-2.024,5.943C179.962,89.136,178.169,89.922,175.931,89.922z
			 M175.931,87.741c1.394,0,2.503-0.545,3.328-1.632c0.822-1.089,1.235-2.584,1.235-4.488c0-1.894-0.413-3.384-1.235-4.473
			c-0.825-1.087-1.935-1.632-3.328-1.632c-1.405,0-2.52,0.545-3.344,1.632c-0.822,1.089-1.236,2.579-1.236,4.473
			c0,1.904,0.414,3.399,1.236,4.488C173.411,87.196,174.525,87.741,175.931,87.741z"/>
		<path style="fill:#FFFFFF;" d="M210.503,89.922c-2.247,0-4.047-0.786-5.396-2.357c-1.349-1.571-2.021-3.551-2.021-5.943
			c0-2.391,0.673-4.37,2.021-5.936c1.35-1.566,3.149-2.348,5.396-2.348c2.239,0,4.031,0.781,5.383,2.348
			c1.347,1.565,2.022,3.545,2.022,5.936c0,2.393-0.676,4.372-2.022,5.943C214.534,89.136,212.742,89.922,210.503,89.922z
			 M210.503,87.741c1.395,0,2.504-0.545,3.328-1.632c0.824-1.089,1.235-2.584,1.235-4.488c0-1.894-0.411-3.384-1.235-4.473
			c-0.824-1.087-1.934-1.632-3.328-1.632c-1.404,0-2.517,0.545-3.344,1.632c-0.822,1.089-1.235,2.579-1.235,4.473
			c0,1.904,0.413,3.399,1.235,4.488C207.986,87.196,209.099,87.741,210.503,87.741z"/>
		<path style="fill:#FFFFFF;" d="M250.696,90.146l-13.811-23.141h2.493l13.892,23.141H250.696z"/>
		<path style="fill:#FFFFFF;" d="M49.304,124.714h-2.574l13.871-23.138h2.491L49.304,124.714z"/>
		<path style="fill:#FFFFFF;" d="M66.589,124.714h-2.571l13.87-23.138h2.492L66.589,124.714z"/>
		<path style="fill:#FFFFFF;" d="M95.101,124.714L81.29,101.576h2.493l13.892,23.138H95.101z"/>
		<path style="fill:#FFFFFF;" d="M112.388,124.714l-13.811-23.138h2.494l13.889,23.138H112.388z"/>
		<path style="fill:#FFFFFF;" d="M146.96,124.714l-13.811-23.138h2.494l13.892,23.138H146.96z"/>
		<path style="fill:#FFFFFF;" d="M150.772,118.385v-0.252c0-1.228,0.363-2.295,1.09-3.199c0.727-0.906,1.704-1.359,2.933-1.359
			c0.31,0,0.612,0.03,0.907,0.093c0.295,0.061,0.631,0.164,1.006,0.308c0.376,0.146,0.938,0.432,1.688,0.853l1.702,0.943
			c1.044,0.569,1.894,0.857,2.554,0.857c0.696,0,1.211-0.253,1.544-0.755c0.335-0.501,0.501-1.046,0.501-1.636v-0.228h1.788v0.228
			c0,1.565-0.443,2.721-1.329,3.467c-0.887,0.744-1.828,1.117-2.821,1.117c-0.928,0-2.156-0.437-3.684-1.309l-1.435-0.83
			c-1.09-0.617-1.965-0.928-2.631-0.928c-0.375,0-0.726,0.099-1.049,0.295c-0.322,0.197-0.585,0.513-0.781,0.943
			c-0.197,0.431-0.295,0.812-0.295,1.14v0.252H150.772z"/>
		<path style="fill:#FFFFFF;" d="M182.35,129.285c-2.597-0.158-4.785-0.893-6.568-2.201c-1.782-1.306-3.205-3.071-4.269-5.295
			c-1.064-2.222-1.597-4.448-1.597-6.682c0-2.232,0.532-4.459,1.597-6.68c1.063-2.225,2.486-3.989,4.269-5.298
			c1.783-1.307,3.972-2.045,6.568-2.214v2.181c-1.962,0.177-3.648,0.835-5.062,1.978c-1.415,1.14-2.524,2.592-3.331,4.356
			c-0.81,1.763-1.213,3.654-1.213,5.671c0,2.018,0.403,3.906,1.213,5.672c0.807,1.765,1.916,3.212,3.331,4.35
			c1.414,1.134,3.101,1.795,5.062,1.984V129.285z"/>
		<path style="fill:#FFFFFF;" d="M191.858,114.784l0.005-4.882l-3.696,2.663l-1.301-2.267l4.316-2.111l-4.316-2.138l1.309-2.236
			l3.688,2.657l-0.005-4.895h2.646l-0.005,4.895l3.711-2.647l1.314,2.227l-4.332,2.138l4.332,2.111l-1.321,2.276l-3.704-2.673
			l0.005,4.882H191.858z"/>
		<path style="fill:#FFFFFF;" d="M204.053,100.916c2.6,0.169,4.788,0.907,6.571,2.214c1.78,1.309,3.202,3.073,4.269,5.298
			c1.064,2.221,1.597,4.447,1.597,6.68c0,2.233-0.532,4.46-1.597,6.682c-1.066,2.224-2.488,3.989-4.269,5.295
			c-1.783,1.309-3.972,2.043-6.571,2.201v-2.178c1.962-0.189,3.646-0.851,5.058-1.984c1.412-1.138,2.522-2.585,3.334-4.35
			c0.812-1.766,1.215-3.654,1.215-5.672c0-2.017-0.403-3.908-1.215-5.671c-0.812-1.765-1.922-3.217-3.334-4.356
			c-1.411-1.143-3.096-1.801-5.058-1.978V100.916z"/>
		<path style="fill:#FFFFFF;" d="M219.921,118.385v-0.252c0-1.228,0.363-2.295,1.089-3.199c0.727-0.906,1.705-1.359,2.933-1.359
			c0.311,0,0.613,0.03,0.908,0.093c0.295,0.061,0.63,0.164,1.006,0.308c0.376,0.146,0.938,0.432,1.687,0.853l1.702,0.943
			c1.044,0.569,1.894,0.857,2.555,0.857c0.695,0,1.21-0.253,1.543-0.755c0.335-0.501,0.502-1.046,0.502-1.636v-0.228h1.787v0.228
			c0,1.565-0.443,2.721-1.328,3.467c-0.888,0.744-1.828,1.117-2.822,1.117c-0.928,0-2.155-0.437-3.684-1.309l-1.435-0.83
			c-1.089-0.617-1.964-0.928-2.63-0.928c-0.376,0-0.727,0.099-1.049,0.295c-0.323,0.197-0.585,0.513-0.782,0.943
			c-0.196,0.431-0.295,0.812-0.295,1.14v0.252H219.921z"/>
		<path style="fill:#FFFFFF;" d="M239.46,124.714h-2.574l13.871-23.138h2.493L239.46,124.714z"/>
		<path style="fill:#FFFFFF;" d="M57.966,140.506H55.56l-4.795-4.586h3.051L57.966,140.506z"/>
		<path style="fill:#FFFFFF;" d="M112.388,159.284l-13.811-23.138h2.494l13.889,23.138H112.388z"/>
		<path style="fill:#FFFFFF;" d="M118.452,159.284h-2.574l13.87-23.138h2.491L118.452,159.284z"/>
		<path style="fill:#FFFFFF;" d="M193.195,136.792l7.638,15.291h-2.406l-5.231-10.475l-5.232,10.475h-2.405L193.195,136.792z"/>
		<path style="fill:#FFFFFF;" d="M222.173,159.284h-2.575l13.874-23.138h2.491L222.173,159.284z"/>
		<path style="fill:#FFFFFF;" d="M105.62,193.852v-23.14h2.294v23.14H105.62z"/>
		<path style="fill:#FFFFFF;" d="M146.96,193.852l-13.811-23.14h2.494l13.892,23.14H146.96z"/>
		<path style="fill:#FFFFFF;" d="M157.482,193.852v-23.14h2.292v23.14H157.482z"/>
		<path style="fill:#FFFFFF;" d="M174.768,193.852v-23.14h2.295v23.14H174.768z"/>
		<path style="fill:#FFFFFF;" d="M209.343,193.852v-23.14h2.292v23.14H209.343z"/>
		<path style="fill:#FFFFFF;" d="M226.631,193.852v-23.14h2.292v23.14H226.631z"/>
		<path style="fill:#FFFFFF;" d="M112.388,228.42l-13.811-23.139h2.494l13.889,23.139H112.388z"/>
		<path style="fill:#FFFFFF;" d="M142.306,213.792h-1.887l-1.477-8.734h4.798L142.306,213.792z"/>
		<path style="fill:#FFFFFF;" d="M157.482,228.42v-23.139h2.292v23.139H157.482z"/>
		<path style="fill:#FFFFFF;" d="M174.768,228.42v-23.139h2.295v23.139H174.768z"/>
		<path style="fill:#FFFFFF;" d="M209.343,228.42v-23.139h2.292v23.139H209.343z"/>
		<path style="fill:#FFFFFF;" d="M226.631,228.42v-23.139h2.292v23.139H226.631z"/>
		<path style="fill:#FFFFFF;" d="M129.673,262.987l-13.811-23.138h2.496l13.889,23.138H129.673z"/>
		<path style="fill:#FFFFFF;" d="M134.905,239.188c2.6,0.169,4.788,0.905,6.57,2.214c1.78,1.309,3.203,3.074,4.27,5.298
			c1.064,2.222,1.596,4.448,1.596,6.68s-0.531,4.461-1.596,6.683c-1.066,2.221-2.489,3.986-4.27,5.295
			c-1.782,1.309-3.971,2.042-6.57,2.201v-2.179c1.961-0.189,3.646-0.85,5.058-1.984c1.412-1.138,2.521-2.585,3.334-4.353
			c0.812-1.762,1.215-3.65,1.215-5.671c0-2.015-0.403-3.905-1.215-5.671c-0.812-1.765-1.922-3.215-3.334-4.354
			c-1.412-1.142-3.097-1.8-5.058-1.979V239.188z"/>
		<path style="fill:#FFFFFF;" d="M165.062,267.559c-2.598-0.159-4.786-0.893-6.568-2.201c-1.78-1.309-3.205-3.074-4.27-5.295
			c-1.063-2.222-1.596-4.451-1.596-6.683s0.532-4.458,1.596-6.68c1.064-2.224,2.489-3.989,4.27-5.298
			c1.782-1.309,3.971-2.045,6.568-2.214v2.179c-1.962,0.18-3.648,0.838-5.063,1.979c-1.412,1.14-2.523,2.59-3.331,4.354
			c-0.81,1.766-1.213,3.656-1.213,5.671c0,2.021,0.403,3.909,1.213,5.671c0.808,1.768,1.919,3.215,3.331,4.353
			c1.415,1.135,3.102,1.795,5.063,1.984V267.559z"/>
		<path style="fill:#FFFFFF;" d="M169.48,239.188c2.597,0.169,4.785,0.905,6.568,2.214c1.782,1.309,3.205,3.074,4.269,5.298
			c1.064,2.222,1.597,4.448,1.597,6.68s-0.532,4.461-1.597,6.683c-1.063,2.221-2.486,3.986-4.269,5.295
			c-1.783,1.309-3.972,2.042-6.568,2.201v-2.179c1.959-0.189,3.646-0.85,5.056-1.984c1.412-1.138,2.523-2.585,3.333-4.353
			c0.812-1.762,1.218-3.65,1.218-5.671c0-2.015-0.406-3.905-1.218-5.671c-0.81-1.765-1.921-3.215-3.333-4.354
			c-1.41-1.142-3.097-1.8-5.056-1.979V239.188z"/>
		<path style="fill:#FFFFFF;" d="M187.751,254.575v-2.179h10.916v2.179H187.751z"/>
		<path style="fill:#FFFFFF;" d="M216.925,267.559c-2.597-0.159-4.788-0.893-6.568-2.201c-1.782-1.309-3.205-3.074-4.269-5.295
			c-1.067-2.222-1.599-4.451-1.599-6.683s0.531-4.458,1.599-6.68c1.063-2.224,2.486-3.989,4.269-5.298
			c1.78-1.309,3.972-2.045,6.568-2.214v2.179c-1.964,0.18-3.65,0.838-5.065,1.979c-1.412,1.14-2.524,2.59-3.331,4.354
			c-0.807,1.766-1.21,3.656-1.21,5.671c0,2.021,0.403,3.909,1.21,5.671c0.807,1.768,1.919,3.215,3.331,4.353
			c1.415,1.135,3.102,1.795,5.065,1.984V267.559z"/>
		<path style="fill:#FFFFFF;" d="M221.341,239.188c2.597,0.169,4.788,0.905,6.568,2.214c1.782,1.309,3.205,3.074,4.269,5.298
			c1.064,2.222,1.597,4.448,1.597,6.68s-0.532,4.461-1.597,6.683c-1.063,2.221-2.486,3.986-4.269,5.295
			c-1.78,1.309-3.972,2.042-6.568,2.201v-2.179c1.959-0.189,3.646-0.85,5.058-1.984c1.409-1.138,2.521-2.585,3.333-4.353
			c0.81-1.762,1.216-3.65,1.216-5.671c0-2.015-0.406-3.905-1.216-5.671c-0.812-1.765-1.924-3.215-3.333-4.354
			c-1.412-1.142-3.099-1.8-5.058-1.979V239.188z"/>
		<path style="fill:#FFFFFF;" d="M238.628,239.188c2.598,0.169,4.788,0.905,6.568,2.214c1.783,1.309,3.205,3.074,4.27,5.298
			c1.063,2.222,1.596,4.448,1.596,6.68s-0.532,4.461-1.596,6.683c-1.064,2.221-2.486,3.986-4.27,5.295
			c-1.78,1.309-3.971,2.042-6.568,2.201v-2.179c1.959-0.189,3.646-0.85,5.056-1.984c1.412-1.138,2.524-2.585,3.336-4.353
			c0.81-1.762,1.216-3.65,1.216-5.671c0-2.015-0.406-3.905-1.216-5.671c-0.812-1.765-1.924-3.215-3.336-4.354
			c-1.409-1.142-3.097-1.8-5.056-1.979V239.188z"/>
	</g>
</g>
<g id="Layer_2">
</g>
</svg>
