<?xml version="1.0" encoding="utf-8"?>
<!-- Generator: Adobe Illustrator 16.0.0, SVG Export Plug-In . SVG Version: 6.00 Build 0)  -->
<!DOCTYPE svg PUBLIC "-//W3C//DTD SVG 1.1//EN" "http://www.w3.org/Graphics/SVG/1.1/DTD/svg11.dtd">
<svg version="1.1" id="Layer_1" xmlns="http://www.w3.org/2000/svg" xmlns:xlink="http://www.w3.org/1999/xlink" x="0px" y="0px"
	 width="300px" height="300px" viewBox="0 0 300 300" style="enable-background:new 0 0 300 300;" xml:space="preserve">
<g>
	<path style="fill-rule:evenodd;clip-rule:evenodd;fill:#FFFFFF;" d="M206.642,261.448c-6.038-5.208-12.077-10.414-18.114-15.622
		c-2.732-2.358-5.464-4.722-8.305-7.173c-7.159,7.623-14.269,15.196-21.445,22.839c-7.219-7.639-14.382-15.216-21.59-22.839
		c-8.531,7.579-16.975,15.083-25.42,22.583c-0.078-0.041-0.161-0.084-0.242-0.125c0.293-1.875,0.587-3.749,0.881-5.625
		c1.139-7.2,2.274-14.4,3.418-21.598c1.141-7.203,2.294-14.398,3.434-21.596c1.142-7.2,2.27-14.402,3.41-21.604
		c1.206-7.625,2.42-15.249,3.631-22.873c0.589-3.718,1.207-7.429,1.76-11.152c0.101-0.682,0.299-0.943,1.009-0.941
		c19.379,0.021,38.761,0.027,58.141,0.035c0.037,0,0.075,0.017,0.28,0.062c0.399,2.146,0.814,4.359,1.219,6.578
		c1.469,8.054,2.939,16.107,4.398,24.164c1.525,8.402,3.038,16.807,4.561,25.21c1.609,8.905,3.225,17.812,4.839,26.718
		c1.295,7.13,2.589,14.26,3.891,21.389c0.04,0.215,0.162,0.416,0.246,0.626C206.642,260.817,206.642,261.132,206.642,261.448z"/>
	<path style="fill-rule:evenodd;clip-rule:evenodd;fill:#FFFFFF;" d="M128.08,38.509c1.962,0.338,3.928,0.664,5.886,1.015
		c7.75,1.387,14.466,4.953,20.694,9.648c5.914,4.459,10.407,10.062,13.981,16.486c2.615,4.696,5.248,9.379,7.021,14.473
		c2.853,8.199,5.001,16.57,6.188,25.179c0.473,3.417,0.902,6.838,1.334,10.261c0.084,0.658,0.084,1.327,0.125,2.111
		c-16.285,0-32.496,0-48.693,0c0.373-4.292,0.779-8.61,1.111-12.934c0.515-6.644,0.073-13.222-2.347-19.474
		c-2.306-5.957-6.183-10.538-12.762-11.923c-6.657-1.404-13.491,0.541-17.239,6.729c-2.188,3.612-2.638,8.79,0.045,12.095
		c1.835,2.265,4.894,2.638,6.695,0.776c1.133-1.165,1.207-2.502,0.685-3.925c-0.497-1.359-1.562-2.037-2.959-2.156
		c-0.807-0.068-1.622-0.013-2.453-0.013c-0.282-3.241,2.528-6.788,6.099-7.536c7.268-1.52,13.433,2.753,14.891,10.316
		c1.475,7.647-2.112,16.036-8.688,20.057c-3.91,2.392-8.225,3.186-12.771,2.753c-4.081-0.391-8.086-1.092-11.716-3.15
		c-8.259-4.686-13.047-11.883-15.144-21.013c-0.252-1.097-0.472-2.201-0.707-3.3c0-3.225,0-6.449,0-9.675
		c0.192-0.947,0.382-1.896,0.571-2.844c2.275-11.301,8.559-19.878,17.981-26.264c5.856-3.968,12.467-5.943,19.396-6.973
		c1.968-0.292,3.954-0.482,5.931-0.721C123.521,38.509,125.801,38.509,128.08,38.509z"/>
	<path style="fill-rule:evenodd;clip-rule:evenodd;fill:#FFFFFF;" d="M158.159,143.271c-12.064,0-24.129,0.008-36.193-0.003
		c-3.259-0.004-5.96-2.223-6.565-5.33c-0.61-3.111,1.083-6.218,4.11-7.384c0.751-0.292,1.602-0.465,2.404-0.466
		c24.089-0.029,48.182-0.036,72.271-0.033c3.845,0,6.526,2.441,6.971,6.264c0.342,2.921-1.971,6.052-5.052,6.791
		c-0.563,0.135-1.164,0.163-1.749,0.164c-12.064,0.01-24.129,0.008-36.196,0.008C158.159,143.278,158.159,143.273,158.159,143.271z"
		/>
	<path style="fill-rule:evenodd;clip-rule:evenodd;fill:#FFFFFF;" d="M158.009,153.893c-9.942,0-19.881,0.011-29.823-0.005
		c-2.838-0.004-4.537-1.847-4.362-4.646c0.113-1.826,1.591-3.404,3.42-3.646c0.353-0.044,0.704-0.071,1.058-0.071
		c19.841-0.003,39.684-0.006,59.527-0.003c2.344,0,3.943,1.224,4.372,3.299c0.391,1.901-0.562,3.953-2.313,4.696
		c-0.659,0.281-1.443,0.357-2.172,0.361C177.812,153.9,167.911,153.893,158.009,153.893z"/>
	<path style="fill-rule:evenodd;clip-rule:evenodd;fill:#FFFFFF;" d="M158.622,119.651c9.354,0,18.703,0,28.053,0
		c2.435,0,4.198,1.788,4.196,4.253c-0.004,2.428-1.808,4.246-4.227,4.244c-18.153-0.008-36.304-0.02-54.458-0.03
		c-1.394,0-2.809,0.23-4.084-0.681c-1.538-1.099-2.229-3.017-1.645-4.881c0.545-1.744,2.14-2.905,3.995-2.905
		C139.843,119.649,149.234,119.651,158.622,119.651z"/>
</g>
</svg>
