<?xml version="1.0" encoding="utf-8"?>
<!-- Generator: Adobe Illustrator 19.1.0, SVG Export Plug-In . SVG Version: 6.00 Build 0)  -->
<!DOCTYPE svg PUBLIC "-//W3C//DTD SVG 1.1//EN" "http://www.w3.org/Graphics/SVG/1.1/DTD/svg11.dtd">
<svg version="1.1" id="Layer_1" xmlns="http://www.w3.org/2000/svg" xmlns:xlink="http://www.w3.org/1999/xlink" x="0px" y="0px"
	 viewBox="0 0 100 100" enable-background="new 0 0 100 100" xml:space="preserve">
<g>
	<g>
		<path fill="#231F20" d="M42.3,48.6c-1.3,0-1.3,2-0.1,2h18.4c1.2,0,1.3-2-0.1-2H42.3z"/>
		<path fill="#231F20" d="M43.1,41.6c-1.3,0-1.3,2-0.1,2h16.5c1.2,0,1.3-2-0.1-2H43.1z"/>
		<path fill="#231F20" d="M41.2,44.5c-2.1,0-2.1,3.2,0,3.2h20.5c2.1,0,2-3.2,0-3.2H41.2z"/>
	</g>
	<polygon fill="#231F20" points="38.4,79.5 46.2,73.1 51.3,79.5 56.4,73.1 64.2,79.5 59.6,51.5 43.1,51.5 	"/>
	<g>
		<path fill="#231F20" d="M40.6,31.1c-0.5-0.2-1-0.2-1-0.2c-2.5,0-2.3,2.5-2.3,2.5c0.1-0.3,0.6-0.3,0.6-0.3c0.9,0,0.9,0.8,0.9,0.8
			c0,1-1.1,1-1.1,1c-1.8,0-1.7-2.4-1.7-2.4s0.2-3.7,4.2-3.4c0,0,5.1-0.3,5.4,6.9c0,0-0.2,3.3-0.7,4.7H58c0.2-6.4-2.9-12.2-2.9-12.2
			c-4.6-8.5-13.1-8-13.1-8C29.3,21,29.8,31.3,29.8,31.3c-0.2,8.7,7.5,8.4,7.5,8.4c5.3-0.1,5.3-5,5.3-5
			C42.7,31.6,40.6,31.1,40.6,31.1"/>
	</g>
</g>
</svg>
