<?xml version="1.0" encoding="utf-8"?>
<!-- Generator: Adobe Illustrator 20.0.0, SVG Export Plug-In . SVG Version: 6.00 Build 0)  -->
<!DOCTYPE svg PUBLIC "-//W3C//DTD SVG 1.0//EN" "http://www.w3.org/TR/2001/REC-SVG-20010904/DTD/svg10.dtd">
<svg version="1.0" xmlns="http://www.w3.org/2000/svg" xmlns:xlink="http://www.w3.org/1999/xlink" x="0px" y="0px"
	 viewBox="0 0 100 100" style="enable-background:new 0 0 100 100;" xml:space="preserve">
<style type="text/css">
	.st0{display:none;}
	.st1{display:inline;fill:#5E6B68;}
	.st2{display:inline;fill:#1A1A1A;}
	.st3{display:inline;fill:#8BA9A3;}
	.st4{fill:#1A1A1A;}
	.st5{opacity:0.5;}
	.st6{fill:#F4CC0D;}
	.st7{fill:#F4BC0D;}
	.st8{fill:#FFFFFF;}
</style>
<g id="bg" class="st0">
	<rect class="st3" width="100" height="100"/>
</g>
<g id="logo">
	<g>
		<g>
			<path class="st4" d="M50.3,81L50.3,81l-12.1,0l0,0C40.9,76.3,47.6,76.3,50.3,81z"/>
			<path class="st4" d="M50.3,81L50.3,81l12.1,0l0,0C59.7,76.3,53,76.3,50.3,81z"/>
			<path class="st4" d="M74.1,44.7C74.1,44.7,74.1,44.7,74.1,44.7c0-0.3,0-0.5,0-0.7c0,0,0,0,0,0c0,0,0,0,0,0
				c-0.5-4-1.6-9.2-3.4-13.1c-1.6-3.3,2-6.8-0.8-11.9c-5.6,6-14.7,5.2-19.9,5.2c-5.1,0-14.3,0.8-19.8-5.2c-2.7,5.1,0.8,8.6-0.8,11.9
				c-1.9,4.1-3.1,8.8-3.5,13.8c-0.3,5.4,0.1,12.2,1.5,18c6,0.5,15.1,14.4,15.1,14.4l3.1-2.7c0,0,0,0,0,0l4.4,4.7l4.4-4.6l3.2,2.7
				c0,0,9-13.9,15.1-14.4C73.9,57.2,74.3,50,74.1,44.7z M59,29.1c4.7,0,8.4,3.8,8.4,8.4c0,4.7-3.8,8.4-8.4,8.4
				c-1.7,0-3.3-0.5-4.6-1.4c0.1-0.4,0.1-0.7,0.1-1.1c0-3.1-1.5-5.1-3.9-5.4c0-0.2,0-0.4,0-0.6C50.6,32.9,54.4,29.1,59,29.1z
				 M41,29.1c4.7,0,8.4,3.8,8.4,8.4c0,0.2,0,0.4,0,0.6c-2.4,0.3-3.9,2.3-3.9,5.4c0,0.4,0,0.7,0.1,1.1C44.3,45.4,42.7,46,41,46
				c-4.7,0-8.4-3.8-8.4-8.4C32.6,32.9,36.4,29.1,41,29.1z M50,48.7c-0.9-0.6-3.4-2.5-3.4-5.3c0-4.5,3.4-4.3,3.4-4.3
				c0,0,3.4-0.2,3.4,4.3C53.4,46.3,50.9,48.2,50,48.7z"/>
		</g>
		<g>
			<circle class="st4" cx="41" cy="37.5" r="3.4"/>
			<circle class="st4" cx="59" cy="37.5" r="3.4"/>
		</g>
	</g>
</g>
</svg>
