<?xml version="1.0" encoding="utf-8"?>
<!-- Generator: Adobe Illustrator 20.0.0, SVG Export Plug-In . SVG Version: 6.00 Build 0)  -->
<!DOCTYPE svg PUBLIC "-//W3C//DTD SVG 1.0//EN" "http://www.w3.org/TR/2001/REC-SVG-20010904/DTD/svg10.dtd">
<svg version="1.0" xmlns="http://www.w3.org/2000/svg" xmlns:xlink="http://www.w3.org/1999/xlink" x="0px" y="0px"
	 viewBox="0 0 100 100" style="enable-background:new 0 0 100 100;" xml:space="preserve">
<style type="text/css">
	.st0{fill:#8BA9A3;}
	.st1{fill:#6A7774;}
	.st2{opacity:0.2;fill:#FFFACE;}
	.st3{opacity:0.5;}
	.st4{fill:#88B196;}
	.st5{opacity:0.6;}
	.st6{opacity:0.2;}
	.st7{fill:#FF82AB;}
	.st8{opacity:0.5;fill:#B2496C;}
	.st9{opacity:0.3;fill:#FFFC7F;}
	.st10{fill:#FF97C3;}
	.st11{fill:#8BC4A3;}
	.st12{fill:#1A1A1A;}
	.st13{fill:#FFFFFF;}
	.st14{fill:#1A1A1A;stroke:#FFFFFF;stroke-width:2;stroke-miterlimit:10;}
	.st15{fill:#A2BAB5;}
	.st16{fill:#B10000;}
	.st17{fill:none;stroke:#000000;stroke-width:5;stroke-miterlimit:10;}
	.st18{opacity:0.6;fill:#1A1A1A;}
	.st19{fill:#FF9DAB;}
	.st20{fill:#00A6ED;}
	.st21{fill:#75CFD6;}
	.st22{fill:#004448;}
	.st23{opacity:0.6;fill:#FFFFFF;}
	.st24{fill:#1B002C;}
	.st25{stroke:#FFFFFF;stroke-miterlimit:10;}
	.st26{fill:#F4CC0D;}
	.st27{fill:#F4BC0D;}
	.st28{fill:#A8004E;}
	.st29{fill:#7E003B;}
	.st30{opacity:0.6;fill:#A2BAB5;}
	.st31{opacity:0.2;fill:#1A1A1A;}
	.st32{fill:#FFFFFF;stroke:#1A1A1A;stroke-width:6;stroke-miterlimit:10;}
	.st33{fill:none;}
	.st34{fill:#FF4391;}
	.st35{fill:#B21D5B;}
	.st36{fill:#2E0048;}
	.st37{fill:#FF1B91;}
	.st38{fill:#FF69A7;}
	.st39{opacity:0.6;fill:#FFB4D3;}
	.st40{fill:#9266A8;}
	.st41{fill:#002433;}
	.st42{fill:#C14A7C;}
	.st43{fill:#33505C;}
	.st44{fill:#DC0054;}
	.st45{fill:#212433;}
	.st46{fill:#384047;}
	.st47{opacity:0.29;}
	.st48{opacity:0.5;fill:url(#SVGID_1_);}
</style>
<g id="bg">
</g>
<g id="Layer_1">
	<path class="st2" d="M79.2,32.1c4.9,0,9.4-2.7,11.8-7c-8-0.5-14.4-7.1-14.4-15.3c0-1.5,0.2-3,0.7-4.4c-6.5,1-11.4,6.5-11.4,13.2
		C65.8,26.1,71.8,32.1,79.2,32.1z"/>
	<polygon class="st2" points="14.8,70.5 17.6,62.5 20.3,70.5 28.2,73.2 20.3,75.9 17.6,83.9 14.8,75.9 6.9,73.2 	"/>
	<polygon class="st2" points="38.2,10.6 40.3,4.6 42.3,10.6 48.3,12.6 42.3,14.7 40.3,20.7 38.2,14.7 32.2,12.6 	"/>
	<g>
		<path class="st12" d="M44.5,75.1c-1.1-7.7-7.1-27.6-19.4-29.5c-0.3,5.6,0.2,11.5,1.6,17.4c6.2,0.6,15.5,14.8,15.5,14.8L44.5,75.1z
			"/>
		<path class="st12" d="M50,81.9L50,81.9l-12.5,0l0,0C40.3,77.1,47.2,77.1,50,81.9z"/>
		<path class="st12" d="M55.5,75.1c1.1-7.7,7.1-27.6,19.4-29.5c0.3,5.6-0.2,11.5-1.6,17.4c-6.2,0.6-15.5,14.8-15.5,14.8L55.5,75.1z"
			/>
		<path class="st12" d="M50,81.9L50,81.9l12.5,0l0,0C59.7,77.1,52.8,77.1,50,81.9z"/>
		<g>
			<path class="st12" d="M71.2,30.3c-1.6-3.4,2-7-0.8-12.3c-5.8,6.2-15.2,5.4-20.5,5.4c-5.3,0-14.7,0.8-20.4-5.4
				c-2.8,5.3,0.8,8.9-0.8,12.3c-2,4.2-3.2,9-3.6,14.2c7.2,1,12.1,7.8,15,13.6c3.2,6.4,4.7,13.2,5.2,17L50,80l4.6-4.8
				c0.5-3.8,2-10.6,5.2-17c2.9-5.7,7.8-12.5,15-13.6C74.4,39.4,73.2,34.6,71.2,30.3z M40.7,45.8c-4.8,0-8.7-3.9-8.7-8.7
				s3.9-8.7,8.7-8.7s8.7,3.9,8.7,8.7c0,0.2,0,0.4,0,0.6c-2.5,0.3-4,2.4-4,5.6c0,0.4,0,0.8,0.1,1.1C44.1,45.3,42.5,45.8,40.7,45.8z
				 M50,48.7c-0.9-0.6-3.5-2.5-3.5-5.4c0-4.6,3.5-4.5,3.5-4.5c0,0,3.5-0.2,3.5,4.5C53.5,46.2,50.9,48.1,50,48.7z M59.3,45.8
				c-1.8,0-3.4-0.5-4.8-1.4c0.1-0.4,0.1-0.7,0.1-1.1c0-3.2-1.6-5.3-4-5.6c0-0.2,0-0.4,0-0.6c0-4.8,3.9-8.7,8.7-8.7
				c4.8,0,8.7,3.9,8.7,8.7S64.1,45.8,59.3,45.8z"/>
			<circle class="st12" cx="40.7" cy="37.1" r="3.5"/>
			<circle class="st12" cx="59.3" cy="37.1" r="3.5"/>
		</g>
	</g>
</g>
<g id="overlay">
</g>
</svg>
