<?xml version="1.0" encoding="utf-8"?>
<!-- Generator: Adobe Illustrator 19.1.0, SVG Export Plug-In . SVG Version: 6.00 Build 0)  -->
<!DOCTYPE svg PUBLIC "-//W3C//DTD SVG 1.1//EN" "http://www.w3.org/Graphics/SVG/1.1/DTD/svg11.dtd">
<svg version="1.1" id="Layer_1" xmlns="http://www.w3.org/2000/svg" xmlns:xlink="http://www.w3.org/1999/xlink" x="0px" y="0px"
	 viewBox="0 0 100 100" enable-background="new 0 0 100 100" xml:space="preserve">
<g>
	<g>
		<path fill="#231F20" d="M41.9,48.6c-1.5,0-1.4,2-0.1,2H62c1.4,0,1.4-2-0.1-2H41.9z"/>
		<path fill="#231F20" d="M42.8,41.6c-1.5,0-1.4,2-0.1,2h18.1c1.4,0,1.4-2-0.1-2H42.8z"/>
		<path fill="#231F20" d="M40.6,44.5c-2.3,0-2.3,3.2,0,3.2h22.5c2.3,0,2.2-3.2,0-3.2H40.6z"/>
	</g>
	<polygon fill="#231F20" points="37.5,79.6 46.1,73.2 51.7,79.6 57.3,73.1 65.9,79.6 60.8,51.5 42.7,51.5 	"/>
	<g>
		<path fill="#231F20" d="M40,31.1c-0.6-0.2-1.1-0.2-1.1-0.2c-2.8,0-2.5,2.5-2.5,2.5C36.4,33.1,37,33,37,33c0.9,0,0.9,0.8,0.9,0.8
			c0,1-1.2,1-1.2,1c-2,0-1.8-2.4-1.8-2.4s0.2-3.7,4.6-3.5c0,0,5.6-0.3,6,7c0,0-0.2,3.3-0.7,4.8H59c0.2-6.4-3.2-12.2-3.2-12.2
			c-5-8.6-14.4-8-14.4-8c-13.9,0.5-13.4,10.8-13.4,10.8c-0.2,8.7,8.3,8.4,8.3,8.4c5.8-0.1,5.8-5,5.8-5C42.2,31.6,40,31.1,40,31.1"/>
	</g>
</g>
</svg>
