<?xml version="1.0" encoding="utf-8"?>
<!-- Generator: Adobe Illustrator 19.1.0, SVG Export Plug-In . SVG Version: 6.00 Build 0)  -->
<!DOCTYPE svg PUBLIC "-//W3C//DTD SVG 1.1//EN" "http://www.w3.org/Graphics/SVG/1.1/DTD/svg11.dtd">
<svg version="1.1" id="Layer_1" xmlns="http://www.w3.org/2000/svg" xmlns:xlink="http://www.w3.org/1999/xlink" x="0px" y="0px"
	 viewBox="0 0 100 100" enable-background="new 0 0 100 100" xml:space="preserve">
<path fill="#231F20" d="M41,80H27.8V20.4c8.5-0.2,13.8-0.4,16-0.4c8.7,0,15.6,2.6,20.7,7.7c5.1,5.1,7.7,11.8,7.7,20.3
	C72,69.3,61.7,80,41,80z M38.3,29.5v40.7c1.6,0.2,3.6,0.2,5.5,0.2c5.3,0,9.5-2,12.6-5.9s4.5-9.3,4.5-16.2c0-12.8-5.9-19.1-17.8-19.1
	C42,29.3,40.4,29.3,38.3,29.5z"/>
</svg>
