<?xml version="1.0" encoding="utf-8"?>
<!-- Generator: Adobe Illustrator 19.1.0, SVG Export Plug-In . SVG Version: 6.00 Build 0)  -->
<!DOCTYPE svg PUBLIC "-//W3C//DTD SVG 1.1//EN" "http://www.w3.org/Graphics/SVG/1.1/DTD/svg11.dtd">
<svg version="1.1" id="Layer_1" xmlns="http://www.w3.org/2000/svg" xmlns:xlink="http://www.w3.org/1999/xlink" x="0px" y="0px"
	 viewBox="0 0 100 100" enable-background="new 0 0 100 100" xml:space="preserve">
<g>
	<g>
		<path fill="#231F20" d="M41.3,48.6c-1.3,0-1.2,2,0,2h17.2c1.2,0,1.2-2-0.1-2H41.3z"/>
		<path fill="#231F20" d="M42.1,41.6c-1.3,0-1.2,2,0,2h15.5c1.2,0,1.2-2,0-2H42.1z"/>
		<path fill="#231F20" d="M40.2,44.5c-1.9,0-2,3.2,0,3.2h19.2c2,0,1.9-3.2,0-3.2H40.2z"/>
	</g>
	<polygon fill="#231F20" points="37.6,79.6 44.9,73.2 49.7,79.6 54.5,73.2 61.8,79.6 57.4,51.5 42,51.5 	"/>
	<g>
		<path fill="#231F20" d="M39.7,31.2c-0.5-0.2-1-0.2-1-0.2c-2.3,0-2.1,2.5-2.1,2.5c0.1-0.3,0.6-0.3,0.6-0.3c0.8,0,0.8,0.8,0.8,0.8
			c0,1-1.1,1-1.1,1c-1.7,0-1.5-2.4-1.5-2.4s0.2-3.7,3.9-3.4c0,0,4.7-0.3,5.1,7c0,0-0.1,3.3-0.6,4.8h12.3c0.1-6.4-2.7-12.2-2.7-12.2
			c-4.3-8.5-12.3-8-12.3-8C29.1,21,29.5,31.3,29.5,31.3c-0.2,8.7,7.1,8.4,7.1,8.4c5-0.1,4.9-5,4.9-5C41.6,31.6,39.7,31.2,39.7,31.2"
			/>
	</g>
</g>
</svg>
