<?xml version="1.0" encoding="utf-8"?>
<!-- Generator: Adobe Illustrator 19.1.0, SVG Export Plug-In . SVG Version: 6.00 Build 0)  -->
<!DOCTYPE svg PUBLIC "-//W3C//DTD SVG 1.1//EN" "http://www.w3.org/Graphics/SVG/1.1/DTD/svg11.dtd">
<svg version="1.1" id="baslerstab" xmlns="http://www.w3.org/2000/svg" xmlns:xlink="http://www.w3.org/1999/xlink" x="0px" y="0px"
	 viewBox="-29 29 36 44" enable-background="new -29 29 36 44" xml:space="preserve">
<g>
	<g>
		<path fill="#231F20" d="M-14.5,50.2c-0.7,0-0.7,1.1,0,1.1h9.8c0.7,0,0.7-1.1,0-1.1H-14.5z"/>
		<path fill="#231F20" d="M-14,46.2c-0.7,0-0.7,1.1,0,1.1h8.8c0.7,0,0.7-1.1,0-1.1H-14z"/>
		<path fill="#231F20" d="M-15.1,47.9c-1.1,0-1.1,1.8,0,1.8h10.9c1.1,0,1.1-1.8,0-1.8H-15.1z"/>
	</g>
	<polygon fill="#231F20" points="-16.6,67.7 -12.4,64.1 -9.7,67.8 -7,64.1 -2.9,67.8 -5.3,51.9 -14.1,51.9 	"/>
	<g>
		<path fill="#231F20" d="M-15.4,40.3c-0.3-0.1-0.5-0.1-0.5-0.1c-1.3,0-1.2,1.4-1.2,1.4c0-0.2,0.3-0.2,0.3-0.2
			c0.5,0,0.5,0.4,0.5,0.4c0,0.6-0.6,0.6-0.6,0.6c-1,0-0.9-1.4-0.9-1.4s0.1-2.1,2.2-2c0,0,2.7-0.2,2.9,3.9c0,0-0.1,1.9-0.4,2.7h7
			c0.1-3.6-1.5-6.9-1.5-6.9c-2.4-4.8-7-4.6-7-4.6c-6.7,0.3-6.5,6.1-6.5,6.1c-0.1,4.9,4,4.8,4,4.8c2.8-0.1,2.8-2.8,2.8-2.8
			C-14.3,40.6-15.4,40.3-15.4,40.3"/>
	</g>
</g>
</svg>
