<?xml version="1.0" encoding="utf-8"?>
<!-- Generator: Adobe Illustrator 19.1.0, SVG Export Plug-In . SVG Version: 6.00 Build 0)  -->
<!DOCTYPE svg PUBLIC "-//W3C//DTD SVG 1.1//EN" "http://www.w3.org/Graphics/SVG/1.1/DTD/svg11.dtd">
<svg version="1.1" id="denkmal" xmlns="http://www.w3.org/2000/svg" xmlns:xlink="http://www.w3.org/1999/xlink" x="0px" y="0px"
	 viewBox="90 29 270 44" enable-background="new 90 29 270 44" xml:space="preserve">
<g>
	<path fill="#231F20" d="M99.3,67.8h-6.5V38.4c4.2-0.1,6.8-0.2,7.9-0.2c4.3,0,7.7,1.3,10.2,3.8s3.8,5.8,3.8,10
		C114.6,62.5,109.5,67.8,99.3,67.8z M98,42.9V63c0.8,0.1,1.8,0.1,2.7,0.1c2.6,0,4.7-1,6.2-2.9c1.5-1.9,2.2-4.6,2.2-8
		c0-6.3-2.9-9.4-8.8-9.4C99.8,42.8,99,42.8,98,42.9z"/>
	<path fill="#231F20" d="M123.4,43v6.9h9.7v4.4h-9.7v8.8h13.3v4.6h-18.5V38.3H137v4.6L123.4,43L123.4,43z"/>
	<path fill="#231F20" d="M159.9,68.2l-14.2-18.6v18.3h-5V38.3h2.5l13.9,17.8V38.3h5v29.8L159.9,68.2L159.9,68.2z"/>
	<path fill="#231F20" d="M182.8,67.8l-8.2-12.5l-3.3,4.5v8.1h-5.2V38.3h5.2v14.1l10-14.1h5.9L178,51.2l11,16.6H182.8z"/>
	<path fill="#231F20" d="M219,67.8h-5.1l-3.1-15.9l-5.9,16.3H203l-5.9-16.3l-3.2,15.9h-5l5.9-29.5h2.8l6.4,19.8l6.2-19.8h2.8
		L219,67.8z"/>
	<path fill="#231F20" d="M239.4,67.8l-2.2-6h-10.1l-2.1,6h-5.8L231,37.9h2.3l11.8,29.8L239.4,67.8L239.4,67.8z M232.2,46.9
		l-3.5,10.9h7.1L232.2,46.9z"/>
	<path fill="#231F20" d="M248.3,67.8V38.3h5.2v24.8h13.3v4.6L248.3,67.8L248.3,67.8z"/>
	<path fill="#231F20" d="M280.7,52.8c0-4.2,1.1-7.7,3.4-10.6c2.3-2.9,5.4-4.4,9.2-4.4c4.2,0,7.5,1.3,9.7,3.9
		c2.2,2.6,3.4,6.3,3.4,11.1s-1.2,8.5-3.5,11.3c-2.3,2.8-5.7,4.2-10,4.2c-4,0-7-1.4-9.1-4.1C281.8,61.4,280.7,57.6,280.7,52.8z
		 M286.2,52.8c0,3.4,0.6,6.1,1.7,8c1.2,1.9,2.9,2.8,5.1,2.8c2.6,0,4.6-0.9,6-2.8c1.4-1.8,2.1-4.5,2.1-8.1c0-6.9-2.5-10.4-7.6-10.4
		c-2.3,0-4.1,0.9-5.4,2.8C286.8,47,286.2,49.6,286.2,52.8z"/>
	<path fill="#231F20" d="M326.7,67.8l-7.9-12.2c-0.8,0-1.9-0.1-3.3-0.1v12.3h-5.4V38.3c0.3,0,1.4-0.1,3.4-0.2c2-0.1,3.6-0.2,4.8-0.2
		c7.5,0,11.2,2.9,11.2,8.7c0,1.7-0.5,3.3-1.5,4.8c-1,1.4-2.3,2.4-3.9,3l8.7,13.3L326.7,67.8L326.7,67.8z M315.5,42.9v8.2
		c1,0.1,1.7,0.1,2.2,0.1c2.2,0,3.8-0.3,4.8-0.9c1-0.6,1.5-1.8,1.5-3.6c0-1.4-0.5-2.5-1.6-3s-2.8-0.9-5.1-0.9
		C316.7,42.8,316.1,42.8,315.5,42.9z"/>
	<path fill="#231F20" d="M356,40.7l-2.2,4.2c-0.6-0.5-1.6-1.1-2.9-1.6s-2.4-0.8-3.3-0.8c-2.9,0-5.2,1-6.9,2.9
		c-1.7,2-2.5,4.6-2.5,7.9c0,3.1,0.8,5.6,2.5,7.5c1.6,1.9,3.9,2.8,6.7,2.8c1.9,0,3.4-0.5,4.6-1.5v-5.8h-4.1v-4.5h9.3V65
		c-1.2,1-2.9,1.8-4.8,2.4c-2,0.6-3.9,0.9-5.9,0.9c-4.2,0-7.6-1.4-10-4.2c-2.5-2.8-3.7-6.4-3.7-11s1.3-8.2,4-11.1
		c2.7-2.8,6.3-4.3,10.9-4.3C351,37.8,353.7,38.8,356,40.7z"/>
</g>
<path fill="#231F20" d="M221.3,64.8c0-1,0.4-1.9,1.1-2.6c0.7-0.7,1.6-1.1,2.6-1.1s1.9,0.4,2.6,1.1c0.7,0.7,1.1,1.6,1.1,2.6
	s-0.4,1.9-1.1,2.6c-0.7,0.7-1.6,1.1-2.6,1.1s-1.9-0.4-2.6-1.1C221.6,66.8,221.3,66,221.3,64.8z"/>
</svg>
