<svg xmlns="http://www.w3.org/2000/svg" viewBox="0 0 80 100"><defs><style>.cls-1{fill:#1a1a1a;}</style></defs><title>logo-symbol</title><g id="logo"><path class="cls-1" d="M34,77.34c-1.17-8.4-7.72-30.06-21.08-32.08a67.49,67.49,0,0,0,1.74,19c6.76.6,16.88,16.13,16.88,16.13Z"/><path class="cls-1" d="M40,84.75H26.4A7.85,7.85,0,0,1,40,84.75Z"/><path class="cls-1" d="M46,77.34c1.17-8.4,7.72-30.06,21.08-32.08a67.49,67.49,0,0,1-1.74,19c-6.76.6-16.88,16.13-16.88,16.13Z"/><path class="cls-1" d="M40,84.75H53.6A7.85,7.85,0,0,0,40,84.75Z"/><path class="cls-1" d="M63.1,28.62c-1.74-3.72,2.19-7.64-.86-13.37C56,22,45.73,21.11,40,21.11S24,22,17.74,15.25c-3.05,5.73.9,9.65-.84,13.37A44.92,44.92,0,0,0,13,44.07c7.87,1.14,13.18,8.5,16.32,14.75A61.68,61.68,0,0,1,35,77.33l5,5.25,5-5.25a61.75,61.75,0,0,1,5.68-18.52C53.8,52.57,59.11,45.2,67,44.07A44.92,44.92,0,0,0,63.1,28.62ZM29.92,45.47A9.46,9.46,0,1,1,39.37,36c0,.21,0,.43,0,.64-2.68.31-4.38,2.61-4.38,6a5.54,5.54,0,0,0,.14,1.22A9.4,9.4,0,0,1,29.92,45.47ZM40,48.58c-1-.63-3.81-2.76-3.8-5.89,0-5,3.81-4.85,3.81-4.85s3.79-.19,3.79,4.85C43.78,45.82,41,47.95,40,48.58Zm10.11-3.11a9.4,9.4,0,0,1-5.19-1.56A5.54,5.54,0,0,0,45,42.69c0-3.43-1.7-5.73-4.38-6,0-.21,0-.42,0-.64a9.46,9.46,0,1,1,9.46,9.46Z"/><circle class="cls-1" cx="29.92" cy="36.01" r="3.84"/><circle class="cls-1" cx="50.08" cy="36.01" r="3.84"/></g></svg>