<svg xmlns="http://www.w3.org/2000/svg" viewBox="0 0 400 60">
    <title>logo-type</title>
    <g id="logo">
        <path class="logo-color"
              d="M19.41,53.25H10V10.68c6.08-.14,9.84-.29,11.44-.29,6.23,0,11.15,1.88,14.77,5.5s5.5,8.4,5.5,14.48C41.56,45.57,34.18,53.25,19.41,53.25Zm-1.88-36V46.3a34,34,0,0,0,3.91.14,10.93,10.93,0,0,0,9-4.2c2.17-2.75,3.19-6.66,3.19-11.58,0-9.12-4.2-13.61-12.74-13.61A31.85,31.85,0,0,0,17.53,17.2Z"/>
        <path class="logo-color" d="M54.3,17.34v10h14V33.7h-14V46.44H73.56V53.1H46.77V10.54H74V17.2H54.3Z"/>
        <path class="logo-color" d="M107.14,53.82,86.59,26.9V53.39H79.35V10.54H83l20.12,25.77V10.54h7.24V53.68h-3.19Z"/>
        <path class="logo-color" d="M141,53.25l-11.87-18.1-4.78,6.51V53.39h-7.53V10.54h7.53V31l14.48-20.41h8.54L134,29.21l15.93,24Z"/>
        <path class="logo-color" d="M193.4,53.25H186l-4.49-23L173,53.82h-2.75l-8.54-23.6-4.63,23h-7.24l8.54-42.71h4.05l9.27,28.67,9-28.67h4.05Z"/>
        <path class="logo-color" d="M222.94,53.25l-3.19-8.69H205.13l-3,8.69h-8.4L210.78,10h3.33L231.19,53.1h-8.25ZM212.51,23l-5.07,15.78h10.28Z"/>
        <path class="logo-color" d="M235.82,53.25V10.54h7.53v35.9h19.26V53.1H235.82Z"/>
        <path class="logo-color" d="M267.73,49a5.44,5.44,0,1,1,1.59,3.76A4.55,4.55,0,0,1,267.73,49Z"/>
        <path class="logo-color"
              d="M279.94,31.53c0-6.08,1.59-11.15,4.92-15.35a16.26,16.26,0,0,1,13.32-6.37c6.08,0,10.86,1.88,14,5.65s4.92,9.12,4.92,16.07-1.74,12.31-5.07,16.36S303.83,54,297.61,54c-5.79,0-10.13-2-13.17-5.94S279.94,38.48,279.94,31.53Zm8,0c0,4.92.87,8.83,2.46,11.58a8.19,8.19,0,0,0,7.38,4.05c3.76,0,6.66-1.3,8.69-4.05s3-6.51,3-11.73c0-10-3.62-15.06-11-15.06a8.9,8.9,0,0,0-7.82,4.05C288.77,23.13,287.91,26.9,287.91,31.53Z"/>
        <path class="logo-color"
              d="M346.54,53.25,335.1,35.58c-1.16,0-2.75-.14-4.78-.14V53.25h-7.82V10.54c.43,0,2-.14,4.92-.29s5.21-.29,6.95-.29c10.86,0,16.21,4.2,16.21,12.6a12.31,12.31,0,0,1-2.17,6.95,12,12,0,0,1-5.65,4.34l12.6,19.26h-8.83Zm-16.21-36V29.07a29.45,29.45,0,0,0,3.19.14q4.78,0,6.95-1.3t2.17-5.21c0-2-.72-3.62-2.32-4.34a18.2,18.2,0,0,0-7.38-1.3A15.74,15.74,0,0,0,330.33,17.2Z"/>
        <path class="logo-color"
              d="M388.26,14l-3.19,6.08a15.45,15.45,0,0,0-4.2-2.32,14.14,14.14,0,0,0-4.78-1.16,12.78,12.78,0,0,0-10,4.2c-2.46,2.9-3.62,6.66-3.62,11.44,0,4.49,1.16,8.11,3.62,10.86s5.65,4.05,9.7,4.05A10,10,0,0,0,382.47,45V36.6h-5.94V30.08H390V49.19a20.82,20.82,0,0,1-6.95,3.47,29.14,29.14,0,0,1-8.54,1.3c-6.08,0-11-2-14.48-6.08s-5.36-9.27-5.36-15.93,1.88-11.87,5.79-16.07,9.12-6.23,15.78-6.23A19,19,0,0,1,388.26,14Z"/>
    </g>
</svg>
