<svg version="1.1" id="logo" xmlns="http://www.w3.org/2000/svg" xmlns:xlink="http://www.w3.org/1999/xlink" x="0px" y="0px"
	 viewBox="0 0 80 100" style="enable-background:new 0 0 80 100;" xml:space="preserve">
<title>logo-icon</title>
	<g class="logo-color">
		<path d="M40.3,82H28.2c1.9-3.3,6.2-4.5,9.6-2.6C38.8,80.1,39.7,80.9,40.3,82z"/>
		<path d="M40.3,82h12.1c-1.9-3.3-6.2-4.5-9.6-2.6C41.8,80.1,40.9,80.9,40.3,82z"/>
		<path d="M64.1,45.7L64.1,45.7c0-0.2,0-0.5-0.1-0.7l0,0c-0.5-4.5-1.6-8.9-3.4-13c-1.5-3.3,2-6.8-0.8-11.9c-5.6,6-14.7,5.2-19.9,5.2
			S25.8,26,20.2,20c-2.7,5.1,0.8,8.6-0.8,11.9c-2,4.4-3.1,9-3.4,13.8c-0.3,6,0.2,12.1,1.5,18c6,0.5,15.1,14.4,15.1,14.4l3.1-2.7l0,0
			l4.4,4.7l4.4-4.6l3.2,2.7c0,0,9-13.9,15.1-14.4C63.9,57.8,64.3,51.7,64.1,45.7z M49,30.1c4.7,0,8.5,3.7,8.5,8.4s-3.7,8.5-8.4,8.5
			c-1.7,0-3.3-0.5-4.7-1.4c0.1-0.4,0.1-0.7,0.1-1.1c0-3.1-1.5-5.1-3.9-5.4c0-0.2,0-0.4,0-0.6C40.6,33.9,44.4,30.1,49,30.1z M31,30.1
			c4.7,0,8.4,3.8,8.4,8.4c0,0.2,0,0.4,0,0.6c-2.4,0.3-3.9,2.3-3.9,5.4c0,0.4,0,0.7,0.1,1.1c-3.9,2.6-9.1,1.5-11.7-2.4
			s-1.5-9.1,2.4-11.7C27.8,30.6,29.4,30.1,31,30.1z M40,49.7c-0.9-0.6-3.4-2.5-3.4-5.2c0-4.5,3.4-4.3,3.4-4.3s3.4-0.2,3.4,4.3
			C43.4,47.3,40.9,49.2,40,49.7z"/>
		<circle cx="31" cy="38.5" r="3.4"/>
		<circle cx="49" cy="38.5" r="3.4"/>
	</g>
</svg>
