<?xml version="1.1" encoding="utf-8"?>
<svg xmlns="http://www.w3.org/2000/svg" viewBox="0 0 100 100">
    <defs>
        <style>.cls-1{fill:#1a1a1a;}.cls-2{opacity:0.3;}</style>
    </defs>
    <title>Artboard 16 copy 2</title>
    <g id="Layer_1" data-name="Layer 1">
        <path class="cls-1" d="M44.27,76.07c-1.12-8-7.36-28.67-20.1-30.6a64.37,64.37,0,0,0,1.66,18.1C32.28,64.16,41.93,79,41.93,79Z"/>
        <path class="cls-1" d="M50,83.15H37A7.48,7.48,0,0,1,50,83.15Z"/>
        <path class="cls-1" d="M55.73,76.07c1.12-8,7.36-28.67,20.1-30.6a64.37,64.37,0,0,1-1.66,18.1C67.72,64.16,58.07,79,58.07,79Z"/>
        <path class="cls-1" d="M50,83.15H63A7.48,7.48,0,0,0,50,83.15Z"/>
        <path class="cls-1"
              d="M72,29.61c-1.66-3.55,2.09-7.29-.82-12.75-6,6.42-15.74,5.58-21.23,5.59s-15.24.84-21.21-5.59c-2.91,5.46.85,9.2-.8,12.75a42.84,42.84,0,0,0-3.7,14.73c7.51,1.08,12.57,8.11,15.57,14.07a58.83,58.83,0,0,1,5.41,17.66l4.74,5,4.76-5a58.9,58.9,0,0,1,5.42-17.66c3-6,8.07-13,15.57-14.07A42.84,42.84,0,0,0,72,29.61ZM40.38,45.68a9,9,0,1,1,9-9c0,.2,0,.41,0,.61-2.56.29-4.18,2.49-4.18,5.76a5.28,5.28,0,0,0,.13,1.16A9,9,0,0,1,40.38,45.68Zm9.6,3C49,48,46.35,46,46.35,43c0-4.81,3.64-4.63,3.64-4.63S53.6,38.22,53.6,43C53.61,46,50.91,48,50,48.65Zm9.64-3a9,9,0,0,1-5-1.49A5.28,5.28,0,0,0,54.8,43c0-3.27-1.62-5.47-4.18-5.76,0-.2,0-.4,0-.61a9,9,0,1,1,9,9Z"/>
        <circle class="cls-1" cx="40.38" cy="36.66" r="3.66"/>
        <circle class="cls-1" cx="59.62" cy="36.66" r="3.66"/>
        <path class="cls-2" d="M79.17,29.11a13.37,13.37,0,0,0,11.75-7A15.3,15.3,0,0,1,77.18,2.46a13.4,13.4,0,0,0,2,26.65Z"/>
        <polygon class="cls-2" points="14.85 70.48 17.57 62.53 20.28 70.48 28.24 73.2 20.28 75.92 17.57 83.88 14.85 75.92 6.89 73.2 14.85 70.48"/>
        <polygon class="cls-2" points="41.21 8.57 43.26 2.56 45.31 8.57 51.31 10.62 45.31 12.66 43.26 18.67 41.21 12.66 35.21 10.62 41.21 8.57"/>
    </g>
</svg>
