<svg version="1.1" id="Layer_1" xmlns="http://www.w3.org/2000/svg" xmlns:xlink="http://www.w3.org/1999/xlink" x="0px" y="0px"
	 viewBox="0 0 400 60" style="enable-background:new 0 0 400 60;" xml:space="preserve">
<title>logo-font</title>
<g id="logo" class="logo-color">
	<path d="M19.4,55.2H10V12.7c6.1-0.1,9.8-0.3,11.4-0.3c6.2,0,11.1,1.9,14.8,5.5s5.5,8.4,5.5,14.5C41.6,47.6,34.2,55.2,19.4,55.2z
		 M17.5,19.2v29c1.3,0.1,2.6,0.2,3.9,0.1c3.5,0.1,6.8-1.4,9-4.2c2.2-2.8,3.2-6.7,3.2-11.6c0-9.1-4.2-13.6-12.7-13.6
		C19.8,19,18.6,19.1,17.5,19.2L17.5,19.2z"/>
	<path d="M54.3,19.3v10h14v6.4h-14v12.7h19.3v6.7H46.8V12.5H74v6.7H54.3V19.3z"/>
	<path d="M107.1,55.8L86.6,28.9v26.5h-7.2V12.5H83l20.1,25.8V12.5h7.2v43.1h-3.2L107.1,55.8z"/>
	<path d="M141,55.2l-11.9-18.1l-4.8,6.5v11.7h-7.5V12.5h7.5V33l14.5-20.4h8.5L134,31.2l15.9,24L141,55.2z"/>
	<path d="M193.4,55.2H186l-4.5-23L173,55.8h-2.8l-8.5-23.6l-4.6,23h-7.2l8.5-42.7h4.1l9.3,28.7l9-28.7h4.1L193.4,55.2z"/>
	<path d="M222.9,55.2l-3.2-8.7h-14.6l-3,8.7h-8.4l17-43.2h3.3l17.1,43.1h-8.2V55.2z M212.5,25l-5.1,15.8h10.3L212.5,25z"/>
	<path d="M235.8,55.2V12.5h7.5v35.9h19.3v6.7h-26.8V55.2z"/>
	<path d="M267.7,51c0-3,2.4-5.5,5.4-5.5c3,0,5.5,2.4,5.5,5.4c0,3-2.4,5.5-5.4,5.5c-1.5,0-2.9-0.6-3.9-1.6
		C268.2,53.8,267.6,52.4,267.7,51z"/>
	<path d="M279.9,33.5c0-6.1,1.6-11.1,4.9-15.3c3.2-4.1,8.1-6.5,13.3-6.4c6.1,0,10.9,1.9,14,5.7s4.9,9.1,4.9,16.1s-1.7,12.3-5.1,16.4
		s-8.2,6.1-14.4,6.1c-5.8,0-10.1-2-13.2-5.9S279.9,40.5,279.9,33.5z M287.9,33.5c0,4.9,0.9,8.8,2.5,11.6c1.5,2.6,4.4,4.2,7.4,4
		c3.8,0,6.7-1.3,8.7-4s3-6.5,3-11.7c0-10-3.6-15.1-11-15.1c-3.1-0.1-6.1,1.4-7.8,4C288.8,25.1,287.9,28.9,287.9,33.5L287.9,33.5z"/>
	<path d="M346.5,55.2l-11.4-17.7c-1.2,0-2.8-0.1-4.8-0.1v17.8h-7.8V12.5c0.4,0,2-0.1,4.9-0.3s5.2-0.3,7-0.3
		c10.9,0,16.2,4.2,16.2,12.6c0,2.5-0.8,4.9-2.2,7c-1.4,2-3.4,3.5-5.6,4.3l12.6,19.3h-8.8L346.5,55.2z M330.3,19.2v11.8
		c1.1,0.1,2.1,0.2,3.2,0.1c3.2,0,5.5-0.4,7-1.3c1.4-0.9,2.2-2.6,2.2-5.2c0-2-0.7-3.6-2.3-4.3c-2.3-0.9-4.9-1.4-7.4-1.3
		C332.1,19,331.2,19.1,330.3,19.2L330.3,19.2z"/>
	<path d="M388.3,16l-3.2,6.1c-1.3-1-2.7-1.8-4.2-2.3c-1.5-0.7-3.1-1.1-4.8-1.2c-3.8-0.2-7.5,1.4-10,4.2c-2.5,2.9-3.6,6.7-3.6,11.4
		c0,4.5,1.2,8.1,3.6,10.9s5.6,4,9.7,4c2.4,0.1,4.8-0.6,6.7-2.1v-8.4h-5.9v-6.5H390v19.1c-2.1,1.6-4.4,2.8-7,3.5
		c-2.8,0.9-5.6,1.3-8.5,1.3c-6.1,0-11-2-14.5-6.1s-5.4-9.3-5.4-15.9s1.9-11.9,5.8-16.1s9.1-6.2,15.8-6.2
		C380.6,11.7,384.9,13.2,388.3,16z"/>
</g>
</svg>
