<?xml version="1.0" encoding="utf-8"?>
<!-- Generator: Adobe Illustrator 19.1.0, SVG Export Plug-In . SVG Version: 6.00 Build 0)  -->
<!DOCTYPE svg PUBLIC "-//W3C//DTD SVG 1.1//EN" "http://www.w3.org/Graphics/SVG/1.1/DTD/svg11.dtd">
<svg version="1.1" id="baslerstab" xmlns="http://www.w3.org/2000/svg" xmlns:xlink="http://www.w3.org/1999/xlink" x="0px" y="0px"
	 viewBox="-31 29 36 44" enable-background="new -31 29 36 44" xml:space="preserve">
<g>
	<g>
		<path fill="#231F20" d="M-17.6,50.2c-0.7,0-0.7,1.2-0.1,1.2h10.6c0.7,0,0.7-1.2-0.1-1.2H-17.6z"/>
		<path fill="#231F20" d="M-17.1,46.2c-0.7,0-0.7,1.2-0.1,1.2h9.5c0.7,0,0.7-1.2-0.1-1.2H-17.1z"/>
		<path fill="#231F20" d="M-18.2,47.8c-1.2,0-1.2,1.8,0,1.8h11.8c1.2,0,1.2-1.8,0-1.8H-18.2z"/>
	</g>
	<polygon fill="#231F20" points="-19.9,68 -15.4,64.3 -12.4,68 -9.5,64.3 -5,68 -7.6,51.9 -17.1,51.9 	"/>
	<g>
		<path fill="#231F20" d="M-18.6,40.1c-0.3-0.1-0.6-0.1-0.6-0.1c-1.4,0-1.3,1.4-1.3,1.4c0.1-0.2,0.3-0.2,0.3-0.2
			c0.5,0,0.5,0.5,0.5,0.5c0,0.6-0.6,0.6-0.6,0.6c-1,0-1-1.4-1-1.4s0.1-2.1,2.4-2c0,0,2.9-0.2,3.1,4c0,0-0.1,1.9-0.4,2.7h7.5
			c0.1-3.7-1.7-7-1.7-7c-2.7-4.9-7.5-4.6-7.5-4.6c-7.3,0.3-7,6.2-7,6.2c-0.1,5,4.3,4.8,4.3,4.8c3.1-0.1,3.1-2.9,3.1-2.9
			C-17.4,40.4-18.6,40.1-18.6,40.1"/>
	</g>
</g>
</svg>
