<?xml version="1.0" encoding="utf-8"?>
<!-- Generator: Adobe Illustrator 19.1.0, SVG Export Plug-In . SVG Version: 6.00 Build 0)  -->
<!DOCTYPE svg PUBLIC "-//W3C//DTD SVG 1.1//EN" "http://www.w3.org/Graphics/SVG/1.1/DTD/svg11.dtd">
<svg version="1.1" id="baslerstab" xmlns="http://www.w3.org/2000/svg" xmlns:xlink="http://www.w3.org/1999/xlink" x="0px" y="0px"
	 viewBox="-31 29 36 44" enable-background="new -31 29 36 44" xml:space="preserve">
<path fill="#231F20" d="M-17.5,66h-6.6V36.2c4.3-0.1,6.9-0.2,8-0.2c4.4,0,7.8,1.3,10.3,3.9c2.5,2.5,3.9,5.9,3.9,10.1
	C-2,60.6-7.2,66-17.5,66z M-18.8,40.8v20.4c0.8,0.1,1.8,0.1,2.7,0.1c2.6,0,4.8-1,6.3-2.9s2.2-4.7,2.2-8.1c0-6.4-2.9-9.5-8.9-9.5
	C-17,40.7-17.8,40.7-18.8,40.8z"/>
</svg>
