<?xml version="1.1" encoding="utf-8"?>
<svg xmlns="http://www.w3.org/2000/svg" viewBox="0 0 440 100">
    <title>logo-denkmal</title>
    <g id="Layer_1" data-name="Layer 1">
        <path class="logo-color"
              d="M7.31,81.26a4.21,4.21,0,0,1-1-3.08V21.92a4.38,4.38,0,0,1,1-3.13,4.38,4.38,0,0,1,3.27-1H30.5q16.22,0,24.67,7.78T63.61,50q0,16.51-8.54,24.38T30.5,82.26H10.58A4.5,4.5,0,0,1,7.31,81.26Zm24-10.48q8.44,0,12.62-4.7T48.05,50q0-11.39-4.17-16T31.26,29.32H22V70.78Z"/>
        <path class="logo-color"
              d="M70.83,81.26a4.21,4.21,0,0,1-1-3.08V21.92a4.38,4.38,0,0,1,1-3.13,4.38,4.38,0,0,1,3.27-1h39.37a4.25,4.25,0,0,1,3.13.9,4.44,4.44,0,0,1,.85,3.08v3.51a4.63,4.63,0,0,1-.85,3.13,4.12,4.12,0,0,1-3.13.95h-28v15H105a4.25,4.25,0,0,1,3.13.9,4.44,4.44,0,0,1,.85,3.08v3.32a4.63,4.63,0,0,1-.85,3.13,4.11,4.11,0,0,1-3.13.95H85.49V70.78h27.89a4.12,4.12,0,0,1,3.13.95,4.64,4.64,0,0,1,.85,3.13v3.41a4.44,4.44,0,0,1-.85,3.08,4.25,4.25,0,0,1-3.13.9H74.1A4.51,4.51,0,0,1,70.83,81.26Z"/>
        <path class="logo-color"
              d="M123.73,81.26a4.21,4.21,0,0,1-1-3.08V21.82a4.2,4.2,0,0,1,1-3.08,4.65,4.65,0,0,1,3.37-1H133a5.35,5.35,0,0,1,2.42.43,6,6,0,0,1,1.75,1.66l26.56,37.47V21.92a4.38,4.38,0,0,1,1-3.13,4.38,4.38,0,0,1,3.27-1h7.12a4.48,4.48,0,0,1,3.32,1,4.49,4.49,0,0,1,.95,3.18V78.18a4.34,4.34,0,0,1-.95,3.08,4.48,4.48,0,0,1-3.32,1h-6a5.06,5.06,0,0,1-2.33-.43A5.91,5.91,0,0,1,165,80.17L138.38,42.79V78.18a4.34,4.34,0,0,1-.95,3.08,4.49,4.49,0,0,1-3.32,1H127A4.5,4.5,0,0,1,123.73,81.26Z"/>
        <path class="logo-color"
              d="M240.9,80.64q0,1.61-1.71,1.61H227.33a5.09,5.09,0,0,1-1.75-.24,3,3,0,0,1-1.19-.9l-21-27.51-.28-.38v25a4.34,4.34,0,0,1-.95,3.08,4.48,4.48,0,0,1-3.32,1h-7.12a4.51,4.51,0,0,1-3.27-1,4.21,4.21,0,0,1-1-3.08V21.92a4.38,4.38,0,0,1,1-3.13,4.38,4.38,0,0,1,3.27-1h7.12a4.47,4.47,0,0,1,3.32,1,4.49,4.49,0,0,1,.95,3.18V46.39l.28-.38,20.3-27a2.81,2.81,0,0,1,1.18-1,5.84,5.84,0,0,1,1.95-.24h11.67q1.71,0,1.71,1.61a2.53,2.53,0,0,1-.57,1.52L217.18,49.81l23.15,29.31A2.27,2.27,0,0,1,240.9,80.64Z"/>
        <path class="logo-color"
              d="M248.31,81.26a4.21,4.21,0,0,1-1-3.08V21.82a4.2,4.2,0,0,1,1-3.08,4.65,4.65,0,0,1,3.37-1h7a6.66,6.66,0,0,1,2.66.43,3.17,3.17,0,0,1,1.52,1.66l16.41,38.71,16.51-38.71a3.16,3.16,0,0,1,1.52-1.66,6.65,6.65,0,0,1,2.66-.43h7a4.65,4.65,0,0,1,3.37,1,4.2,4.2,0,0,1,1,3.08V78.18a4.21,4.21,0,0,1-1,3.08,4.5,4.5,0,0,1-3.27,1h-5.79a4.67,4.67,0,0,1-3.37-1,4.21,4.21,0,0,1-1-3.08V42.32L284.22,70.68a9,9,0,0,1-1.85,2.8,4.62,4.62,0,0,1-3.08.8,4.86,4.86,0,0,1-3.08-.8,7.25,7.25,0,0,1-1.85-2.8L261.73,42.32V78.18a4.21,4.21,0,0,1-1,3.08,4.67,4.67,0,0,1-3.37,1h-5.79A4.5,4.5,0,0,1,248.31,81.26Z"/>
        <path class="logo-color"
              d="M316.85,80.64a4.92,4.92,0,0,1,.28-1.52l24.57-58.53a5.33,5.33,0,0,1,1.47-2.23,3.77,3.77,0,0,1,2.32-.62h6.93a3.57,3.57,0,0,1,2.28.62,5.66,5.66,0,0,1,1.42,2.23L380.7,79.12a4.88,4.88,0,0,1,.29,1.52q0,1.61-1.71,1.61H367.79a2.68,2.68,0,0,1-3-2l-4.36-11.19H337.34l-4.27,11.19a2.68,2.68,0,0,1-3,2H318.56Q316.85,82.26,316.85,80.64Zm39.94-22.48-7.87-20.49-8,20.49Z"/>
        <path class="logo-color"
              d="M388.29,81.26a4.21,4.21,0,0,1-1-3.08V21.92a4.38,4.38,0,0,1,1-3.13,4.38,4.38,0,0,1,3.27-1h7.12a4.47,4.47,0,0,1,3.32,1,4.49,4.49,0,0,1,.95,3.18V70.78h26.75a4.12,4.12,0,0,1,3.13.95,4.63,4.63,0,0,1,.85,3.13v3.41a4.43,4.43,0,0,1-.85,3.08,4.25,4.25,0,0,1-3.13.9H391.57A4.51,4.51,0,0,1,388.29,81.26Z"/>
    </g>
</svg>
