<?xml version="1.0" encoding="utf-8"?>
<!-- Generator: Adobe Illustrator 19.1.0, SVG Export Plug-In . SVG Version: 6.00 Build 0)  -->
<!DOCTYPE svg PUBLIC "-//W3C//DTD SVG 1.1//EN" "http://www.w3.org/Graphics/SVG/1.1/DTD/svg11.dtd">
<svg version="1.1" id="baslerstab" xmlns="http://www.w3.org/2000/svg" xmlns:xlink="http://www.w3.org/1999/xlink" x="0px" y="0px"
	 viewBox="-29 29 36 44" enable-background="new -29 29 36 44" xml:space="preserve">
<g>
	<g>
		<path fill="#231F20" d="M-14.7,50.2c-0.8,0-0.7,1.1,0,1.1h10.6c0.7,0,0.7-1.1,0-1.1H-14.7z"/>
		<path fill="#231F20" d="M-14.2,46.2c-0.8,0-0.7,1.1,0,1.1h9.5c0.7,0,0.7-1.1,0-1.1H-14.2z"/>
		<path fill="#231F20" d="M-15.3,47.8c-1.2,0-1.2,1.8,0,1.8h11.8c1.2,0,1.2-1.8,0-1.8H-15.3z"/>
	</g>
	<polygon fill="#231F20" points="-17,68 -12.5,64.3 -9.5,68 -6.6,64.3 -2.1,68 -4.8,51.9 -14.3,51.9 	"/>
	<g>
		<path fill="#231F20" d="M-15.7,40.1C-16,40-16.3,40-16.3,40c-1.4,0-1.3,1.4-1.3,1.4c0-0.2,0.3-0.2,0.3-0.2c0.5,0,0.5,0.4,0.5,0.4
			c0,0.6-0.7,0.6-0.7,0.6c-1,0-1-1.4-1-1.4s0.1-2.1,2.4-2c0,0,2.9-0.2,3.1,4c0,0-0.1,1.9-0.4,2.7h7.5c0.1-3.7-1.7-7-1.7-7
			c-2.6-4.9-7.5-4.6-7.5-4.6c-7.3,0.3-7,6.2-7,6.2c-0.1,5,4.3,4.8,4.3,4.8c3.1-0.1,3-2.9,3-2.9C-14.5,40.4-15.7,40.1-15.7,40.1"/>
	</g>
</g>
</svg>
