<?xml version="1.0" encoding="utf-8"?>
<svg version="1.1" id="denkmal" xmlns="http://www.w3.org/2000/svg" xmlns:xlink="http://www.w3.org/1999/xlink" x="0px"
	 y="0px" width="280" height="40" viewBox="0 0 280 40" enable-background="new 0 0 280 40" xml:space="preserve">
<g>
	<path fill="#404041" d="M9.3,34.5H2.8V5.1c4.2-0.1,6.8-0.2,7.9-0.2c4.3,0,7.7,1.3,10.2,3.8s3.8,5.8,3.8,10
		C24.6,29.2,19.5,34.5,9.3,34.5z M8,9.6v20.1c0.8,0.1,1.8,0.1,2.7,0.1c2.6,0,4.7-1,6.2-2.9c1.5-1.9,2.2-4.6,2.2-8
		c0-6.3-2.9-9.4-8.8-9.4C9.8,9.5,9,9.5,8,9.6z"/>
	<path fill="#404041" d="M34.4,9.7v6.9h9.7V21h-9.7v8.8h13.3v4.6H29.2V5H48v4.6H34.4z"/>
	<path fill="#404041" d="M71.9,34.9L57.7,16.3v18.3h-5V5h2.5l13.9,17.8V5h5v29.8H71.9z"/>
	<path fill="#404041" d="M96.8,34.5l-8.2-12.5l-3.3,4.5v8.1h-5.2V5h5.2v14.1L95.3,5h5.9l-9.2,12.9l11,16.6H96.8z"/>
	<path fill="#404041" d="M133,34.5h-5.1l-3.1-15.9l-5.9,16.3h-1.9l-5.9-16.3l-3.2,15.9h-5L108.8,5h2.8l6.4,19.8L124.2,5h2.8
		L133,34.5z"/>
	<path fill="#404041" d="M153.4,34.5l-2.2-6h-10.1l-2.1,6h-5.8L145,4.6h2.3l11.8,29.8H153.4z M146.2,13.6l-3.5,10.9h7.1L146.2,13.6z
		"/>
	<path fill="#404041" d="M162.3,34.5V5h5.2v24.8h13.3v4.6H162.3z"/>
	<path fill="#404041" d="M185.5,31.8c0-1,0.4-1.9,1.1-2.6c0.7-0.7,1.6-1.1,2.6-1.1c1,0,1.9,0.4,2.6,1.1c0.7,0.7,1.1,1.6,1.1,2.6
		c0,1-0.4,1.9-1.1,2.6c-0.7,0.7-1.6,1.1-2.6,1.1c-1,0-1.9-0.4-2.6-1.1C185.8,33.7,185.5,32.9,185.5,31.8z"/>
	<path fill="#404041" d="M198.7,19.5c0-4.2,1.1-7.7,3.4-10.6c2.3-2.9,5.4-4.4,9.2-4.4c4.2,0,7.5,1.3,9.7,3.9
		c2.2,2.6,3.4,6.3,3.4,11.1s-1.2,8.5-3.5,11.3c-2.3,2.8-5.7,4.2-10,4.2c-4,0-7-1.4-9.1-4.1C199.8,28.1,198.7,24.3,198.7,19.5z
		 M204.2,19.5c0,3.4,0.6,6.1,1.7,8c1.2,1.9,2.9,2.8,5.1,2.8c2.6,0,4.6-0.9,6-2.8c1.4-1.8,2.1-4.5,2.1-8.1c0-6.9-2.5-10.4-7.6-10.4
		c-2.3,0-4.1,0.9-5.4,2.8S204.2,16.3,204.2,19.5z"/>
	<path fill="#404041" d="M245.7,34.5l-7.9-12.2c-0.8,0-1.9-0.1-3.3-0.1v12.3h-5.4V5c0.3,0,1.4-0.1,3.4-0.2c2-0.1,3.6-0.2,4.8-0.2
		c7.5,0,11.2,2.9,11.2,8.7c0,1.7-0.5,3.3-1.5,4.8c-1,1.4-2.3,2.4-3.9,3l8.7,13.3H245.7z M234.5,9.6v8.2c1,0.1,1.7,0.1,2.2,0.1
		c2.2,0,3.8-0.3,4.8-0.9c1-0.6,1.5-1.8,1.5-3.6c0-1.4-0.5-2.5-1.6-3s-2.8-0.9-5.1-0.9C235.7,9.5,235.1,9.5,234.5,9.6z"/>
	<path fill="#404041" d="M276,7.4l-2.2,4.2c-0.6-0.5-1.6-1.1-2.9-1.6c-1.3-0.5-2.4-0.8-3.3-0.8c-2.9,0-5.2,1-6.9,2.9
		c-1.7,2-2.5,4.6-2.5,7.9c0,3.1,0.8,5.6,2.5,7.5c1.6,1.9,3.9,2.8,6.7,2.8c1.9,0,3.4-0.5,4.6-1.5V23h-4.1v-4.5h9.3v13.2
		c-1.2,1-2.9,1.8-4.8,2.4c-2,0.6-3.9,0.9-5.9,0.9c-4.2,0-7.6-1.4-10-4.2c-2.5-2.8-3.7-6.4-3.7-11s1.3-8.2,4-11.1
		c2.7-2.8,6.3-4.3,10.9-4.3C271,4.5,273.7,5.5,276,7.4z"/>
</g>
</svg>
