<?xml version="1.0" encoding="utf-8"?>
<svg version="1.1" id="baslerstab" xmlns="http://www.w3.org/2000/svg" xmlns:xlink="http://www.w3.org/1999/xlink" x="0px"
	 y="0px" viewBox="0 0 40 40" enable-background="new 0 0 40 40" xml:space="preserve">
<g>
	<g>
		<path fill-rule="evenodd" clip-rule="evenodd" fill="#404041" d="M31,39c-1-0.9-2.1-1.8-3.1-2.7c-0.5-0.4-0.9-0.8-1.4-1.2
			c-1.2,1.3-2.4,2.6-3.7,3.9c-1.2-1.3-2.5-2.6-3.7-3.9c-1.5,1.3-2.9,2.6-4.3,3.8c0,0,0,0,0,0c0.1-0.3,0.1-0.6,0.2-1
			c0.2-1.2,0.4-2.5,0.6-3.7c0.2-1.2,0.4-2.5,0.6-3.7c0.2-1.2,0.4-2.5,0.6-3.7c0.2-1.3,0.4-2.6,0.6-3.9c0.1-0.6,0.2-1.3,0.3-1.9
			c0-0.1,0-0.2,0.2-0.2c3.3,0,6.6,0,9.9,0c0,0,0,0,0,0c0.1,0.4,0.1,0.7,0.2,1.1c0.3,1.4,0.5,2.7,0.7,4.1c0.3,1.4,0.5,2.9,0.8,4.3
			c0.3,1.5,0.6,3,0.8,4.6c0.2,1.2,0.4,2.4,0.7,3.6c0,0,0,0.1,0,0.1C31,38.9,31,38.9,31,39z"/>
		<path fill-rule="evenodd" clip-rule="evenodd" fill="#404041" d="M17.6,1c0.3,0.1,0.7,0.1,1,0.2c1.3,0.2,2.5,0.8,3.5,1.6
			c1,0.8,1.8,1.7,2.4,2.8c0.4,0.8,0.9,1.6,1.2,2.5c0.5,1.4,0.9,2.8,1.1,4.3c0.1,0.6,0.2,1.2,0.2,1.7c0,0.1,0,0.2,0,0.4
			c-2.8,0-5.5,0-8.3,0c0.1-0.7,0.1-1.5,0.2-2.2c0.1-1.1,0-2.3-0.4-3.3c-0.4-1-1.1-1.8-2.2-2c-1.1-0.2-2.3,0.1-2.9,1.1
			c-0.4,0.6-0.5,1.5,0,2.1c0.3,0.4,0.8,0.4,1.1,0.1c0.2-0.2,0.2-0.4,0.1-0.7c-0.1-0.2-0.3-0.3-0.5-0.4c-0.1,0-0.3,0-0.4,0
			c0-0.6,0.4-1.2,1-1.3c1.2-0.3,2.3,0.5,2.5,1.8c0.3,1.3-0.4,2.7-1.5,3.4c-0.7,0.4-1.4,0.5-2.2,0.5c-0.7-0.1-1.4-0.2-2-0.5
			c-1.4-0.8-2.2-2-2.6-3.6C9.1,9.3,9,9.1,9,8.9c0-0.6,0-1.1,0-1.6c0-0.2,0.1-0.3,0.1-0.5c0.4-1.9,1.5-3.4,3.1-4.5
			c1-0.7,2.1-1,3.3-1.2c0.3,0,0.7-0.1,1-0.1C16.9,1,17.2,1,17.6,1z"/>
		<path fill-rule="evenodd" clip-rule="evenodd" fill="#404041" d="M22.8,18.9c-2.1,0-4.1,0-6.2,0c-0.6,0-1-0.4-1.1-0.9
			c-0.1-0.5,0.2-1.1,0.7-1.3c0.1,0,0.3-0.1,0.4-0.1c4.1,0,8.2,0,12.3,0c0.7,0,1.1,0.4,1.2,1.1c0.1,0.5-0.3,1-0.9,1.2
			c-0.1,0-0.2,0-0.3,0C26.9,18.9,24.8,18.9,22.8,18.9C22.8,18.9,22.8,18.9,22.8,18.9z"/>
		<path fill-rule="evenodd" clip-rule="evenodd" fill="#404041" d="M22.7,20.7c-1.7,0-3.4,0-5.1,0c-0.5,0-0.8-0.3-0.7-0.8
			c0-0.3,0.3-0.6,0.6-0.6c0.1,0,0.1,0,0.2,0c3.4,0,6.8,0,10.1,0c0.4,0,0.7,0.2,0.7,0.6c0.1,0.3-0.1,0.7-0.4,0.8
			c-0.1,0-0.2,0.1-0.4,0.1C26.1,20.7,24.4,20.7,22.7,20.7z"/>
		<path fill-rule="evenodd" clip-rule="evenodd" fill="#404041" d="M22.8,14.8c1.6,0,3.2,0,4.8,0c0.4,0,0.7,0.3,0.7,0.7
			c0,0.4-0.3,0.7-0.7,0.7c-3.1,0-6.2,0-9.3,0c-0.2,0-0.5,0-0.7-0.1c-0.3-0.2-0.4-0.5-0.3-0.8c0.1-0.3,0.4-0.5,0.7-0.5
			C19.6,14.8,21.2,14.8,22.8,14.8z"/>
	</g>
</g>
</svg>
