<svg id="logo" xmlns="http://www.w3.org/2000/svg" viewBox="0 0 80 100">
    <title>logo-icon</title>
    <path class="logo-color" d="M40.29,81H28.17A7,7,0,0,1,40.29,81Z"/>
    <path class="logo-color" d="M40.31,81H52.43A7,7,0,0,0,40.31,81Z"/>
    <path class="logo-color"
          d="M64.08,44.71h0c0-.25,0-.46-.07-.7h0a45.2,45.2,0,0,0-3.39-13.05c-1.55-3.32,2-6.83-.77-11.94C54.29,25,45.15,24.22,40,24.22S25.75,25,20.17,19c-2.72,5.11.8,8.61-.75,11.93A40.07,40.07,0,0,0,16,44.7a67.66,67.66,0,0,0,1.47,18c6,.54,15.06,14.39,15.06,14.39l3.09-2.73v0L40,79.08l4.41-4.64,3.16,2.66s9-13.86,15.06-14.39A73,73,0,0,0,64.08,44.71ZM49,29.08A8.44,8.44,0,1,1,44.4,44.56a4.94,4.94,0,0,0,.13-1.09c0-3.06-1.52-5.12-3.91-5.39,0-.19,0-.38,0-.57A8.45,8.45,0,0,1,49,29.08Zm-18,0a8.45,8.45,0,0,1,8.44,8.44c0,.19,0,.38,0,.57-2.39.27-3.91,2.33-3.91,5.39a4.94,4.94,0,0,0,.13,1.09A8.44,8.44,0,1,1,31,29.08Zm9,19.65c-.87-.56-3.4-2.46-3.39-5.25,0-4.5,3.4-4.33,3.4-4.33S43.4,39,43.4,43.48C43.41,46.27,40.89,48.17,40,48.73Z"/>
    <circle class="logo-color" cx="31.03" cy="37.52" r="3.43"/>
    <circle class="logo-color" cx="49.03" cy="37.52" r="3.43"/>
</svg>
