<?xml version="1.0" encoding="utf-8"?>
<!-- Generator: Adobe Illustrator 16.0.0, SVG Export Plug-In . SVG Version: 6.00 Build 0)  -->
<!DOCTYPE svg PUBLIC "-//W3C//DTD SVG 1.1//EN" "http://www.w3.org/Graphics/SVG/1.1/DTD/svg11.dtd">
<svg version="1.1" id="Layer_1" xmlns="http://www.w3.org/2000/svg" xmlns:xlink="http://www.w3.org/1999/xlink" x="0px" y="0px"
	 width="300px" height="300px" viewBox="0 0 300 300" style="enable-background:new 0 0 300 300;" xml:space="preserve">
<g>
	<g>
		<g>
			<path style="fill:#FFFFFF;" d="M150,289.537c-3.644,0-6.918-2.077-10.085-4.086c-2.551-1.617-4.961-3.147-7.297-3.452
				c-2.477-0.316-5.208,0.554-8.145,1.478c-2.615,0.82-5.321,1.671-7.936,1.671c-0.939,0-1.835-0.113-2.66-0.334
				c-3.495-0.933-6.111-3.779-8.642-6.533c-2.054-2.235-3.995-4.346-6.192-5.257c-1.285-0.533-2.881-0.771-5.176-0.771
				c-0.995,0-2.01,0.042-3.024,0.084c-1.057,0.043-2.113,0.087-3.147,0.087c-2.224,0-5.084-0.179-7.477-1.562
				c-3.112-1.799-4.894-5.217-6.617-8.521c-1.41-2.704-2.742-5.257-4.645-6.72c-1.914-1.472-4.733-2.103-7.717-2.771
				c-3.627-0.812-7.378-1.652-9.908-4.183c-2.53-2.53-3.37-6.281-4.183-9.909c-0.669-2.984-1.3-5.804-2.771-7.717
				c-1.461-1.902-4.015-3.234-6.718-4.644c-3.304-1.724-6.721-3.506-8.521-6.616c-1.785-3.084-1.627-6.919-1.477-10.626
				c0.125-3.063,0.245-5.957-0.687-8.2c-0.911-2.198-3.022-4.137-5.257-6.191c-2.752-2.529-5.599-5.146-6.534-8.642
				c-0.913-3.419,0.232-7.067,1.339-10.595c0.923-2.938,1.794-5.715,1.477-8.146c-0.304-2.336-1.833-4.746-3.452-7.298
				c-2.009-3.166-4.085-6.44-4.085-10.084s2.077-6.918,4.085-10.084c1.619-2.552,3.148-4.962,3.452-7.298
				c0.317-2.431-0.554-5.207-1.477-8.146c-1.107-3.527-2.252-7.175-1.339-10.595c0.935-3.497,3.782-6.113,6.536-8.646
				c2.234-2.052,4.345-3.992,5.256-6.188c0.93-2.243,0.812-5.137,0.687-8.2c-0.152-3.709-0.309-7.542,1.476-10.628
				c1.8-3.11,5.217-4.893,8.521-6.616c2.703-1.409,5.257-2.741,6.718-4.643c1.471-1.913,2.102-4.732,2.771-7.717
				c0.812-3.627,1.653-7.379,4.184-9.908c2.53-2.53,6.28-3.371,9.908-4.184c2.984-0.668,5.803-1.3,7.717-2.771
				c1.902-1.462,3.235-4.016,4.645-6.718c1.724-3.304,3.505-6.721,6.616-8.521c2.393-1.385,5.253-1.562,7.477-1.562
				c1.035,0,2.092,0.043,3.149,0.087c1.016,0.042,2.031,0.083,3.026,0.083c2.293,0,3.889-0.236,5.173-0.77
				c2.197-0.91,4.137-3.022,6.191-5.257c2.53-2.754,5.146-5.601,8.642-6.533c0.824-0.221,1.72-0.334,2.659-0.334
				c2.615,0,5.321,0.851,7.936,1.671c2.937,0.922,5.663,1.804,8.145,1.478c2.336-0.305,4.746-1.835,7.297-3.452
				c3.167-2.008,6.441-4.086,10.085-4.086s6.918,2.078,10.085,4.086c2.552,1.617,4.961,3.147,7.297,3.452
				c2.47,0.315,5.208-0.556,8.145-1.478c2.616-0.82,5.321-1.671,7.936-1.671c0.94,0,1.835,0.113,2.661,0.334
				c3.496,0.933,6.112,3.781,8.643,6.533c2.053,2.235,3.993,4.347,6.191,5.257c1.283,0.533,2.878,0.77,5.173,0.77
				c0.996,0,2.011-0.041,3.026-0.083c1.057-0.044,2.114-0.087,3.149-0.087c2.224,0,5.084,0.178,7.477,1.562
				c3.111,1.8,4.893,5.217,6.617,8.521c1.41,2.704,2.742,5.258,4.644,6.72c1.914,1.472,4.733,2.103,7.718,2.771
				c3.627,0.812,7.378,1.653,9.908,4.183c2.529,2.53,3.369,6.28,4.182,9.907c0.668,2.984,1.3,5.804,2.771,7.717
				c1.462,1.904,4.016,3.236,6.721,4.646c3.303,1.724,6.719,3.506,8.519,6.615c1.785,3.084,1.627,6.918,1.476,10.627
				c-0.125,3.062-0.244,5.957,0.687,8.201c0.911,2.198,3.022,4.138,5.257,6.19c2.753,2.529,5.599,5.146,6.534,8.642
				c0.914,3.42-0.231,7.067-1.339,10.595c-0.923,2.938-1.794,5.715-1.477,8.146c0.305,2.335,1.833,4.746,3.452,7.296
				c2.009,3.168,4.085,6.441,4.085,10.086c0,3.644-2.077,6.918-4.085,10.084c-1.619,2.552-3.147,4.962-3.452,7.298
				c-0.317,2.431,0.554,5.207,1.477,8.146c1.107,3.527,2.252,7.176,1.339,10.595c-0.935,3.496-3.782,6.112-6.535,8.644
				c-2.235,2.055-4.346,3.994-5.257,6.192c-0.931,2.243-0.812,5.137-0.687,8.2c0.151,3.706,0.309,7.54-1.476,10.625
				c-1.801,3.11-5.217,4.893-8.521,6.615c-2.703,1.409-5.257,2.742-6.718,4.645c-1.471,1.914-2.103,4.732-2.771,7.717
				c-0.812,3.627-1.653,7.379-4.183,9.908c-2.53,2.53-6.281,3.371-9.908,4.184c-2.984,0.669-5.803,1.3-7.717,2.771
				c-1.902,1.462-3.235,4.016-4.645,6.718c-1.724,3.304-3.505,6.722-6.616,8.521c-2.393,1.385-5.253,1.562-7.477,1.562
				c-1.035,0-2.092-0.043-3.149-0.087c-1.015-0.042-2.031-0.083-3.026-0.083c-2.293,0-3.889,0.236-5.173,0.77
				c-2.196,0.911-4.136,3.021-6.189,5.257c-2.531,2.753-5.148,5.601-8.644,6.533c-0.824,0.221-1.719,0.334-2.659,0.334
				c-2.615,0-5.32-0.851-7.936-1.671c-2.937-0.922-5.667-1.786-8.145-1.478c-2.336,0.305-4.746,1.835-7.298,3.452
				C156.918,287.46,153.644,289.537,150,289.537z M131.565,278.729c0.495,0,0.985,0.027,1.468,0.092
				c3.04,0.396,5.866,2.189,8.6,3.924c2.908,1.844,5.654,3.587,8.367,3.587c2.712,0,5.459-1.743,8.367-3.587
				c2.734-1.734,5.562-3.527,8.601-3.924c3.09-0.413,6.384,0.611,9.52,1.598c2.495,0.782,4.852,1.522,6.976,1.522
				c0.669,0,1.269-0.073,1.831-0.224c2.596-0.693,4.789-3.079,7.111-5.606c2.198-2.393,4.472-4.866,7.323-6.05
				c2.167-0.898,4.56-1.013,6.401-1.013c1.039,0,2.099,0.042,3.157,0.086c1.014,0.041,2.026,0.083,3.019,0.083
				c1.823,0,4.138-0.128,5.87-1.13c2.305-1.334,3.799-4.197,5.379-7.229c1.509-2.894,3.07-5.886,5.534-7.778
				c2.475-1.902,5.777-2.643,8.97-3.358c3.327-0.745,6.469-1.448,8.342-3.32c1.872-1.872,2.576-5.015,3.321-8.342
				c0.715-3.193,1.455-6.495,3.357-8.971c1.894-2.465,4.885-4.023,7.778-5.533c3.031-1.581,5.895-3.073,7.228-5.379
				c1.319-2.278,1.188-5.489,1.048-8.889c-0.134-3.275-0.272-6.661,0.929-9.558c1.183-2.853,3.656-5.126,6.049-7.326
				c2.527-2.321,4.914-4.517,5.607-7.109c0.673-2.521-0.286-5.573-1.3-8.807c-0.986-3.141-2.005-6.389-1.598-9.521
				c0.397-3.04,2.189-5.867,3.924-8.601c1.844-2.908,3.586-5.654,3.586-8.367s-1.742-5.459-3.586-8.368
				c-1.734-2.733-3.527-5.56-3.924-8.599c-0.408-3.133,0.611-6.38,1.598-9.521c1.015-3.232,1.973-6.287,1.3-8.807
				c-0.694-2.594-3.08-4.787-5.606-7.109c-2.393-2.198-4.866-4.472-6.049-7.323c-1.201-2.896-1.062-6.285-0.929-9.561
				c0.14-3.4,0.271-6.611-1.048-8.889c-1.333-2.305-4.195-3.797-7.226-5.379c-2.894-1.509-5.887-3.069-7.78-5.534
				c-1.902-2.475-2.642-5.776-3.357-8.97c-0.745-3.326-1.449-6.469-3.32-8.341c-1.873-1.873-5.015-2.575-8.342-3.321
				c-3.193-0.715-6.494-1.456-8.97-3.357c-2.463-1.894-4.024-4.885-5.534-7.78c-1.581-3.03-3.074-5.895-5.379-7.229
				c-1.732-1.002-4.047-1.13-5.871-1.13c-0.992,0-2.004,0.042-3.019,0.083c-1.058,0.044-2.118,0.086-3.157,0.086
				c-1.842,0-4.233-0.114-6.401-1.013c-2.852-1.184-5.125-3.657-7.324-6.05c-2.322-2.526-4.516-4.913-7.11-5.606
				c-0.564-0.15-1.163-0.224-1.833-0.224c-2.124,0-4.48,0.74-6.976,1.523c-3.135,0.984-6.428,2.007-9.521,1.597
				c-3.04-0.396-5.866-2.188-8.6-3.924c-2.908-1.844-5.654-3.587-8.367-3.587s-5.459,1.743-8.367,3.587
				c-2.734,1.735-5.561,3.527-8.6,3.924c-3.091,0.408-6.385-0.612-9.521-1.597c-2.495-0.783-4.852-1.523-6.976-1.523
				c-0.669,0-1.268,0.073-1.832,0.224c-2.594,0.693-4.787,3.08-7.108,5.606c-2.199,2.393-4.473,4.866-7.324,6.05
				c-2.167,0.898-4.56,1.013-6.401,1.013c-1.039,0-2.099-0.042-3.157-0.086c-1.014-0.041-2.026-0.083-3.019-0.083
				c-1.823,0-4.138,0.128-5.87,1.13c-2.305,1.334-3.799,4.198-5.379,7.229c-1.509,2.894-3.07,5.886-5.534,7.778
				c-2.476,1.902-5.777,2.643-8.97,3.358c-3.327,0.745-6.469,1.448-8.341,3.32c-1.872,1.873-2.577,5.015-3.322,8.343
				c-0.715,3.193-1.455,6.495-3.357,8.97c-1.894,2.463-4.885,4.024-7.778,5.531c-3.032,1.581-5.896,3.075-7.229,5.38
				c-1.318,2.277-1.187,5.489-1.048,8.89c0.135,3.275,0.273,6.663-0.928,9.56c-1.184,2.851-3.656,5.124-6.048,7.322
				c-2.527,2.323-4.915,4.517-5.607,7.111c-0.674,2.521,0.285,5.573,1.299,8.807c0.986,3.141,2.006,6.389,1.598,9.521
				c-0.397,3.04-2.189,5.867-3.924,8.602c-1.844,2.907-3.586,5.653-3.586,8.366s1.742,5.459,3.586,8.367
				c1.735,2.733,3.527,5.561,3.924,8.601c0.408,3.132-0.611,6.38-1.598,9.521c-1.014,3.233-1.973,6.286-1.299,8.807
				c0.693,2.593,3.08,4.786,5.605,7.108c2.393,2.198,4.867,4.472,6.05,7.324c1.201,2.896,1.062,6.282,0.928,9.56
				c-0.139,3.398-0.271,6.609,1.048,8.888c1.333,2.306,4.197,3.798,7.228,5.38c2.894,1.509,5.884,3.068,7.778,5.532
				c1.902,2.476,2.642,5.777,3.357,8.972c0.745,3.326,1.449,6.469,3.32,8.341c1.873,1.873,5.015,2.576,8.342,3.321
				c3.193,0.715,6.494,1.456,8.97,3.357c2.463,1.894,4.024,4.885,5.534,7.78c1.581,3.031,3.074,5.895,5.379,7.229
				c1.732,1.002,4.048,1.13,5.871,1.13c0.991,0,2.003-0.042,3.016-0.084c1.059-0.043,2.118-0.086,3.155-0.086
				c1.843,0,4.236,0.115,6.403,1.014c2.852,1.183,5.126,3.657,7.326,6.05c2.322,2.527,4.515,4.913,7.109,5.606
				c0.564,0.15,1.163,0.224,1.833,0.224c2.124,0,4.481-0.74,6.976-1.522C126.157,279.586,128.893,278.729,131.565,278.729z"/>
		</g>
	</g>
	<g>
		<polygon style="fill-rule:evenodd;clip-rule:evenodd;fill:#FFFFFF;" points="121.816,200 129.328,200 125.624,188.458 		"/>
		<path style="fill-rule:evenodd;clip-rule:evenodd;fill:#FFFFFF;" d="M100.583,192.115c0.794-0.48,1.191-1.419,1.191-2.653
			c0-1.366-0.526-1.918-1.575-2.356c-0.906-0.305-2.062-0.105-3.466-0.105H91v6h6.481C98.754,193,99.788,192.602,100.583,192.115z"
			/>
		<path style="fill-rule:evenodd;clip-rule:evenodd;fill:#FFFFFF;" d="M100.503,198.269c-0.695-0.319-1.672-0.269-2.932-0.269H91v8
			h6.474c1.271,0,2.261-0.492,2.97-0.836c1.286-0.636,1.928-1.903,1.928-3.707C102.371,199.933,101.748,198.839,100.503,198.269z"/>
		<path style="fill-rule:evenodd;clip-rule:evenodd;fill:#FFFFFF;" d="M168.1,89H163v19h5.1c2.896,0,4.916-1.65,6.059-4.502
			c0.623-1.564,0.936-3.541,0.936-5.703c0-2.985-0.468-5.038-1.406-6.638C172.753,89.561,170.89,89,168.1,89z"/>
		<path style="fill-rule:evenodd;clip-rule:evenodd;fill:#FFFFFF;" d="M150,34.398c-63.503,0-114.98,51.48-114.98,114.981
			c0,63.5,51.478,114.979,114.98,114.979c63.501,0,114.98-51.479,114.98-114.979C264.98,85.879,213.501,34.398,150,34.398z M187,83
			h21v6h-16v6h14v5h-14v7h16v6h-21V83z M135.444,83h6.936l10.376,30h-6.646l-1.935-6h-10.803l-1.988,6h-6.411L135.444,83z M139,132
			v29h-7v-29H139z M107.254,206.277c-0.554,0.916-1.246,1.685-2.078,2.309c-0.936,0.717-2.042,1.479-3.314,1.746
			c-1.272,0.262-2.653,0.668-4.144,0.668H84v-31h14.676c3.578,0,6.111,1.656,7.603,3.688c0.897,1.246,1.346,3.02,1.346,4.757
			c0,1.791-0.454,3.372-1.359,4.46c-0.506,0.609-1.252,1.236-2.237,1.74c1.497,0.545,2.627,1.442,3.388,2.624
			c0.762,1.181,1.143,2.63,1.143,4.314C108.56,203.321,108.125,204.898,107.254,206.277z M104.199,113l-5.519-24.793
			c0,0.558,0.146,1.264,0.159,2.289c0.014,1.031,0.16,1.742,0.16,2.312V113h-7V83h9.928l5.339,23.063l5.3-23.063H121v30h-5V92.809
			c0-0.57-0.157-1.37-0.143-2.399c0.012-1.026-0.062-1.645-0.062-2.202L110.155,113H104.199z M132.886,211l-1.935-6h-10.803
			l-1.988,6h-6.411l10.471-31h6.936l10.377,31H132.886z M163.04,208.556c-2.073,1.771-4.999,2.657-8.78,2.657
			c-3.863,0-6.898-1.074-9.112-2.818c-2.212-1.744-3.318-3.395-3.318-7.395h5.849c0.191,2,0.563,2.543,1.118,3.205
			c1.016,1.207,2.757,1.913,5.223,1.913c1.475,0,2.674-0.11,3.595-0.428c1.749-0.611,2.623-1.719,2.623-3.378
			c0-0.968-0.429-1.706-1.284-2.236c-0.856-0.519-2.213-0.97-4.074-1.367l-3.175-0.693c-3.12-0.689-5.265-1.437-6.432-2.246
			c-1.978-1.353-2.965-3.469-2.965-6.349c0-2.627,0.966-4.807,2.899-6.544c1.935-1.738,4.775-2.607,8.522-2.607
			c3.129,0,5.797,0.889,8.008,2.526c2.209,1.639,3.368,4.204,3.474,7.204h-5.89c-0.11-2-0.897-3.089-2.367-3.83
			c-0.979-0.492-2.195-0.773-3.651-0.773c-1.619,0-2.911,0.303-3.877,0.938c-0.966,0.64-1.448,1.52-1.448,2.661
			c0,1.047,0.476,1.825,1.428,2.341c0.612,0.346,1.912,0.748,3.897,1.214l5.147,1.211c2.256,0.531,3.947,1.241,5.073,2.131
			c1.749,1.378,2.624,3.375,2.624,5.988C166.148,204.561,165.111,206.785,163.04,208.556z M168,161h-6.397L150,140.741V161h-6v-29
			h6.376L161,152.673V132h7V161z M156,113V83h13.135c1.819,0,3.333,0.396,4.542,0.794c2.057,0.677,3.723,1.995,4.998,3.802
			c1.022,1.459,1.719,3.076,2.092,4.775c0.371,1.697,0.557,3.335,0.557,4.874c0,3.9-0.783,7.39-2.35,10.097
			c-2.125,3.648-5.403,5.658-9.838,5.658H156z M193,211h-22v-31h21v7h-15v6h13v5h-13v7h16V211z M219,211h-21v-31h7v25h14V211z"/>
		<polygon style="fill-rule:evenodd;clip-rule:evenodd;fill:#FFFFFF;" points="138.848,90.458 135.041,102 142.552,102 		"/>
	</g>
</g>
</svg>
