<?xml version="1.0" encoding="utf-8"?>
<!-- Generator: Adobe Illustrator 17.1.0, SVG Export Plug-In . SVG Version: 6.00 Build 0)  -->
<!DOCTYPE svg PUBLIC "-//W3C//DTD SVG 1.1//EN" "http://www.w3.org/Graphics/SVG/1.1/DTD/svg11.dtd">
<svg version="1.1" xmlns="http://www.w3.org/2000/svg" xmlns:xlink="http://www.w3.org/1999/xlink" x="0px" y="0px"
	 viewBox="0 0 300 140" enable-background="new 0 0 300 140" xml:space="preserve">
<g id="bg">
</g>
<g id="Layer_1" display="none">
	<g display="inline">
		<path fill="#ffffff" d="M144.2,30.9c0.5,0,1-0.1,1.4-0.2c0.4-0.2,0.7-0.4,0.9-0.6c0.2-0.3,0.4-0.6,0.5-0.9c0.1-0.3,0.2-0.7,0.2-1
			c0-0.4-0.1-0.7-0.2-1c-0.1-0.3-0.3-0.5-0.6-0.7c-0.2-0.2-0.5-0.3-0.8-0.4c-0.3-0.1-0.7-0.1-1-0.1c-0.6,0-1.1,0.1-1.4,0.3
			c-0.4,0.2-0.7,0.4-0.9,0.7c-0.2,0.3-0.4,0.5-0.5,0.8c-0.1,0.3-0.2,0.6-0.2,0.8c0,0.7,0.2,1.3,0.7,1.7
			C142.6,30.7,143.3,30.9,144.2,30.9z"/>
		<polygon fill="#ffffff" points="238,107 238,53 221,53 221,121 249,121 249,107 		"/>
		<path fill="#ffffff" d="M161.8,77.7c-2.7-1.6-4.4-3-4.9-4.1c-0.6-1.1-0.9-2.8-0.9-5.1c0-1.7,0.3-3,0.8-3.9
			c0.5-0.9,1.3-1.3,2.4-1.3c1,0,1.8,0.3,2.2,1c0.4,0.6,0.7,2.1,0.7,4.4V73h16v-1.9c0-5.3-0.5-9.1-1.5-11.3c-1-2.2-3.1-4.1-6.3-5.5
			c-3.2-1.5-7.1-2.2-11.6-2.2c-4.1,0-7.7,0.7-10.6,2c-2.9,1.3-5.1,3.2-6.4,5.6c-1.3,2.4-2,6.1-2,11.3c0,3.6,0.5,6.5,1.4,8.8
			c0.9,2.3,2.1,4.1,3.5,5.4c1.4,1.3,4.3,3.4,8.6,6.3c4.3,2.8,7.1,4.9,8.2,6.1c1.1,1.2,1.6,3.8,1.6,7.8c0,1.8-0.3,3.2-0.8,4.1
			c-0.6,0.9-1.4,1.4-2.6,1.4c-1.2,0-1.6-0.4-2.1-1.1c-0.5-0.7-0.4-2.3-0.4-4.9V97h-16v3.9c0,5,0.1,8.9,1.1,11.7c1,2.7,3,5,6.3,6.8
			c3.3,1.8,7.2,2.7,11.9,2.7c4.3,0,7.9-0.8,11.1-2.3c3.2-1.5,5.3-3.4,6.5-5.7c1.1-2.3,1.7-5.8,1.7-10.6c0-6.6-1-11.4-3-14.3
			C174.4,86.1,169.5,82.3,161.8,77.7z"/>
		<polygon fill="#ffffff" points="203,93 213,93 213,80 203,80 203,67 215,67 215,53 186,53 186,121 216,121 216,107 203,107 		"/>
		<path fill="#ffffff" d="M95.2,45.2c0.3,0.8,0.7,1.5,1.2,1.9c0.5,0.4,1,0.7,1.7,0.7c0.6,0,1.1-0.1,1.7-0.4c0.6-0.3,1.1-0.6,1.6-1
			c0.1-0.1,0.2-0.2,0.3-0.3c0,0,0,0,0,0c0.3,0.5,0.7,0.9,1.2,1.2c0.5,0.3,1.1,0.4,1.7,0.4c0.5,0,0.9-0.1,1.4-0.2
			c0.5-0.1,0.9-0.3,1.4-0.6c0.5-0.2,0.9-0.5,1.3-0.9c0.4-0.3,0.8-0.7,1.2-1.1c0.2,0.6,0.5,1.1,0.9,1.4c0.3,0.4,0.7,0.6,1,0.8
			c0.3,0.2,0.6,0.3,0.9,0.4c0.3,0.1,0.5,0.1,0.6,0.1c0.3,0,0.5,0,0.8-0.1c0.3-0.1,0.6-0.2,0.9-0.3c0.3-0.1,0.6-0.3,1-0.5
			c0.3-0.2,0.6-0.4,0.9-0.5c0.6-0.3,1.1-0.7,1.7-1.2c0.1,0.3,0.3,0.5,0.5,0.7c0.5,0.6,1.1,1.1,1.8,1.4c0.7,0.4,1.6,0.5,2.5,0.5
			c0.6,0,1.2-0.1,1.8-0.2c0.6-0.1,1.2-0.3,1.8-0.6c0.6-0.2,1.1-0.5,1.6-0.8c0.5-0.3,1-0.6,1.4-0.9c1-0.7,2-1.6,2.9-2.5l-2-2.1
			c-0.4,0.4-0.9,0.8-1.5,1.2c-0.6,0.4-1.2,0.8-1.8,1.2c-0.7,0.4-1.3,0.7-2,0.9c-0.7,0.2-1.3,0.4-2,0.4c-0.2,0-0.4,0-0.5-0.1
			c-0.2,0-0.3-0.1-0.5-0.2c-0.2-0.1-0.3-0.2-0.5-0.4c-0.1-0.2-0.3-0.4-0.5-0.7c0.9-0.2,1.7-0.6,2.5-1c0.8-0.4,1.4-0.9,2-1.5
			c0.6-0.6,1-1.2,1.3-1.8s0.5-1.3,0.5-1.9c0-0.6-0.1-1.1-0.3-1.6c-0.2-0.5-0.5-0.9-0.9-1.2c-0.4-0.3-0.8-0.6-1.3-0.8
			c-0.5-0.2-1-0.3-1.6-0.3c-0.7,0-1.4,0.1-1.9,0.4c-0.6,0.3-1.1,0.6-1.6,1c-0.5,0.4-0.9,0.9-1.2,1.5c-0.4,0.6-0.6,1.2-0.9,1.8
			c-0.2,0.6-0.4,1.3-0.5,1.9c-0.1,0.6-0.2,1.3-0.2,1.8c0,0.2,0,0.4,0,0.6c-0.3,0.2-0.6,0.4-0.8,0.6c-0.2,0.2-0.5,0.3-0.8,0.5
			c-0.3,0.2-0.5,0.3-0.8,0.5c-0.3,0.1-0.5,0.2-0.7,0.3c-0.2,0.1-0.4,0.1-0.6,0.1c-0.2,0-0.4-0.1-0.5-0.2c-0.1-0.1-0.3-0.3-0.3-0.5
			c-0.1-0.2-0.1-0.5-0.2-0.7c0-0.3-0.1-0.6-0.1-0.9c0-0.2,0-0.5,0-0.7c0-0.3,0.1-0.5,0.1-0.7c0-0.2,0.1-0.5,0.1-0.7
			c0.1-0.2,0.1-0.4,0.2-0.5c0.5-1.3,1.1-2.6,1.7-3.8c0.6-1.2,1.1-2.4,1.6-3.7c0.5-1.2,0.9-2.5,1.3-3.8c0.4-1.3,0.6-2.7,0.7-4.1
			c0-0.4,0-0.8,0-1.1c0-0.6,0-1.2-0.1-1.7c-0.1-0.6-0.2-1-0.5-1.5c-0.2-0.4-0.5-0.8-0.8-1c-0.3-0.3-0.8-0.4-1.2-0.4
			c-0.7,0-1.3,0.2-1.9,0.6c-0.6,0.4-1.2,1-1.7,1.7c-0.5,0.7-1.1,1.6-1.5,2.6c-0.5,1-0.9,2.1-1.2,3.2c-0.3,1.2-0.6,2.4-0.8,3.7
			c-0.2,1.3-0.3,2.6-0.4,3.9c-0.8,0.1-1.5,0.3-2.2,0.5c-0.7,0.3-1.3,0.7-1.9,1.1c-0.6,0.4-1.1,0.9-1.6,1.5c-0.5,0.6-0.9,1.2-1.2,1.8
			c-0.3,0.6-0.6,1.3-0.7,2c-0.2,0.7-0.3,1.3-0.3,2c0,0.1,0,0.3,0,0.4c0,0,0,0,0,0c-0.2,0.2-0.5,0.4-0.7,0.6
			c-0.2,0.2-0.5,0.3-0.7,0.4c-0.2,0.1-0.5,0.2-0.7,0.2c-0.3,0-0.5-0.1-0.6-0.4c-0.1-0.3-0.1-0.7-0.1-1.1c0-0.6,0.1-1.2,0.2-1.8
			c0.1-0.6,0.2-1.3,0.3-1.9c0.1-0.6,0.2-1.3,0.3-1.9c0.1-0.6,0.2-1.2,0.2-1.6c0-0.3,0-0.6-0.1-0.8c-0.1-0.2-0.1-0.3-0.2-0.4
			c-0.1-0.1-0.2-0.2-0.4-0.2c-0.1,0-0.3,0-0.4,0c-0.1,0-0.2,0-0.3,0c-0.1,0-0.2,0-0.3,0c-0.1,0-0.3,0-0.4,0c-0.1,0-0.3,0-0.4-0.1
			c-0.1-0.1-0.2-0.1-0.3-0.2c-0.1-0.1-0.2-0.2-0.3-0.3c-0.1-0.1-0.2-0.2-0.3-0.3c-0.1-0.1-0.3-0.1-0.6-0.1c-0.7,0-1.4,0.2-2.1,0.5
			c-0.7,0.3-1.3,0.7-2,1.2c-0.6,0.5-1.2,1.1-1.7,1.8c-0.5,0.7-1,1.4-1.4,2.2c-0.4,0.8-0.7,1.6-0.9,2.4c0,0.1,0,0.2-0.1,0.4
			c-0.2,0.2-0.3,0.4-0.5,0.6c-0.2,0.3-0.5,0.6-0.7,0.8c-0.3,0.3-0.5,0.5-0.8,0.7c-0.3,0.2-0.5,0.4-0.8,0.5c-0.3,0.1-0.5,0.2-0.8,0.2
			c-0.4,0-0.7-0.1-1-0.4c-0.2-0.3-0.3-0.7-0.3-1.3c0-0.5,0.1-1.1,0.2-1.7c0.1-0.7,0.3-1.4,0.4-2.2c0.2-0.8,0.4-1.6,0.6-2.5
			c0.2-0.9,0.4-1.8,0.6-2.7c0.2-0.9,0.3-1.8,0.4-2.8c0.1-0.9,0.2-1.8,0.2-2.7c0-0.9-0.1-1.9-0.3-2.7c-0.2-0.9-0.4-1.6-0.8-2.2
			c-0.3-0.6-0.7-1.1-1.2-1.5c-0.5-0.4-1.1-0.6-1.7-0.6c-0.9,0-1.8,0.2-2.6,0.7c-0.8,0.5-1.6,1.1-2.4,2c-0.7,0.9-1.4,1.9-2,3.1
			c-0.6,1.2-1.1,2.6-1.5,4.1l-0.3,0c0.1-0.7,0.2-1.4,0.3-2c0-0.3,0.1-0.5,0.1-0.8c0-0.3,0.1-0.5,0.1-0.7c0-0.2,0-0.4,0.1-0.6
			c0-0.2,0-0.3,0-0.4c0-0.9-0.1-1.7-0.2-2.4c-0.2-0.7-0.4-1.2-0.7-1.6c-0.3-0.4-0.6-0.8-1-1c-0.4-0.2-0.8-0.3-1.3-0.3
			c-0.6,0-1.3,0.2-1.9,0.5c-0.7,0.4-1.3,0.8-1.9,1.5c-0.6,0.6-1.3,1.4-1.9,2.3c-0.6,0.9-1.2,1.9-1.7,3c-0.5,1.1-1,2.3-1.5,3.5
			c-0.4,1.3-0.8,2.6-1.2,4c0.2-0.7,0.3-1.5,0.5-2.4c0.2-0.9,0.3-1.7,0.5-2.6c0.1-0.9,0.3-1.7,0.3-2.4c0.1-0.8,0.1-1.4,0.1-2
			c0-0.8,0-1.4-0.1-2.1c-0.1-0.6-0.3-1.1-0.5-1.6c-0.2-0.4-0.6-0.8-1-1c-0.4-0.2-1-0.4-1.6-0.4c-0.5,0-1,0.1-1.6,0.3
			c-0.5,0.2-1.1,0.6-1.6,1c-0.5,0.5-1,1.1-1.5,2c-0.5,0.8-0.9,1.8-1.3,3.1c0,0-0.1,0.1-0.1,0.2c0,0.1,0,0.2,0,0.4
			c0,0.1,0.1,0.3,0.1,0.4c0,0.1,0.1,0.2,0.2,0.3c0.1,0.1,0.1,0.1,0.2,0.1c0.2,0,0.3,0,0.4-0.1c0.1-0.1,0.2-0.2,0.3-0.3
			c0.3-0.4,0.7-0.9,1.1-1.2c0.4-0.4,0.8-0.7,1.2-1c0.4-0.3,0.8-0.5,1.1-0.7c0.4-0.2,0.7-0.3,0.9-0.3c0.2,0,0.3,0,0.3,0.1
			c0.1,0.1,0.6,0.2,0.7,0.3c0,0.1,0.5,0.3,0.5,0.4c0,0.1,0,0.3,0,0.4c-1,1.1-0.6,2.1-0.7,3c-0.1,0.9-0.4,1.8-0.5,2.7
			c-0.1,0.9-0.3,1.8-0.4,2.6c-0.1,0.9-0.3,1.8-0.5,2.7c-0.2,0.9-0.4,1.9-0.6,2.9c-0.2,1-0.5,2.2-0.8,3.4c-0.1,0.4-0.2,0.7-0.2,1.1
			c0,0.4-0.1,0.7-0.1,1.2c0,0.2,0.1,0.4,0.2,0.6c0.1,0.2,0.3,0.3,0.5,0.4c0.2,0.1,0.4,0.2,0.7,0.3c0.3,0.1,0.5,0.1,0.8,0.1
			c0.2,0,0.5,0,0.7-0.1c0.2,0,0.5-0.1,0.7-0.2c0.2-0.1,0.4-0.3,0.6-0.5c0.2-0.2,0.3-0.4,0.3-0.8c0.1-1,0.3-2.1,0.6-3.2
			c0.3-1.1,0.6-2.3,0.9-3.5c0.4-1.2,0.7-2.4,1.2-3.5c0.4-1.2,0.9-2.3,1.3-3.4c0.4-1.1,0.9-2.1,1.4-3c0.5-0.9,0.9-1.7,1.3-2.4
			c0.4-0.7,0.8-1.2,1.2-1.6c0.4-0.4,0.7-0.6,1-0.6c0.4,0,0.6,0.1,0.8,0.3c0.2,0.2,0.4,0.5,0.5,0.8c0.1,0.4,0.2,0.8,0.2,1.3
			c0,0.5,0,1.1,0,1.7c0,0.9-0.1,1.9-0.2,3.1c-0.1,1.1-0.3,2.2-0.5,3.4c-0.2,1.1-0.4,2.2-0.6,3.3c-0.2,1.1-0.4,2.1-0.6,3
			c-0.2,0.9-0.3,1.7-0.5,2.4c-0.1,0.7-0.2,1.1-0.2,1.4c0,0.4,0,0.7,0.1,1c0.1,0.3,0.2,0.5,0.4,0.7c0.2,0.2,0.3,0.3,0.6,0.4
			c0.2,0.1,0.4,0.1,0.6,0.1c0.2,0,0.5,0,0.7-0.1c0.2-0.1,0.5-0.1,0.7-0.3c0.2-0.1,0.4-0.3,0.6-0.5c0.2-0.2,0.3-0.4,0.4-0.7
			c0.2-1,0.4-2.1,0.6-3.3c0.2-1.2,0.4-2.3,0.7-3.5c0.2-1.2,0.5-2.4,0.8-3.5c0.3-1.2,0.6-2.3,0.9-3.4c0.3-1.1,0.7-2.1,1.1-3
			c0.4-0.9,0.8-1.7,1.2-2.4c0.4-0.7,0.9-1.2,1.4-1.6c0.5-0.4,1-0.6,1.5-0.6c0.3,0,0.5,0.1,0.7,0.2c0.2,0.1,0.3,0.3,0.4,0.6
			c0.1,0.3,0.2,0.6,0.2,1c0,0.4,0,0.8,0,1.3c0,0.8-0.1,1.6-0.2,2.4c-0.1,0.8-0.2,1.7-0.4,2.5c-0.2,0.9-0.3,1.7-0.5,2.6
			c-0.2,0.9-0.4,1.7-0.5,2.5c-0.2,0.8-0.3,1.6-0.5,2.4c-0.1,0.8-0.2,1.5-0.3,2.2c0,0.1,0,0.2,0,0.3c0,0.1,0,0.2,0,0.3
			c0,0.7,0.1,1.4,0.4,2c0.2,0.6,0.6,1.1,1,1.4c0.4,0.4,0.9,0.7,1.4,0.9c0.5,0.2,1.1,0.3,1.6,0.3c0.6,0,1.2-0.1,1.7-0.3
			c0.6-0.2,1.2-0.5,1.7-0.9c0.4-0.3,0.8-0.6,1.2-1c0.2,0.4,0.4,0.7,0.7,1c0.4,0.4,0.8,0.7,1.2,0.9c0.5,0.2,1,0.3,1.4,0.3
			c0.5,0,0.9-0.1,1.4-0.2c0.5-0.2,0.9-0.4,1.3-0.6c0.4-0.2,0.8-0.5,1.2-0.8C94.6,45.8,95,45.5,95.2,45.2z M121.6,39.6
			c0-0.3,0.1-0.7,0.1-1c0.1-0.3,0.2-0.7,0.3-1s0.3-0.6,0.5-0.9c0.2-0.3,0.5-0.5,0.8-0.6c0.3-0.2,0.7-0.2,1.1-0.2
			c0.2,0,0.5,0.1,0.6,0.4c0.2,0.3,0.3,0.7,0.3,1.1c0,0.3-0.1,0.7-0.4,1c-0.3,0.4-0.6,0.7-1,1c-0.4,0.3-0.8,0.5-1.2,0.7
			c-0.4,0.2-0.8,0.3-1.2,0.3C121.6,40.2,121.6,40,121.6,39.6z M113,35.9c0-0.2,0-0.4,0-0.7c0-0.3-0.3-0.6-0.3-1
			c0-0.4-0.1-0.8-0.1-1.3c0-0.5,0-1,0-1.5c0-0.2,0-0.7,0.1-1.3c0.1-0.6,0.1-1.2,0.2-2c0.1-0.7,0.2-1.5,0.4-2.3
			c0.2-0.8,0.3-1.5,0.5-2.2c0.2-0.7,0.4-1.2,0.7-1.6c0.3-0.4,0.6-0.6,0.9-0.6c0.2,0,0.3,0.1,0.4,0.3c0.1,0.2,0.1,0.6,0.1,1.2
			c0,0.4,0,1-0.1,1.7c-0.1,0.5-0.1,1.1-0.3,1.7c-0.1,0.6-0.3,1.2-0.5,1.9c-0.2,0.6-0.4,1.3-0.6,1.9c-0.2,0.6-0.1,1.2-0.3,1.8
			c-0.5,1.3-1.3,2.7-1.3,4V35.9z M104.7,41c0.2-0.6,0.5-1.3,0.8-1.9c0.4-0.6,0.8-1.2,1.3-1.8c0.5-0.5,1.1-1,1.8-1.3c0,0,0,0.1,0,0.3
			c0,0.2,0,0.5,0,0.8c0,0.3,0,0.7,0,1.1c0,0.4,0,0.8,0,1.2c0,0.4,0,0.7,0,1.1c0,0.3,0,0.5,0.1,0.7c-0.2,0.6-0.5,1.1-0.8,1.6
			c-0.1,0.2-0.3,0.4-0.4,0.6c-0.1,0.2-0.3,0.4-0.5,0.5c-0.2,0.1-0.3,0.3-0.5,0.4c-0.2,0.1-0.4,0.1-0.5,0.1c-0.4,0-0.7-0.1-0.9-0.2
			c-0.2-0.1-0.4-0.2-0.5-0.4c-0.1-0.2-0.2-0.4-0.3-0.6c0-0.2-0.1-0.4-0.1-0.6C104.4,42.2,104.5,41.6,104.7,41z M93.5,43.1
			c-0.2,0.5-0.5,0.9-0.8,1.2c-0.3,0.3-0.7,0.5-1,0.5c-0.2,0-0.4-0.1-0.6-0.2c-0.2-0.1-0.3-0.3-0.4-0.5c-0.1-0.2-0.2-0.4-0.2-0.7
			c0-0.2-0.1-0.5-0.1-0.8c0-0.5,0.1-0.9,0.2-1.5c0.1-0.5,0.3-1,0.5-1.5c0.2-0.5,0.5-1,0.8-1.5c0.3-0.5,0.6-0.9,1-1.2
			c0.4-0.4,0.7-0.6,1.1-0.9c0.4-0.2,0.8-0.3,1.2-0.3l-0.9,4.6c0,0.3-0.1,0.7-0.3,1.2C93.9,42.1,93.7,42.6,93.5,43.1z"/>
		<path fill="#ffffff" d="M81.2,84.3c3.6-0.8,6.1-2,7.3-3.6c1.2-1.5,1.8-4.3,1.8-8.2c0-5.8-0.9-10-2.6-12.6c-1.7-2.6-4-4.5-6.9-5.4
			c-2.8-0.9-7-1.5-12.5-1.5H52v68h19.2c7,0,11.7-0.6,13.9-1.4c2.3-0.8,4.1-2.4,5.2-4.6c1-2.2,1.7-5.7,1.7-10.2v-6.2
			c0-4.4-0.9-7.6-2.4-9.7C88.2,86.7,85.3,85.2,81.2,84.3z M75,102.8c0,2.7-0.5,4.4-1.2,5.1c-0.7,0.7-2.8,1.1-4.8,1.2V90.3
			c2,0.1,4.3,0.4,5,1c0.6,0.6,1,2.4,1,5.2V102.8z M73.4,78.5c-0.5,0.8-1.3,1.3-3,1.3c-0.4,0-0.5,0-1.5,0V64.9c2,0,2.7,0.2,3.3,0.4
			c0.6,0.2,1,0.8,1.4,1.6c0.4,0.8,0.5,2.3,0.5,4.4C74.2,75.3,73.9,77.7,73.4,78.5z"/>
		<path fill="#ffffff" d="M102.8,53l-8.9,68H112l1.1-12h6.2l0.9,12h17.9l-10-68H102.8z M112.8,97c0.5-7,1.6-15.4,3.4-28.2
			C117,80,117.9,89,118.8,97H112.8z"/>
		<path fill="#ffffff" d="M141.4,47.7c0.6,0,1.2-0.1,1.9-0.3c0.7-0.2,1.3-0.5,2-0.8c0.6-0.3,1.2-0.7,1.8-1.1
			c0.1-0.1,0.2-0.2,0.3-0.2c0,0.1,0,0.3,0,0.4c0,0.4,0.1,0.7,0.3,1c0.1,0.3,0.3,0.5,0.6,0.7c0.3,0.2,0.6,0.3,1,0.3
			c0.3,0,0.6-0.1,0.9-0.2c0.3-0.2,0.5-0.2,0.7-0.7L155,39h0.2c-0.1,0-0.2,1.4-0.3,2.1c-0.1,0.7-0.1,1.3-0.1,1.9
			c0,1.6,0.2,2.7,0.6,3.5c0.4,0.8,0.9,1.2,1.4,1.2c0.6,0,1.1-0.1,1.6-0.3c0.5-0.2,1-0.4,1.5-0.6c0.5-0.3,0.9-0.5,1.4-0.9
			c0.4-0.3,0.9-0.6,1.3-1l0.8-0.6l-0.3-3.5c-0.6,0.6-1.2,1.2-1.7,1.6c-0.2,0.2-0.5,0.4-0.7,0.6c-0.2,0.2-0.5,0.4-0.7,0.5
			c-0.2,0.1-0.4,0.3-0.7,0.4c-0.2,0.1-0.4,0.1-0.5,0.1c-0.3,0-0.6-0.2-0.8-0.6c-0.2-0.4-0.2-0.9-0.2-1.6c0-0.4,0-0.8,0.1-1.3
			c0-0.5,0.1-0.9,0.2-1.4c0.1-0.5,0.2-0.9,0.2-1.4c0.1-0.4,0.2-0.9,0.2-1.2c0.1-0.4,0.1-0.7,0.2-1c0-0.3,0.1-0.5,0.1-0.6
			c0-0.8-0.2-1.4-0.5-1.8c-0.3-0.4-0.7-0.7-1.2-0.7c-0.5,0-1,0.1-1.4,0.3c-0.4,0.2-0.8,0.6-1.1,1.1c-0.1,0.1-0.2,0.3-0.3,0.6
			c-0.1,0.3-0.3,0.6-0.5,0.9c-0.2,0.3-0.4,0.7-0.6,1.1c-0.2,0.4-0.4,0.7-0.6,1c-0.2,0.3-0.3,0.5-0.5,0.7c-0.1,0.3-0.2,0.4-0.3,0.4
			h-0.3c0,0,0-0.1,0-0.3c0-0.2,0.1-0.4,0.1-0.7c0-0.3,0.1-0.6,0.1-0.9c0.1-0.3,0.1-0.6,0.1-1c0-0.3,0.1-0.6,0.1-0.9
			c0-0.3,0-0.5,0-0.6c0-0.6-0.1-1-0.3-1.4c-0.2-0.3-0.6-0.5-1.2-0.5s-1,0.2-1.3,0.5c-0.3,0.3-0.5,0.7-0.7,1.2
			c-0.1,0.6-0.3,1.3-0.4,2.2c-0.2,0.9-0.3,1.7-0.4,2.7c-0.1,0.9-0.2,1.8-0.3,2.7c-0.1,0.1-0.1,0.1-0.2,0.2c-0.4,0.4-0.9,0.8-1.4,1.1
			c-0.5,0.4-0.9,0.7-1.4,0.9c-0.5,0.3-0.9,0.4-1.2,0.4c-0.3,0-0.5-0.1-0.6-0.4c-0.1-0.3-0.2-0.6-0.2-1.1c0-0.5,0.1-1,0.2-1.6
			c0.1-0.6,0.2-1.2,0.4-1.8c0.2-0.6,0.3-1.2,0.5-1.9c0.2-0.6,0.3-1.2,0.5-1.8c0.2-0.5,0.3-1,0.4-1.5c0.1-0.4,0.2-0.8,0.2-1
			c0-0.3-0.1-0.5-0.2-0.6c-0.2-0.2-0.4-0.2-0.9-0.2c-0.2,0-0.5,0-0.8,0.1c-0.3,0.1-0.6,0.1-0.9,0.3c-0.3,0.1-0.5,0.3-0.7,0.5
			c-0.2,0.2-0.4,0.4-0.4,0.7c-0.2,0.8-0.4,1.6-0.6,2.5c-0.2,0.9-0.5,1.8-0.7,2.8c-0.2,0.9-0.4,1.8-0.5,2.7c-0.1,0.9-0.2,1.6-0.2,2.3
			c0,0.5,0,0.9,0.1,1.3c0.1,0.4,0.3,0.7,0.5,1c0.2,0.3,0.5,0.5,0.9,0.6S140.9,47.7,141.4,47.7z"/>
	</g>
	<g display="inline">
		<path fill="#ffffff" d="M144.2,30.9c0.5,0,1-0.1,1.4-0.2c0.4-0.2,0.7-0.4,0.9-0.6c0.2-0.3,0.4-0.6,0.5-0.9c0.1-0.3,0.2-0.7,0.2-1
			c0-0.4-0.1-0.7-0.2-1c-0.1-0.3-0.3-0.5-0.6-0.7c-0.2-0.2-0.5-0.3-0.8-0.4c-0.3-0.1-0.7-0.1-1-0.1c-0.6,0-1.1,0.1-1.4,0.3
			c-0.4,0.2-0.7,0.4-0.9,0.7c-0.2,0.3-0.4,0.5-0.5,0.8c-0.1,0.3-0.2,0.6-0.2,0.8c0,0.7,0.2,1.3,0.7,1.7
			C142.6,30.7,143.3,30.9,144.2,30.9z"/>
		<polygon fill="#ffffff" points="238,107 238,53 221,53 221,121 249,121 249,107 		"/>
		<path fill="#ffffff" d="M161.8,77.7c-2.7-1.6-4.4-3-4.9-4.1c-0.6-1.1-0.9-2.8-0.9-5.1c0-1.7,0.3-3,0.8-3.9
			c0.5-0.9,1.3-1.3,2.4-1.3c1,0,1.8,0.3,2.2,1c0.4,0.6,0.7,2.1,0.7,4.4V73h16v-1.9c0-5.3-0.5-9.1-1.5-11.3c-1-2.2-3.1-4.1-6.3-5.5
			c-3.2-1.5-7.1-2.2-11.6-2.2c-4.1,0-7.7,0.7-10.6,2c-2.9,1.3-5.1,3.2-6.4,5.6c-1.3,2.4-2,6.1-2,11.3c0,3.6,0.5,6.5,1.4,8.8
			c0.9,2.3,2.1,4.1,3.5,5.4c1.4,1.3,4.3,3.4,8.6,6.3c4.3,2.8,7.1,4.9,8.2,6.1c1.1,1.2,1.6,3.8,1.6,7.8c0,1.8-0.3,3.2-0.8,4.1
			c-0.6,0.9-1.4,1.4-2.6,1.4c-1.2,0-1.6-0.4-2.1-1.1c-0.5-0.7-0.4-2.3-0.4-4.9V97h-16v3.9c0,5,0.1,8.9,1.1,11.7c1,2.7,3,5,6.3,6.8
			c3.3,1.8,7.2,2.7,11.9,2.7c4.3,0,7.9-0.8,11.1-2.3c3.2-1.5,5.3-3.4,6.5-5.7c1.1-2.3,1.7-5.8,1.7-10.6c0-6.6-1-11.4-3-14.3
			C174.4,86.1,169.5,82.3,161.8,77.7z"/>
		<polygon fill="#ffffff" points="203,93 213,93 213,80 203,80 203,67 215,67 215,53 186,53 186,121 216,121 216,107 203,107 		"/>
		<path fill="#ffffff" d="M95.2,45.2c0.3,0.8,0.7,1.5,1.2,1.9c0.5,0.4,1,0.7,1.7,0.7c0.6,0,1.1-0.1,1.7-0.4c0.6-0.3,1.1-0.6,1.6-1
			c0.1-0.1,0.2-0.2,0.3-0.3c0,0,0,0,0,0c0.3,0.5,0.7,0.9,1.2,1.2c0.5,0.3,1.1,0.4,1.7,0.4c0.5,0,0.9-0.1,1.4-0.2
			c0.5-0.1,0.9-0.3,1.4-0.6c0.5-0.2,0.9-0.5,1.3-0.9c0.4-0.3,0.8-0.7,1.2-1.1c0.2,0.6,0.5,1.1,0.9,1.4c0.3,0.4,0.7,0.6,1,0.8
			c0.3,0.2,0.6,0.3,0.9,0.4c0.3,0.1,0.5,0.1,0.6,0.1c0.3,0,0.5,0,0.8-0.1c0.3-0.1,0.6-0.2,0.9-0.3c0.3-0.1,0.6-0.3,1-0.5
			c0.3-0.2,0.6-0.4,0.9-0.5c0.6-0.3,1.1-0.7,1.7-1.2c0.1,0.3,0.3,0.5,0.5,0.7c0.5,0.6,1.1,1.1,1.8,1.4c0.7,0.4,1.6,0.5,2.5,0.5
			c0.6,0,1.2-0.1,1.8-0.2c0.6-0.1,1.2-0.3,1.8-0.6c0.6-0.2,1.1-0.5,1.6-0.8c0.5-0.3,1-0.6,1.4-0.9c1-0.7,2-1.6,2.9-2.5l-2-2.1
			c-0.4,0.4-0.9,0.8-1.5,1.2c-0.6,0.4-1.2,0.8-1.8,1.2c-0.7,0.4-1.3,0.7-2,0.9c-0.7,0.2-1.3,0.4-2,0.4c-0.2,0-0.4,0-0.5-0.1
			c-0.2,0-0.3-0.1-0.5-0.2c-0.2-0.1-0.3-0.2-0.5-0.4c-0.1-0.2-0.3-0.4-0.5-0.7c0.9-0.2,1.7-0.6,2.5-1c0.8-0.4,1.4-0.9,2-1.5
			c0.6-0.6,1-1.2,1.3-1.8s0.5-1.3,0.5-1.9c0-0.6-0.1-1.1-0.3-1.6c-0.2-0.5-0.5-0.9-0.9-1.2c-0.4-0.3-0.8-0.6-1.3-0.8
			c-0.5-0.2-1-0.3-1.6-0.3c-0.7,0-1.4,0.1-1.9,0.4c-0.6,0.3-1.1,0.6-1.6,1c-0.5,0.4-0.9,0.9-1.2,1.5c-0.4,0.6-0.6,1.2-0.9,1.8
			c-0.2,0.6-0.4,1.3-0.5,1.9c-0.1,0.6-0.2,1.3-0.2,1.8c0,0.2,0,0.4,0,0.6c-0.3,0.2-0.6,0.4-0.8,0.6c-0.2,0.2-0.5,0.3-0.8,0.5
			c-0.3,0.2-0.5,0.3-0.8,0.5c-0.3,0.1-0.5,0.2-0.7,0.3c-0.2,0.1-0.4,0.1-0.6,0.1c-0.2,0-0.4-0.1-0.5-0.2c-0.1-0.1-0.3-0.3-0.3-0.5
			c-0.1-0.2-0.1-0.5-0.2-0.7c0-0.3-0.1-0.6-0.1-0.9c0-0.2,0-0.5,0-0.7c0-0.3,0.1-0.5,0.1-0.7c0-0.2,0.1-0.5,0.1-0.7
			c0.1-0.2,0.1-0.4,0.2-0.5c0.5-1.3,1.1-2.6,1.7-3.8c0.6-1.2,1.1-2.4,1.6-3.7c0.5-1.2,0.9-2.5,1.3-3.8c0.4-1.3,0.6-2.7,0.7-4.1
			c0-0.4,0-0.8,0-1.1c0-0.6,0-1.2-0.1-1.7c-0.1-0.6-0.2-1-0.5-1.5c-0.2-0.4-0.5-0.8-0.8-1c-0.3-0.3-0.8-0.4-1.2-0.4
			c-0.7,0-1.3,0.2-1.9,0.6c-0.6,0.4-1.2,1-1.7,1.7c-0.5,0.7-1.1,1.6-1.5,2.6c-0.5,1-0.9,2.1-1.2,3.2c-0.3,1.2-0.6,2.4-0.8,3.7
			c-0.2,1.3-0.3,2.6-0.4,3.9c-0.8,0.1-1.5,0.3-2.2,0.5c-0.7,0.3-1.3,0.7-1.9,1.1c-0.6,0.4-1.1,0.9-1.6,1.5c-0.5,0.6-0.9,1.2-1.2,1.8
			c-0.3,0.6-0.6,1.3-0.7,2c-0.2,0.7-0.3,1.3-0.3,2c0,0.1,0,0.3,0,0.4c0,0,0,0,0,0c-0.2,0.2-0.5,0.4-0.7,0.6
			c-0.2,0.2-0.5,0.3-0.7,0.4c-0.2,0.1-0.5,0.2-0.7,0.2c-0.3,0-0.5-0.1-0.6-0.4c-0.1-0.3-0.1-0.7-0.1-1.1c0-0.6,0.1-1.2,0.2-1.8
			c0.1-0.6,0.2-1.3,0.3-1.9c0.1-0.6,0.2-1.3,0.3-1.9c0.1-0.6,0.2-1.2,0.2-1.6c0-0.3,0-0.6-0.1-0.8c-0.1-0.2-0.1-0.3-0.2-0.4
			c-0.1-0.1-0.2-0.2-0.4-0.2c-0.1,0-0.3,0-0.4,0c-0.1,0-0.2,0-0.3,0c-0.1,0-0.2,0-0.3,0c-0.1,0-0.3,0-0.4,0c-0.1,0-0.3,0-0.4-0.1
			c-0.1-0.1-0.2-0.1-0.3-0.2c-0.1-0.1-0.2-0.2-0.3-0.3c-0.1-0.1-0.2-0.2-0.3-0.3c-0.1-0.1-0.3-0.1-0.6-0.1c-0.7,0-1.4,0.2-2.1,0.5
			c-0.7,0.3-1.3,0.7-2,1.2c-0.6,0.5-1.2,1.1-1.7,1.8c-0.5,0.7-1,1.4-1.4,2.2c-0.4,0.8-0.7,1.6-0.9,2.4c0,0.1,0,0.2-0.1,0.4
			c-0.2,0.2-0.3,0.4-0.5,0.6c-0.2,0.3-0.5,0.6-0.7,0.8c-0.3,0.3-0.5,0.5-0.8,0.7c-0.3,0.2-0.5,0.4-0.8,0.5c-0.3,0.1-0.5,0.2-0.8,0.2
			c-0.4,0-0.7-0.1-1-0.4c-0.2-0.3-0.3-0.7-0.3-1.3c0-0.5,0.1-1.1,0.2-1.7c0.1-0.7,0.3-1.4,0.4-2.2c0.2-0.8,0.4-1.6,0.6-2.5
			c0.2-0.9,0.4-1.8,0.6-2.7c0.2-0.9,0.3-1.8,0.4-2.8c0.1-0.9,0.2-1.8,0.2-2.7c0-0.9-0.1-1.9-0.3-2.7c-0.2-0.9-0.4-1.6-0.8-2.2
			c-0.3-0.6-0.7-1.1-1.2-1.5c-0.5-0.4-1.1-0.6-1.7-0.6c-0.9,0-1.8,0.2-2.6,0.7c-0.8,0.5-1.6,1.1-2.4,2c-0.7,0.9-1.4,1.9-2,3.1
			c-0.6,1.2-1.1,2.6-1.5,4.1l-0.3,0c0.1-0.7,0.2-1.4,0.3-2c0-0.3,0.1-0.5,0.1-0.8c0-0.3,0.1-0.5,0.1-0.7c0-0.2,0-0.4,0.1-0.6
			c0-0.2,0-0.3,0-0.4c0-0.9-0.1-1.7-0.2-2.4c-0.2-0.7-0.4-1.2-0.7-1.6c-0.3-0.4-0.6-0.8-1-1c-0.4-0.2-0.8-0.3-1.3-0.3
			c-0.6,0-1.3,0.2-1.9,0.5c-0.7,0.4-1.3,0.8-1.9,1.5c-0.6,0.6-1.3,1.4-1.9,2.3c-0.6,0.9-1.2,1.9-1.7,3c-0.5,1.1-1,2.3-1.5,3.5
			c-0.4,1.3-0.8,2.6-1.2,4c0.2-0.7,0.3-1.5,0.5-2.4c0.2-0.9,0.3-1.7,0.5-2.6c0.1-0.9,0.3-1.7,0.3-2.4c0.1-0.8,0.1-1.4,0.1-2
			c0-0.8,0-1.4-0.1-2.1c-0.1-0.6-0.3-1.1-0.5-1.6c-0.2-0.4-0.6-0.8-1-1c-0.4-0.2-1-0.4-1.6-0.4c-0.5,0-1,0.1-1.6,0.3
			c-0.5,0.2-1.1,0.6-1.6,1c-0.5,0.5-1,1.1-1.5,2c-0.5,0.8-0.9,1.8-1.3,3.1c0,0-0.1,0.1-0.1,0.2c0,0.1,0,0.2,0,0.4
			c0,0.1,0.1,0.3,0.1,0.4c0,0.1,0.1,0.2,0.2,0.3c0.1,0.1,0.1,0.1,0.2,0.1c0.2,0,0.3,0,0.4-0.1c0.1-0.1,0.2-0.2,0.3-0.3
			c0.3-0.4,0.7-0.9,1.1-1.2c0.4-0.4,0.8-0.7,1.2-1c0.4-0.3,0.8-0.5,1.1-0.7c0.4-0.2,0.7-0.3,0.9-0.3c0.2,0,0.3,0,0.3,0.1
			c0.1,0.1,0.6,0.2,0.7,0.3c0,0.1,0.5,0.3,0.5,0.4c0,0.1,0,0.3,0,0.4c-1,1.1-0.6,2.1-0.7,3c-0.1,0.9-0.4,1.8-0.5,2.7
			c-0.1,0.9-0.3,1.8-0.4,2.6c-0.1,0.9-0.3,1.8-0.5,2.7c-0.2,0.9-0.4,1.9-0.6,2.9c-0.2,1-0.5,2.2-0.8,3.4c-0.1,0.4-0.2,0.7-0.2,1.1
			c0,0.4-0.1,0.7-0.1,1.2c0,0.2,0.1,0.4,0.2,0.6c0.1,0.2,0.3,0.3,0.5,0.4c0.2,0.1,0.4,0.2,0.7,0.3c0.3,0.1,0.5,0.1,0.8,0.1
			c0.2,0,0.5,0,0.7-0.1c0.2,0,0.5-0.1,0.7-0.2c0.2-0.1,0.4-0.3,0.6-0.5c0.2-0.2,0.3-0.4,0.3-0.8c0.1-1,0.3-2.1,0.6-3.2
			c0.3-1.1,0.6-2.3,0.9-3.5c0.4-1.2,0.7-2.4,1.2-3.5c0.4-1.2,0.9-2.3,1.3-3.4c0.4-1.1,0.9-2.1,1.4-3c0.5-0.9,0.9-1.7,1.3-2.4
			c0.4-0.7,0.8-1.2,1.2-1.6c0.4-0.4,0.7-0.6,1-0.6c0.4,0,0.6,0.1,0.8,0.3c0.2,0.2,0.4,0.5,0.5,0.8c0.1,0.4,0.2,0.8,0.2,1.3
			c0,0.5,0,1.1,0,1.7c0,0.9-0.1,1.9-0.2,3.1c-0.1,1.1-0.3,2.2-0.5,3.4c-0.2,1.1-0.4,2.2-0.6,3.3c-0.2,1.1-0.4,2.1-0.6,3
			c-0.2,0.9-0.3,1.7-0.5,2.4c-0.1,0.7-0.2,1.1-0.2,1.4c0,0.4,0,0.7,0.1,1c0.1,0.3,0.2,0.5,0.4,0.7c0.2,0.2,0.3,0.3,0.6,0.4
			c0.2,0.1,0.4,0.1,0.6,0.1c0.2,0,0.5,0,0.7-0.1c0.2-0.1,0.5-0.1,0.7-0.3c0.2-0.1,0.4-0.3,0.6-0.5c0.2-0.2,0.3-0.4,0.4-0.7
			c0.2-1,0.4-2.1,0.6-3.3c0.2-1.2,0.4-2.3,0.7-3.5c0.2-1.2,0.5-2.4,0.8-3.5c0.3-1.2,0.6-2.3,0.9-3.4c0.3-1.1,0.7-2.1,1.1-3
			c0.4-0.9,0.8-1.7,1.2-2.4c0.4-0.7,0.9-1.2,1.4-1.6c0.5-0.4,1-0.6,1.5-0.6c0.3,0,0.5,0.1,0.7,0.2c0.2,0.1,0.3,0.3,0.4,0.6
			c0.1,0.3,0.2,0.6,0.2,1c0,0.4,0,0.8,0,1.3c0,0.8-0.1,1.6-0.2,2.4c-0.1,0.8-0.2,1.7-0.4,2.5c-0.2,0.9-0.3,1.7-0.5,2.6
			c-0.2,0.9-0.4,1.7-0.5,2.5c-0.2,0.8-0.3,1.6-0.5,2.4c-0.1,0.8-0.2,1.5-0.3,2.2c0,0.1,0,0.2,0,0.3c0,0.1,0,0.2,0,0.3
			c0,0.7,0.1,1.4,0.4,2c0.2,0.6,0.6,1.1,1,1.4c0.4,0.4,0.9,0.7,1.4,0.9c0.5,0.2,1.1,0.3,1.6,0.3c0.6,0,1.2-0.1,1.7-0.3
			c0.6-0.2,1.2-0.5,1.7-0.9c0.4-0.3,0.8-0.6,1.2-1c0.2,0.4,0.4,0.7,0.7,1c0.4,0.4,0.8,0.7,1.2,0.9c0.5,0.2,1,0.3,1.4,0.3
			c0.5,0,0.9-0.1,1.4-0.2c0.5-0.2,0.9-0.4,1.3-0.6c0.4-0.2,0.8-0.5,1.2-0.8C94.6,45.8,95,45.5,95.2,45.2z M121.6,39.6
			c0-0.3,0.1-0.7,0.1-1c0.1-0.3,0.2-0.7,0.3-1s0.3-0.6,0.5-0.9c0.2-0.3,0.5-0.5,0.8-0.6c0.3-0.2,0.7-0.2,1.1-0.2
			c0.2,0,0.5,0.1,0.6,0.4c0.2,0.3,0.3,0.7,0.3,1.1c0,0.3-0.1,0.7-0.4,1c-0.3,0.4-0.6,0.7-1,1c-0.4,0.3-0.8,0.5-1.2,0.7
			c-0.4,0.2-0.8,0.3-1.2,0.3C121.6,40.2,121.6,40,121.6,39.6z M113,35.9c0-0.2,0-0.4,0-0.7c0-0.3-0.3-0.6-0.3-1
			c0-0.4-0.1-0.8-0.1-1.3c0-0.5,0-1,0-1.5c0-0.2,0-0.7,0.1-1.3c0.1-0.6,0.1-1.2,0.2-2c0.1-0.7,0.2-1.5,0.4-2.3
			c0.2-0.8,0.3-1.5,0.5-2.2c0.2-0.7,0.4-1.2,0.7-1.6c0.3-0.4,0.6-0.6,0.9-0.6c0.2,0,0.3,0.1,0.4,0.3c0.1,0.2,0.1,0.6,0.1,1.2
			c0,0.4,0,1-0.1,1.7c-0.1,0.5-0.1,1.1-0.3,1.7c-0.1,0.6-0.3,1.2-0.5,1.9c-0.2,0.6-0.4,1.3-0.6,1.9c-0.2,0.6-0.1,1.2-0.3,1.8
			c-0.5,1.3-1.3,2.7-1.3,4V35.9z M104.7,41c0.2-0.6,0.5-1.3,0.8-1.9c0.4-0.6,0.8-1.2,1.3-1.8c0.5-0.5,1.1-1,1.8-1.3c0,0,0,0.1,0,0.3
			c0,0.2,0,0.5,0,0.8c0,0.3,0,0.7,0,1.1c0,0.4,0,0.8,0,1.2c0,0.4,0,0.7,0,1.1c0,0.3,0,0.5,0.1,0.7c-0.2,0.6-0.5,1.1-0.8,1.6
			c-0.1,0.2-0.3,0.4-0.4,0.6c-0.1,0.2-0.3,0.4-0.5,0.5c-0.2,0.1-0.3,0.3-0.5,0.4c-0.2,0.1-0.4,0.1-0.5,0.1c-0.4,0-0.7-0.1-0.9-0.2
			c-0.2-0.1-0.4-0.2-0.5-0.4c-0.1-0.2-0.2-0.4-0.3-0.6c0-0.2-0.1-0.4-0.1-0.6C104.4,42.2,104.5,41.6,104.7,41z M93.5,43.1
			c-0.2,0.5-0.5,0.9-0.8,1.2c-0.3,0.3-0.7,0.5-1,0.5c-0.2,0-0.4-0.1-0.6-0.2c-0.2-0.1-0.3-0.3-0.4-0.5c-0.1-0.2-0.2-0.4-0.2-0.7
			c0-0.2-0.1-0.5-0.1-0.8c0-0.5,0.1-0.9,0.2-1.5c0.1-0.5,0.3-1,0.5-1.5c0.2-0.5,0.5-1,0.8-1.5c0.3-0.5,0.6-0.9,1-1.2
			c0.4-0.4,0.7-0.6,1.1-0.9c0.4-0.2,0.8-0.3,1.2-0.3l-0.9,4.6c0,0.3-0.1,0.7-0.3,1.2C93.9,42.1,93.7,42.6,93.5,43.1z"/>
		<path fill="#ffffff" d="M81.2,84.3c3.6-0.8,6.1-2,7.3-3.6c1.2-1.5,1.8-4.3,1.8-8.2c0-5.8-0.9-10-2.6-12.6c-1.7-2.6-4-4.5-6.9-5.4
			c-2.8-0.9-7-1.5-12.5-1.5H52v68h19.2c7,0,11.7-0.6,13.9-1.4c2.3-0.8,4.1-2.4,5.2-4.6c1-2.2,1.7-5.7,1.7-10.2v-6.2
			c0-4.4-0.9-7.6-2.4-9.7C88.2,86.7,85.3,85.2,81.2,84.3z M75,102.8c0,2.7-0.5,4.4-1.2,5.1c-0.7,0.7-2.8,1.1-4.8,1.2V90.3
			c2,0.1,4.3,0.4,5,1c0.6,0.6,1,2.4,1,5.2V102.8z M73.4,78.5c-0.5,0.8-1.3,1.3-3,1.3c-0.4,0-0.5,0-1.5,0V64.9c2,0,2.7,0.2,3.3,0.4
			c0.6,0.2,1,0.8,1.4,1.6c0.4,0.8,0.5,2.3,0.5,4.4C74.2,75.3,73.9,77.7,73.4,78.5z"/>
		<path fill="#ffffff" d="M102.8,53l-8.9,68H112l1.1-12h6.2l0.9,12h17.9l-10-68H102.8z M112.8,97c0.5-7,1.6-15.4,3.4-28.2
			C117,80,117.9,89,118.8,97H112.8z"/>
		<path fill="#ffffff" d="M141.4,47.7c0.6,0,1.2-0.1,1.9-0.3c0.7-0.2,1.3-0.5,2-0.8c0.6-0.3,1.2-0.7,1.8-1.1
			c0.1-0.1,0.2-0.2,0.3-0.2c0,0.1,0,0.3,0,0.4c0,0.4,0.1,0.7,0.3,1c0.1,0.3,0.3,0.5,0.6,0.7c0.3,0.2,0.6,0.3,1,0.3
			c0.3,0,0.6-0.1,0.9-0.2c0.3-0.2,0.5-0.2,0.7-0.7L155,39h0.2c-0.1,0-0.2,1.4-0.3,2.1c-0.1,0.7-0.1,1.3-0.1,1.9
			c0,1.6,0.2,2.7,0.6,3.5c0.4,0.8,0.9,1.2,1.4,1.2c0.6,0,1.1-0.1,1.6-0.3c0.5-0.2,1-0.4,1.5-0.6c0.5-0.3,0.9-0.5,1.4-0.9
			c0.4-0.3,0.9-0.6,1.3-1l0.8-0.6l-0.3-3.5c-0.6,0.6-1.2,1.2-1.7,1.6c-0.2,0.2-0.5,0.4-0.7,0.6c-0.2,0.2-0.5,0.4-0.7,0.5
			c-0.2,0.1-0.4,0.3-0.7,0.4c-0.2,0.1-0.4,0.1-0.5,0.1c-0.3,0-0.6-0.2-0.8-0.6c-0.2-0.4-0.2-0.9-0.2-1.6c0-0.4,0-0.8,0.1-1.3
			c0-0.5,0.1-0.9,0.2-1.4c0.1-0.5,0.2-0.9,0.2-1.4c0.1-0.4,0.2-0.9,0.2-1.2c0.1-0.4,0.1-0.7,0.2-1c0-0.3,0.1-0.5,0.1-0.6
			c0-0.8-0.2-1.4-0.5-1.8c-0.3-0.4-0.7-0.7-1.2-0.7c-0.5,0-1,0.1-1.4,0.3c-0.4,0.2-0.8,0.6-1.1,1.1c-0.1,0.1-0.2,0.3-0.3,0.6
			c-0.1,0.3-0.3,0.6-0.5,0.9c-0.2,0.3-0.4,0.7-0.6,1.1c-0.2,0.4-0.4,0.7-0.6,1c-0.2,0.3-0.3,0.5-0.5,0.7c-0.1,0.3-0.2,0.4-0.3,0.4
			h-0.3c0,0,0-0.1,0-0.3c0-0.2,0.1-0.4,0.1-0.7c0-0.3,0.1-0.6,0.1-0.9c0.1-0.3,0.1-0.6,0.1-1c0-0.3,0.1-0.6,0.1-0.9
			c0-0.3,0-0.5,0-0.6c0-0.6-0.1-1-0.3-1.4c-0.2-0.3-0.6-0.5-1.2-0.5s-1,0.2-1.3,0.5c-0.3,0.3-0.5,0.7-0.7,1.2
			c-0.1,0.6-0.3,1.3-0.4,2.2c-0.2,0.9-0.3,1.7-0.4,2.7c-0.1,0.9-0.2,1.8-0.3,2.7c-0.1,0.1-0.1,0.1-0.2,0.2c-0.4,0.4-0.9,0.8-1.4,1.1
			c-0.5,0.4-0.9,0.7-1.4,0.9c-0.5,0.3-0.9,0.4-1.2,0.4c-0.3,0-0.5-0.1-0.6-0.4c-0.1-0.3-0.2-0.6-0.2-1.1c0-0.5,0.1-1,0.2-1.6
			c0.1-0.6,0.2-1.2,0.4-1.8c0.2-0.6,0.3-1.2,0.5-1.9c0.2-0.6,0.3-1.2,0.5-1.8c0.2-0.5,0.3-1,0.4-1.5c0.1-0.4,0.2-0.8,0.2-1
			c0-0.3-0.1-0.5-0.2-0.6c-0.2-0.2-0.4-0.2-0.9-0.2c-0.2,0-0.5,0-0.8,0.1c-0.3,0.1-0.6,0.1-0.9,0.3c-0.3,0.1-0.5,0.3-0.7,0.5
			c-0.2,0.2-0.4,0.4-0.4,0.7c-0.2,0.8-0.4,1.6-0.6,2.5c-0.2,0.9-0.5,1.8-0.7,2.8c-0.2,0.9-0.4,1.8-0.5,2.7c-0.1,0.9-0.2,1.6-0.2,2.3
			c0,0.5,0,0.9,0.1,1.3c0.1,0.4,0.3,0.7,0.5,1c0.2,0.3,0.5,0.5,0.9,0.6S140.9,47.7,141.4,47.7z"/>
	</g>
</g>
<g id="Layer_3">
	<g>
		<path fill="#ffffff" d="M144.2,30.9c0.5,0,1-0.1,1.4-0.2c0.4-0.2,0.7-0.4,0.9-0.6c0.2-0.3,0.4-0.6,0.5-0.9c0.1-0.3,0.2-0.7,0.2-1
			c0-0.4-0.1-0.7-0.2-1c-0.1-0.3-0.3-0.5-0.6-0.7c-0.2-0.2-0.5-0.3-0.8-0.4c-0.3-0.1-0.7-0.1-1-0.1c-0.6,0-1.1,0.1-1.4,0.3
			c-0.4,0.2-0.7,0.4-0.9,0.7c-0.2,0.3-0.4,0.5-0.5,0.8c-0.1,0.3-0.2,0.6-0.2,0.8c0,0.7,0.2,1.3,0.7,1.7
			C142.6,30.7,143.3,30.9,144.2,30.9z"/>
		<polygon fill="#ffffff" points="238,107 238,53 221,53 221,121 249,121 249,107 		"/>
		<path fill="#ffffff" d="M161.8,77.7c-2.7-1.6-4.4-3-4.9-4.1c-0.6-1.1-0.9-2.8-0.9-5.1c0-1.7,0.3-3,0.8-3.9
			c0.5-0.9,1.3-1.3,2.4-1.3c1,0,1.8,0.3,2.2,1c0.4,0.6,0.7,2.1,0.7,4.4V73h16v-1.9c0-5.3-0.5-9.1-1.5-11.3c-1-2.2-3.1-4.1-6.3-5.5
			c-3.2-1.5-7.1-2.2-11.6-2.2c-4.1,0-7.7,0.7-10.6,2c-2.9,1.3-5.1,3.2-6.4,5.6c-1.3,2.4-2,6.1-2,11.3c0,3.6,0.5,6.5,1.4,8.8
			c0.9,2.3,2.1,4.1,3.5,5.4c1.4,1.3,4.3,3.4,8.6,6.3c4.3,2.8,7.1,4.9,8.2,6.1c1.1,1.2,1.6,3.8,1.6,7.8c0,1.8-0.3,3.2-0.8,4.1
			c-0.6,0.9-1.4,1.4-2.6,1.4c-1.2,0-1.6-0.4-2.1-1.1c-0.5-0.7-0.4-2.3-0.4-4.9V97h-16v3.9c0,5,0.1,8.9,1.1,11.7c1,2.7,3,5,6.3,6.8
			c3.3,1.8,7.2,2.7,11.9,2.7c4.3,0,7.9-0.8,11.1-2.3c3.2-1.5,5.3-3.4,6.5-5.7c1.1-2.3,1.7-5.8,1.7-10.6c0-6.6-1-11.4-3-14.3
			C174.4,86.1,169.5,82.3,161.8,77.7z"/>
		<polygon fill="#ffffff" points="203,93 213,93 213,80 203,80 203,67 215,67 215,53 186,53 186,121 216,121 216,107 203,107 		"/>
		<path fill="#ffffff" d="M95.2,45.2c0.3,0.8,0.7,1.5,1.2,1.9c0.5,0.4,1,0.7,1.7,0.7c0.6,0,1.1-0.1,1.7-0.4c0.6-0.3,1.1-0.6,1.6-1
			c0.1-0.1,0.2-0.2,0.3-0.3c0,0,0,0,0,0c0.3,0.5,0.7,0.9,1.2,1.2c0.5,0.3,1.1,0.4,1.7,0.4c0.5,0,0.9-0.1,1.4-0.2
			c0.5-0.1,0.9-0.3,1.4-0.6c0.5-0.2,0.9-0.5,1.3-0.9c0.4-0.3,0.8-0.7,1.2-1.1c0.2,0.6,0.5,1.1,0.9,1.4c0.3,0.4,0.7,0.6,1,0.8
			c0.3,0.2,0.6,0.3,0.9,0.4c0.3,0.1,0.5,0.1,0.6,0.1c0.3,0,0.5,0,0.8-0.1c0.3-0.1,0.6-0.2,0.9-0.3c0.3-0.1,0.6-0.3,1-0.5
			c0.3-0.2,0.6-0.4,0.9-0.5c0.6-0.3,1.1-0.7,1.7-1.2c0.1,0.3,0.3,0.5,0.5,0.7c0.5,0.6,1.1,1.1,1.8,1.4c0.7,0.4,1.6,0.5,2.5,0.5
			c0.6,0,1.2-0.1,1.8-0.2c0.6-0.1,1.2-0.3,1.8-0.6c0.6-0.2,1.1-0.5,1.6-0.8c0.5-0.3,1-0.6,1.4-0.9c1-0.7,2-1.6,2.9-2.5l-2-2.1
			c-0.4,0.4-0.9,0.8-1.5,1.2c-0.6,0.4-1.2,0.8-1.8,1.2c-0.7,0.4-1.3,0.7-2,0.9c-0.7,0.2-1.3,0.4-2,0.4c-0.2,0-0.4,0-0.5-0.1
			c-0.2,0-0.3-0.1-0.5-0.2c-0.2-0.1-0.3-0.2-0.5-0.4c-0.1-0.2-0.3-0.4-0.5-0.7c0.9-0.2,1.7-0.6,2.5-1c0.8-0.4,1.4-0.9,2-1.5
			c0.6-0.6,1-1.2,1.3-1.8s0.5-1.3,0.5-1.9c0-0.6-0.1-1.1-0.3-1.6c-0.2-0.5-0.5-0.9-0.9-1.2c-0.4-0.3-0.8-0.6-1.3-0.8
			c-0.5-0.2-1-0.3-1.6-0.3c-0.7,0-1.4,0.1-1.9,0.4c-0.6,0.3-1.1,0.6-1.6,1c-0.5,0.4-0.9,0.9-1.2,1.5c-0.4,0.6-0.6,1.2-0.9,1.8
			c-0.2,0.6-0.4,1.3-0.5,1.9c-0.1,0.6-0.2,1.3-0.2,1.8c0,0.2,0,0.4,0,0.6c-0.3,0.2-0.6,0.4-0.8,0.6c-0.2,0.2-0.5,0.3-0.8,0.5
			c-0.3,0.2-0.5,0.3-0.8,0.5c-0.3,0.1-0.5,0.2-0.7,0.3c-0.2,0.1-0.4,0.1-0.6,0.1c-0.2,0-0.4-0.1-0.5-0.2c-0.1-0.1-0.3-0.3-0.3-0.5
			c-0.1-0.2-0.1-0.5-0.2-0.7c0-0.3-0.1-0.6-0.1-0.9c0-0.2,0-0.5,0-0.7c0-0.3,0.1-0.5,0.1-0.7c0-0.2,0.1-0.5,0.1-0.7
			c0.1-0.2,0.1-0.4,0.2-0.5c0.5-1.3,1.1-2.6,1.7-3.8c0.6-1.2,1.1-2.4,1.6-3.7c0.5-1.2,0.9-2.5,1.3-3.8c0.4-1.3,0.6-2.7,0.7-4.1
			c0-0.4,0-0.8,0-1.1c0-0.6,0-1.2-0.1-1.7c-0.1-0.6-0.2-1-0.5-1.5c-0.2-0.4-0.5-0.8-0.8-1c-0.3-0.3-0.8-0.4-1.2-0.4
			c-0.7,0-1.3,0.2-1.9,0.6c-0.6,0.4-1.2,1-1.7,1.7c-0.5,0.7-1.1,1.6-1.5,2.6c-0.5,1-0.9,2.1-1.2,3.2c-0.3,1.2-0.6,2.4-0.8,3.7
			c-0.2,1.3-0.3,2.6-0.4,3.9c-0.8,0.1-1.5,0.3-2.2,0.5c-0.7,0.3-1.3,0.7-1.9,1.1c-0.6,0.4-1.1,0.9-1.6,1.5c-0.5,0.6-0.9,1.2-1.2,1.8
			c-0.3,0.6-0.6,1.3-0.7,2c-0.2,0.7-0.3,1.3-0.3,2c0,0.1,0,0.3,0,0.4c0,0,0,0,0,0c-0.2,0.2-0.5,0.4-0.7,0.6
			c-0.2,0.2-0.5,0.3-0.7,0.4c-0.2,0.1-0.5,0.2-0.7,0.2c-0.3,0-0.5-0.1-0.6-0.4c-0.1-0.3-0.1-0.7-0.1-1.1c0-0.6,0.1-1.2,0.2-1.8
			c0.1-0.6,0.2-1.3,0.3-1.9c0.1-0.6,0.2-1.3,0.3-1.9c0.1-0.6,0.2-1.2,0.2-1.6c0-0.3,0-0.6-0.1-0.8c-0.1-0.2-0.1-0.3-0.2-0.4
			c-0.1-0.1-0.2-0.2-0.4-0.2c-0.1,0-0.3,0-0.4,0c-0.1,0-0.2,0-0.3,0c-0.1,0-0.2,0-0.3,0c-0.1,0-0.3,0-0.4,0c-0.1,0-0.3,0-0.4-0.1
			c-0.1-0.1-0.2-0.1-0.3-0.2c-0.1-0.1-0.2-0.2-0.3-0.3c-0.1-0.1-0.2-0.2-0.3-0.3c-0.1-0.1-0.3-0.1-0.6-0.1c-0.7,0-1.4,0.2-2.1,0.5
			c-0.7,0.3-1.3,0.7-2,1.2c-0.6,0.5-1.2,1.1-1.7,1.8c-0.5,0.7-1,1.4-1.4,2.2c-0.4,0.8-0.7,1.6-0.9,2.4c0,0.1,0,0.2-0.1,0.4
			c-0.2,0.2-0.3,0.4-0.5,0.6c-0.2,0.3-0.5,0.6-0.7,0.8c-0.3,0.3-0.5,0.5-0.8,0.7c-0.3,0.2-0.5,0.4-0.8,0.5c-0.3,0.1-0.5,0.2-0.8,0.2
			c-0.4,0-0.7-0.1-1-0.4c-0.2-0.3-0.3-0.7-0.3-1.3c0-0.5,0.1-1.1,0.2-1.7c0.1-0.7,0.3-1.4,0.4-2.2c0.2-0.8,0.4-1.6,0.6-2.5
			c0.2-0.9,0.4-1.8,0.6-2.7c0.2-0.9,0.3-1.8,0.4-2.8c0.1-0.9,0.2-1.8,0.2-2.7c0-0.9-0.1-1.9-0.3-2.7c-0.2-0.9-0.4-1.6-0.8-2.2
			c-0.3-0.6-0.7-1.1-1.2-1.5c-0.5-0.4-1.1-0.6-1.7-0.6c-0.9,0-1.8,0.2-2.6,0.7c-0.8,0.5-1.6,1.1-2.4,2c-0.7,0.9-1.4,1.9-2,3.1
			c-0.6,1.2-1.1,2.6-1.5,4.1l-0.3,0c0.1-0.7,0.2-1.4,0.3-2c0-0.3,0.1-0.5,0.1-0.8c0-0.3,0.1-0.5,0.1-0.7c0-0.2,0-0.4,0.1-0.6
			c0-0.2,0-0.3,0-0.4c0-0.9-0.1-1.7-0.2-2.4c-0.2-0.7-0.4-1.2-0.7-1.6c-0.3-0.4-0.6-0.8-1-1c-0.4-0.2-0.8-0.3-1.3-0.3
			c-0.6,0-1.3,0.2-1.9,0.5c-0.7,0.4-1.3,0.8-1.9,1.5c-0.6,0.6-1.3,1.4-1.9,2.3c-0.6,0.9-1.2,1.9-1.7,3c-0.5,1.1-1,2.3-1.5,3.5
			c-0.4,1.3-0.8,2.6-1.2,4c0.2-0.7,0.3-1.5,0.5-2.4c0.2-0.9,0.3-1.7,0.5-2.6c0.1-0.9,0.3-1.7,0.3-2.4c0.1-0.8,0.1-1.4,0.1-2
			c0-0.8,0-1.4-0.1-2.1c-0.1-0.6-0.3-1.1-0.5-1.6c-0.2-0.4-0.6-0.8-1-1c-0.4-0.2-1-0.4-1.6-0.4c-0.5,0-1,0.1-1.6,0.3
			c-0.5,0.2-1.1,0.6-1.6,1c-0.5,0.5-1,1.1-1.5,2c-0.5,0.8-0.9,1.8-1.3,3.1c0,0-0.1,0.1-0.1,0.2c0,0.1,0,0.2,0,0.4
			c0,0.1,0.1,0.3,0.1,0.4c0,0.1,0.1,0.2,0.2,0.3c0.1,0.1,0.1,0.1,0.2,0.1c0.2,0,0.3,0,0.4-0.1c0.1-0.1,0.2-0.2,0.3-0.3
			c0.3-0.4,0.7-0.9,1.1-1.2c0.4-0.4,0.8-0.7,1.2-1c0.4-0.3,0.8-0.5,1.1-0.7c0.4-0.2,0.7-0.3,0.9-0.3c0.2,0,0.3,0,0.3,0.1
			c0.1,0.1,0.6,0.2,0.7,0.3c0,0.1,0.5,0.3,0.5,0.4c0,0.1,0,0.3,0,0.4c-1,1.1-0.6,2.1-0.7,3c-0.1,0.9-0.4,1.8-0.5,2.7
			c-0.1,0.9-0.3,1.8-0.4,2.6c-0.1,0.9-0.3,1.8-0.5,2.7c-0.2,0.9-0.4,1.9-0.6,2.9c-0.2,1-0.5,2.2-0.8,3.4c-0.1,0.4-0.2,0.7-0.2,1.1
			c0,0.4-0.1,0.7-0.1,1.2c0,0.2,0.1,0.4,0.2,0.6c0.1,0.2,0.3,0.3,0.5,0.4c0.2,0.1,0.4,0.2,0.7,0.3c0.3,0.1,0.5,0.1,0.8,0.1
			c0.2,0,0.5,0,0.7-0.1c0.2,0,0.5-0.1,0.7-0.2c0.2-0.1,0.4-0.3,0.6-0.5c0.2-0.2,0.3-0.4,0.3-0.8c0.1-1,0.3-2.1,0.6-3.2
			c0.3-1.1,0.6-2.3,0.9-3.5c0.4-1.2,0.7-2.4,1.2-3.5c0.4-1.2,0.9-2.3,1.3-3.4c0.4-1.1,0.9-2.1,1.4-3c0.5-0.9,0.9-1.7,1.3-2.4
			c0.4-0.7,0.8-1.2,1.2-1.6c0.4-0.4,0.7-0.6,1-0.6c0.4,0,0.6,0.1,0.8,0.3c0.2,0.2,0.4,0.5,0.5,0.8c0.1,0.4,0.2,0.8,0.2,1.3
			c0,0.5,0,1.1,0,1.7c0,0.9-0.1,1.9-0.2,3.1c-0.1,1.1-0.3,2.2-0.5,3.4c-0.2,1.1-0.4,2.2-0.6,3.3c-0.2,1.1-0.4,2.1-0.6,3
			c-0.2,0.9-0.3,1.7-0.5,2.4c-0.1,0.7-0.2,1.1-0.2,1.4c0,0.4,0,0.7,0.1,1c0.1,0.3,0.2,0.5,0.4,0.7c0.2,0.2,0.3,0.3,0.6,0.4
			c0.2,0.1,0.4,0.1,0.6,0.1c0.2,0,0.5,0,0.7-0.1c0.2-0.1,0.5-0.1,0.7-0.3c0.2-0.1,0.4-0.3,0.6-0.5c0.2-0.2,0.3-0.4,0.4-0.7
			c0.2-1,0.4-2.1,0.6-3.3c0.2-1.2,0.4-2.3,0.7-3.5c0.2-1.2,0.5-2.4,0.8-3.5c0.3-1.2,0.6-2.3,0.9-3.4c0.3-1.1,0.7-2.1,1.1-3
			c0.4-0.9,0.8-1.7,1.2-2.4c0.4-0.7,0.9-1.2,1.4-1.6c0.5-0.4,1-0.6,1.5-0.6c0.3,0,0.5,0.1,0.7,0.2c0.2,0.1,0.3,0.3,0.4,0.6
			c0.1,0.3,0.2,0.6,0.2,1c0,0.4,0,0.8,0,1.3c0,0.8-0.1,1.6-0.2,2.4c-0.1,0.8-0.2,1.7-0.4,2.5c-0.2,0.9-0.3,1.7-0.5,2.6
			c-0.2,0.9-0.4,1.7-0.5,2.5c-0.2,0.8-0.3,1.6-0.5,2.4c-0.1,0.8-0.2,1.5-0.3,2.2c0,0.1,0,0.2,0,0.3c0,0.1,0,0.2,0,0.3
			c0,0.7,0.1,1.4,0.4,2c0.2,0.6,0.6,1.1,1,1.4c0.4,0.4,0.9,0.7,1.4,0.9c0.5,0.2,1.1,0.3,1.6,0.3c0.6,0,1.2-0.1,1.7-0.3
			c0.6-0.2,1.2-0.5,1.7-0.9c0.4-0.3,0.8-0.6,1.2-1c0.2,0.4,0.4,0.7,0.7,1c0.4,0.4,0.8,0.7,1.2,0.9c0.5,0.2,1,0.3,1.4,0.3
			c0.5,0,0.9-0.1,1.4-0.2c0.5-0.2,0.9-0.4,1.3-0.6c0.4-0.2,0.8-0.5,1.2-0.8C94.6,45.8,95,45.5,95.2,45.2z M121.6,39.6
			c0-0.3,0.1-0.7,0.1-1c0.1-0.3,0.2-0.7,0.3-1s0.3-0.6,0.5-0.9c0.2-0.3,0.5-0.5,0.8-0.6c0.3-0.2,0.7-0.2,1.1-0.2
			c0.2,0,0.5,0.1,0.6,0.4c0.2,0.3,0.3,0.7,0.3,1.1c0,0.3-0.1,0.7-0.4,1c-0.3,0.4-0.6,0.7-1,1c-0.4,0.3-0.8,0.5-1.2,0.7
			c-0.4,0.2-0.8,0.3-1.2,0.3C121.6,40.2,121.6,40,121.6,39.6z M113,35.9c0-0.2,0-0.4,0-0.7c0-0.3-0.3-0.6-0.3-1
			c0-0.4-0.1-0.8-0.1-1.3c0-0.5,0-1,0-1.5c0-0.2,0-0.7,0.1-1.3c0.1-0.6,0.1-1.2,0.2-2c0.1-0.7,0.2-1.5,0.4-2.3
			c0.2-0.8,0.3-1.5,0.5-2.2c0.2-0.7,0.4-1.2,0.7-1.6c0.3-0.4,0.6-0.6,0.9-0.6c0.2,0,0.3,0.1,0.4,0.3c0.1,0.2,0.1,0.6,0.1,1.2
			c0,0.4,0,1-0.1,1.7c-0.1,0.5-0.1,1.1-0.3,1.7c-0.1,0.6-0.3,1.2-0.5,1.9c-0.2,0.6-0.4,1.3-0.6,1.9c-0.2,0.6-0.1,1.2-0.3,1.8
			c-0.5,1.3-1.3,2.7-1.3,4V35.9z M104.7,41c0.2-0.6,0.5-1.3,0.8-1.9c0.4-0.6,0.8-1.2,1.3-1.8c0.5-0.5,1.1-1,1.8-1.3c0,0,0,0.1,0,0.3
			c0,0.2,0,0.5,0,0.8c0,0.3,0,0.7,0,1.1c0,0.4,0,0.8,0,1.2c0,0.4,0,0.7,0,1.1c0,0.3,0,0.5,0.1,0.7c-0.2,0.6-0.5,1.1-0.8,1.6
			c-0.1,0.2-0.3,0.4-0.4,0.6c-0.1,0.2-0.3,0.4-0.5,0.5c-0.2,0.1-0.3,0.3-0.5,0.4c-0.2,0.1-0.4,0.1-0.5,0.1c-0.4,0-0.7-0.1-0.9-0.2
			c-0.2-0.1-0.4-0.2-0.5-0.4c-0.1-0.2-0.2-0.4-0.3-0.6c0-0.2-0.1-0.4-0.1-0.6C104.4,42.2,104.5,41.6,104.7,41z M93.5,43.1
			c-0.2,0.5-0.5,0.9-0.8,1.2c-0.3,0.3-0.7,0.5-1,0.5c-0.2,0-0.4-0.1-0.6-0.2c-0.2-0.1-0.3-0.3-0.4-0.5c-0.1-0.2-0.2-0.4-0.2-0.7
			c0-0.2-0.1-0.5-0.1-0.8c0-0.5,0.1-0.9,0.2-1.5c0.1-0.5,0.3-1,0.5-1.5c0.2-0.5,0.5-1,0.8-1.5c0.3-0.5,0.6-0.9,1-1.2
			c0.4-0.4,0.7-0.6,1.1-0.9c0.4-0.2,0.8-0.3,1.2-0.3l-0.9,4.6c0,0.3-0.1,0.7-0.3,1.2C93.9,42.1,93.7,42.6,93.5,43.1z"/>
		<path fill="#ffffff" d="M81.2,84.3c3.6-0.8,6.1-2,7.3-3.6c1.2-1.5,1.8-4.3,1.8-8.2c0-5.8-0.9-10-2.6-12.6c-1.7-2.6-4-4.5-6.9-5.4
			c-2.8-0.9-7-1.5-12.5-1.5H52v68h19.2c7,0,11.7-0.6,13.9-1.4c2.3-0.8,4.1-2.4,5.2-4.6c1-2.2,1.7-5.7,1.7-10.2v-6.2
			c0-4.4-0.9-7.6-2.4-9.7C88.2,86.7,85.3,85.2,81.2,84.3z M75,102.8c0,2.7-0.5,4.4-1.2,5.1c-0.7,0.7-2.8,1.1-4.8,1.2V90.3
			c2,0.1,4.3,0.4,5,1c0.6,0.6,1,2.4,1,5.2V102.8z M73.4,78.5c-0.5,0.8-1.3,1.3-3,1.3c-0.4,0-0.5,0-1.5,0V64.9c2,0,2.7,0.2,3.3,0.4
			c0.6,0.2,1,0.8,1.4,1.6c0.4,0.8,0.5,2.3,0.5,4.4C74.2,75.3,73.9,77.7,73.4,78.5z"/>
		<path fill="#ffffff" d="M102.8,53l-8.9,68H112l1.1-12h6.2l0.9,12h17.9l-10-68H102.8z M112.8,97c0.5-7,1.6-15.4,3.4-28.2
			C117,80,117.9,89,118.8,97H112.8z"/>
		<path fill="#ffffff" d="M141.4,47.7c0.6,0,1.2-0.1,1.9-0.3c0.7-0.2,1.3-0.5,2-0.8c0.6-0.3,1.2-0.7,1.8-1.1
			c0.1-0.1,0.2-0.2,0.3-0.2c0,0.1,0,0.3,0,0.4c0,0.4,0.1,0.7,0.3,1c0.1,0.3,0.3,0.5,0.6,0.7c0.3,0.2,0.6,0.3,1,0.3
			c0.3,0,0.6-0.1,0.9-0.2c0.3-0.2,0.5-0.2,0.7-0.7L155,39h0.2c-0.1,0-0.2,1.4-0.3,2.1c-0.1,0.7-0.1,1.3-0.1,1.9
			c0,1.6,0.2,2.7,0.6,3.5c0.4,0.8,0.9,1.2,1.4,1.2c0.6,0,1.1-0.1,1.6-0.3c0.5-0.2,1-0.4,1.5-0.6c0.5-0.3,0.9-0.5,1.4-0.9
			c0.4-0.3,0.9-0.6,1.3-1l0.8-0.6l-0.3-3.5c-0.6,0.6-1.2,1.2-1.7,1.6c-0.2,0.2-0.5,0.4-0.7,0.6c-0.2,0.2-0.5,0.4-0.7,0.5
			c-0.2,0.1-0.4,0.3-0.7,0.4c-0.2,0.1-0.4,0.1-0.5,0.1c-0.3,0-0.6-0.2-0.8-0.6c-0.2-0.4-0.2-0.9-0.2-1.6c0-0.4,0-0.8,0.1-1.3
			c0-0.5,0.1-0.9,0.2-1.4c0.1-0.5,0.2-0.9,0.2-1.4c0.1-0.4,0.2-0.9,0.2-1.2c0.1-0.4,0.1-0.7,0.2-1c0-0.3,0.1-0.5,0.1-0.6
			c0-0.8-0.2-1.4-0.5-1.8c-0.3-0.4-0.7-0.7-1.2-0.7c-0.5,0-1,0.1-1.4,0.3c-0.4,0.2-0.8,0.6-1.1,1.1c-0.1,0.1-0.2,0.3-0.3,0.6
			c-0.1,0.3-0.3,0.6-0.5,0.9c-0.2,0.3-0.4,0.7-0.6,1.1c-0.2,0.4-0.4,0.7-0.6,1c-0.2,0.3-0.3,0.5-0.5,0.7c-0.1,0.3-0.2,0.4-0.3,0.4
			h-0.3c0,0,0-0.1,0-0.3c0-0.2,0.1-0.4,0.1-0.7c0-0.3,0.1-0.6,0.1-0.9c0.1-0.3,0.1-0.6,0.1-1c0-0.3,0.1-0.6,0.1-0.9
			c0-0.3,0-0.5,0-0.6c0-0.6-0.1-1-0.3-1.4c-0.2-0.3-0.6-0.5-1.2-0.5s-1,0.2-1.3,0.5c-0.3,0.3-0.5,0.7-0.7,1.2
			c-0.1,0.6-0.3,1.3-0.4,2.2c-0.2,0.9-0.3,1.7-0.4,2.7c-0.1,0.9-0.2,1.8-0.3,2.7c-0.1,0.1-0.1,0.1-0.2,0.2c-0.4,0.4-0.9,0.8-1.4,1.1
			c-0.5,0.4-0.9,0.7-1.4,0.9c-0.5,0.3-0.9,0.4-1.2,0.4c-0.3,0-0.5-0.1-0.6-0.4c-0.1-0.3-0.2-0.6-0.2-1.1c0-0.5,0.1-1,0.2-1.6
			c0.1-0.6,0.2-1.2,0.4-1.8c0.2-0.6,0.3-1.2,0.5-1.9c0.2-0.6,0.3-1.2,0.5-1.8c0.2-0.5,0.3-1,0.4-1.5c0.1-0.4,0.2-0.8,0.2-1
			c0-0.3-0.1-0.5-0.2-0.6c-0.2-0.2-0.4-0.2-0.9-0.2c-0.2,0-0.5,0-0.8,0.1c-0.3,0.1-0.6,0.1-0.9,0.3c-0.3,0.1-0.5,0.3-0.7,0.5
			c-0.2,0.2-0.4,0.4-0.4,0.7c-0.2,0.8-0.4,1.6-0.6,2.5c-0.2,0.9-0.5,1.8-0.7,2.8c-0.2,0.9-0.4,1.8-0.5,2.7c-0.1,0.9-0.2,1.6-0.2,2.3
			c0,0.5,0,0.9,0.1,1.3c0.1,0.4,0.3,0.7,0.5,1c0.2,0.3,0.5,0.5,0.9,0.6S140.9,47.7,141.4,47.7z"/>
	</g>
</g>
</svg>
