<?xml version="1.0" encoding="utf-8"?>
<svg xmlns="http://www.w3.org/2000/svg" viewBox="0 0 640 400">
    <defs>
        <style>.cls-1{fill:#b3b3b3;}.cls-2{fill:#1a1a1a;}</style>
    </defs>
    <title>Map Placeholder</title>
    <g id="bg">
        <rect class="cls-1" width="640" height="400"/>
    </g>
    <g id="Layer_1" data-name="Layer 1">
        <path class="cls-2" d="M320.44,266H298.56A12.63,12.63,0,0,1,320.44,266Z"/>
        <path class="cls-2" d="M320.46,266h21.88A12.63,12.63,0,0,0,320.46,266Z"/>
        <path class="cls-2"
              d="M363.36,200.45h.24c0-.44.07-.83.07-1.27h-.38c-.82-7.22-2.85-16.54-6.12-23.55-2.8-6,3.52-12.33-1.39-21.55-10.08,10.84-26.58,9.41-35.85,9.41s-25.73,1.41-35.81-9.44c-4.91,9.22,1.44,15.54-1.36,21.52a72.32,72.32,0,0,0-6.25,24.87,122.09,122.09,0,0,0,2.65,32.49c10.88,1,27.18,26,27.18,26l5.58-4.93v0l8,8.46,8-8.37,5.71,4.8s16.3-25,27.18-26C363.07,223,363.79,210.07,363.36,200.45ZM336.2,172.24a15.23,15.23,0,1,1-8.37,27.95,8.92,8.92,0,0,0,.23-2c0-5.53-2.74-9.23-7.05-9.73,0-.34,0-.68,0-1A15.25,15.25,0,0,1,336.2,172.24Zm-32.48,0A15.25,15.25,0,0,1,319,187.47c0,.35,0,.69,0,1-4.32.49-7.05,4.2-7.05,9.73a8.92,8.92,0,0,0,.23,2,15.23,15.23,0,1,1-8.36-27.95Zm16.2,35.47c-1.58-1-6.13-4.44-6.12-9.48,0-8.12,6.14-7.81,6.14-7.81s6.1-.3,6.1,7.81C326.05,203.27,321.5,206.69,319.93,207.71Z"/>
        <circle class="cls-2" cx="303.73" cy="182.47" r="6.18"/>
        <circle class="cls-2" cx="336.2" cy="182.47" r="6.18"/>
        <path class="cls-2"
              d="M195.65,263.94a12,12,0,0,0-12.11,11.83c0,8.6,11.24,19.08,11.72,19.52a.52.52,0,0,0,.72,0c.48-.45,11.69-11.19,11.69-19.52A11.79,11.79,0,0,0,195.65,263.94Zm0,15.69a4.17,4.17,0,1,1,4.17-4.17A4.17,4.17,0,0,1,195.65,279.63Z"/>
        <path class="cls-2"
              d="M559,82a10.37,10.37,0,0,0-10.48,10.23c0,7.45,9.73,16.51,10.14,16.89a.45.45,0,0,0,.62,0c.41-.39,10.11-9.68,10.11-16.89A10.21,10.21,0,0,0,559,82Zm0,13.57A3.61,3.61,0,1,1,562.61,92,3.61,3.61,0,0,1,559,95.57Z"/>
        <path class="cls-2"
              d="M496.44,295.43a16.35,16.35,0,0,0-16.52,16.14c0,11.74,15.34,26,16,26.64a.72.72,0,0,0,1,0c.65-.62,15.95-15.26,15.95-26.63A16.09,16.09,0,0,0,496.44,295.43Zm0,21.4a5.69,5.69,0,1,1,5.69-5.69A5.69,5.69,0,0,1,496.44,316.83Z"/>
        <path class="cls-2"
              d="M94.35,61.45a20.23,20.23,0,0,0-20.44,20c0,14.52,19,32.2,19.78,32.95a.89.89,0,0,0,1.21,0c.81-.76,19.72-18.88,19.72-32.94A19.9,19.9,0,0,0,94.35,61.45Zm0,26.47a7,7,0,1,1,7-7A7,7,0,0,1,94.35,87.92Z"/>
        <path class="cls-2"
              d="M311,97.85a15.38,15.38,0,0,1,8.5-2.23,18.3,18.3,0,0,1,11,3.16q4.38,3.16,4.38,9.37a10.6,10.6,0,0,1-1.9,6.42,21.86,21.86,0,0,1-4.27,4l-2.07,1.61a6.3,6.3,0,0,0-2.25,3.08,13,13,0,0,0-.38,3.46H316a23.06,23.06,0,0,1,.93-6.84q.76-1.89,3.91-4.35L323,113.9a7.46,7.46,0,0,0,1.69-1.73,5.91,5.91,0,0,0,1.17-3.54,6.85,6.85,0,0,0-1.3-4.06q-1.3-1.83-4.75-1.83T315,105a8.7,8.7,0,0,0-1.42,4.69h-8.47Q305.5,101.33,311,97.85Zm4.86,32.93h8.76v8.47h-8.76Z"/>
    </g>
</svg>
