<?xml version="1.0" encoding="utf-8"?>
<!-- Generator: Adobe Illustrator 21.0.0, SVG Export Plug-In . SVG Version: 6.00 Build 0)  -->
<!DOCTYPE svg PUBLIC "-//W3C//DTD SVG 1.1//EN" "http://www.w3.org/Graphics/SVG/1.1/DTD/svg11.dtd">
<svg version="1.1" id="Layer_1" xmlns="http://www.w3.org/2000/svg" xmlns:xlink="http://www.w3.org/1999/xlink" x="0px" y="0px"
	 viewBox="0 0 640 400" style="enable-background:new 0 0 640 400;" xml:space="preserve">
<style type="text/css">
	.st0{fill:#F2F2F2;}
	.st1{fill:#1A1A1A;}
</style>
<title>Map Placeholder</title>
<g id="bg">
	<rect class="st0" width="640" height="400"/>
</g>
<g id="Layer_1_1_">
	<path class="st1" d="M320.4,246h-21.9c3.5-6,11.2-8.1,17.3-4.6C317.7,242.5,319.3,244.1,320.4,246z"/>
	<path class="st1" d="M320.5,246h21.9c-3.5-6-11.2-8.1-17.3-4.6C323.2,242.5,321.6,244.1,320.5,246z"/>
	<path class="st1" d="M363.4,180.4h0.2c0-0.4,0.1-0.8,0.1-1.3h-0.4c-0.8-7.2-2.9-16.5-6.1-23.6c-2.8-6,3.5-12.3-1.4-21.6
		c-10.1,10.8-26.6,9.4-35.9,9.4s-25.7,1.4-35.8-9.4c-4.9,9.2,1.4,15.5-1.4,21.5c-3.5,7.9-5.7,16.3-6.2,24.9
		c-0.6,10.9,0.3,21.8,2.6,32.5c10.9,1,27.2,26,27.2,26l5.6-4.9l0,0l8,8.5l8-8.4l5.7,4.8c0,0,16.3-25,27.2-26
		C363.1,203,363.8,190.1,363.4,180.4z M336.2,152.2c8.4,0,15.2,6.8,15.2,15.2c0,8.4-6.8,15.2-15.2,15.2c-3,0-5.9-0.9-8.4-2.5
		c0.2-0.7,0.2-1.3,0.2-2c0-5.5-2.7-9.2-7-9.7c0-0.3,0-0.7,0-1C321,159.1,327.8,152.3,336.2,152.2z M303.7,152.2
		c8.4,0,15.3,6.8,15.3,15.2c0,0,0,0,0,0c0,0.4,0,0.7,0,1c-4.3,0.5-7,4.2-7,9.7c0,0.7,0.1,1.3,0.2,2c-7,4.6-16.5,2.7-21.1-4.3
		c-4.6-7-2.7-16.5,4.3-21.1c2.5-1.6,5.4-2.5,8.4-2.5L303.7,152.2z M319.9,187.7c-1.6-1-6.1-4.4-6.1-9.5c0-8.1,6.1-7.8,6.1-7.8
		s6.1-0.3,6.1,7.8C326,183.3,321.5,186.7,319.9,187.7L319.9,187.7z"/>
	<circle class="st1" cx="303.7" cy="162.5" r="6.2"/>
	<circle class="st1" cx="336.2" cy="162.5" r="6.2"/>
	<path class="st1" d="M195.6,243.9c-6.6-0.1-12,5.2-12.1,11.8c0,8.6,11.2,19.1,11.7,19.5c0.2,0.2,0.5,0.2,0.7,0
		c0.5-0.5,11.7-11.2,11.7-19.5c0-6.5-5.2-11.8-11.7-11.8C195.8,243.9,195.7,243.9,195.6,243.9z M195.6,259.6c-2.3,0-4.2-1.9-4.2-4.2
		c0-2.3,1.9-4.2,4.2-4.2s4.2,1.9,4.2,4.2C199.8,257.8,198,259.6,195.6,259.6C195.6,259.6,195.6,259.6,195.6,259.6z"/>
	<path class="st1" d="M559,62c-5.7-0.1-10.4,4.5-10.5,10.2c0,7.4,9.7,16.5,10.1,16.9c0.2,0.2,0.4,0.2,0.6,0
		c0.4-0.4,10.1-9.7,10.1-16.9c0-5.6-4.5-10.2-10.2-10.2C559.1,62,559.1,62,559,62z M559,75.6c-2,0-3.6-1.6-3.6-3.6
		c0-2,1.6-3.6,3.6-3.6c2,0,3.6,1.6,3.6,3.6c0,0,0,0,0,0C562.6,74,561,75.6,559,75.6z"/>
	<path class="st1" d="M496.4,275.4c-9-0.1-16.4,7.1-16.5,16.1c0,11.7,15.3,26,16,26.6c0.3,0.3,0.7,0.3,1,0
		c0.6-0.6,15.9-15.3,15.9-26.6c0-8.9-7.1-16.1-16-16.2C496.7,275.4,496.6,275.4,496.4,275.4z M496.4,296.8c-3.1,0-5.7-2.5-5.7-5.7
		s2.5-5.7,5.7-5.7c3.1,0,5.7,2.5,5.7,5.7S499.6,296.8,496.4,296.8L496.4,296.8z"/>
	<path class="st1" d="M94.3,41.5c-11.2-0.1-20.3,8.8-20.4,20c0,14.5,19,32.2,19.8,32.9c0.3,0.3,0.9,0.3,1.2,0
		c0.8-0.8,19.7-18.9,19.7-32.9c0.1-11-8.8-20-19.8-20C94.7,41.4,94.5,41.4,94.3,41.5z M94.3,67.9c-3.9,0-7-3.1-7-7s3.1-7,7-7
		s7,3.1,7,7S98.2,67.9,94.3,67.9z"/>
	<path class="st1" d="M311,77.8c2.6-1.6,5.5-2.3,8.5-2.2c3.9-0.1,7.8,1,11,3.2c2.9,2.1,4.4,5.2,4.4,9.4c0.1,2.3-0.6,4.5-1.9,6.4
		c-1.2,1.5-2.7,2.9-4.3,4l-2.1,1.6c-1.1,0.8-1.8,1.8-2.2,3.1c-0.3,1.1-0.4,2.3-0.4,3.5h-8c0-2.3,0.3-4.6,0.9-6.8
		c0.5-1.3,1.8-2.7,3.9-4.3l2.2-1.6c0.7-0.5,1.2-1.1,1.7-1.7c0.8-1,1.2-2.3,1.2-3.5c0-1.5-0.4-2.9-1.3-4.1c-0.9-1.2-2.5-1.8-4.8-1.8
		c-2.3,0-3.9,0.8-4.8,2.3c-0.9,1.4-1.4,3-1.4,4.7h-8.5C305.4,84.1,307.3,80.2,311,77.8z M315.9,110.8h8.8v8.5h-8.8V110.8z"/>
</g>
</svg>
