<?xml version="1.0" encoding="utf-8"?>
<!-- Generator: Adobe Illustrator 16.0.0, SVG Export Plug-In . SVG Version: 6.00 Build 0)  -->
<!DOCTYPE svg PUBLIC "-//W3C//DTD SVG 1.1//EN" "http://www.w3.org/Graphics/SVG/1.1/DTD/svg11.dtd">
<svg version="1.1" id="Layer_1" xmlns="http://www.w3.org/2000/svg" xmlns:xlink="http://www.w3.org/1999/xlink" x="0px" y="0px"
	 width="64px" height="64px" viewBox="0 0 64 64" enable-background="new 0 0 64 64" xml:space="preserve">
<path class="tag-color" d="M44.113,2.815C43.961,2.324,43.57,2,43.137,2H20.864c-0.436,0-0.824,0.324-0.977,0.815
	c-1.938,6.265-2.565,13.192-1.864,20.601c0.572,6.044,1.912,11.054,2.633,13.746l0.006,0.023c1.41,5.275,2.533,23.471,2.545,23.654
	c0.041,0.656,0.494,1.16,1.039,1.16h15.508c0.547,0,0.998-0.504,1.039-1.16c0.01-0.184,1.135-18.379,2.546-23.654l0.006-0.023
	c0.72-2.692,2.06-7.702,2.632-13.746C46.678,16.008,46.052,9.08,44.113,2.815z M21.598,4.498h20.806
	c0.919,3.195,1.48,6.58,1.684,10.119L19.912,14.65C20.113,11.101,20.676,7.707,21.598,4.498z"/>
</svg>
