<?xml version="1.0" encoding="utf-8"?>
<!-- Generator: Adobe Illustrator 16.0.0, SVG Export Plug-In . SVG Version: 6.00 Build 0)  -->
<!DOCTYPE svg PUBLIC "-//W3C//DTD SVG 1.1//EN" "http://www.w3.org/Graphics/SVG/1.1/DTD/svg11.dtd">
<svg id="Layer_1" data-name="Layer 1" xmlns="http://www.w3.org/2000/svg" viewBox="0 0 64 64">
    <path class="tag-color"
          d="M40.41,22.39c-0.93.07-1.85,0.15-2.76,0.24v6.92c0,1.65-1.53,3.42-4.87,3.42S27.9,31.2,27.9,29.56v-5.5A64.59,64.59,0,0,0,15,27.88a35.46,35.46,0,0,0-3.67,1.82v22.8l40.13,9V38.4Zm7.42,34.84L15,49.84V43l32.79,7.52v6.69Zm0-10.18L15.06,39.53l0-6.82,32.79,7.53v6.81h0Z"/>
    <path class="tag-color"
          d="M32.78,30.24c1.05,0,1.91-.31,1.91-0.68V13.24c0-.24-0.85-0.44-1.91-0.44s-1.91.2-1.91,0.44V29.55C30.87,29.93,31.72,30.24,32.78,30.24Z"/>
    <path class="tag-color" d="M35.11,8a2.34,2.34,0,0,1-4.66,0c0-1.19,1-5,2.33-5S35.11,6.79,35.11,8Z"/>
</svg>
