<?xml version="1.0" encoding="utf-8"?>
<!-- Generator: Adobe Illustrator 16.0.0, SVG Export Plug-In . SVG Version: 6.00 Build 0)  -->
<!DOCTYPE svg PUBLIC "-//W3C//DTD SVG 1.1//EN" "http://www.w3.org/Graphics/SVG/1.1/DTD/svg11.dtd">
<svg version="1.1" id="Layer_1" xmlns="http://www.w3.org/2000/svg" xmlns:xlink="http://www.w3.org/1999/xlink" x="0px" y="0px"
	 width="64px" height="64px" viewBox="0 0 64 64" enable-background="new 0 0 64 64" xml:space="preserve">
<g transform="translate(0,508) scale(0.084783,-0.084783)">
	<path class="tag-color" d="M91.704,5373.322c-10.482-10.205-14.531-19.961-16.034-38.448c-1.797-22.322,10.752-40.533,37.36-54.251
		c5.54-2.833,13.477-6.185,17.698-7.233c19.069-3.179,61.664-1.475,53.163,3.64c-7.372,4.423-36.692,9.883-46.258,15.849
		c-19.904,12.716-20.387,26.631-15.89,38.437c3.709,9.341,19.886,22.104,39.122,30.743c9.238,4.146,15.498,3.006,27.661,7.498
		c30.662,11.162,44.052,10.758,59.7-2.511l5.73-4.711l115.552,0.207l115.725,0.369l-0.15,8.823
		c-1.302,23.106-7.188,27.667-38.679,29.453c-8.8,0.541-16.506,1.244-16.621,1.601c-1.152,0.921,3.467,11.771,11.081,26.953
		c13.811,26.815,32.505,52.328,43.516,58.605c4.826,2.892,6.093,3.064,14.882,2.58c11.173-0.599,17.45-3.133,23.141-9.675
		c4.734-5.482,5.978-9.975,7.763-28.001c1.221-11.046,2.592-17.266,5.356-24.177c13.338-34.877,53.618-73.349,76.021-72.808
		c7.625,0.173,11.081,2.522,15.308,10.781c3.974,7.43,4.343,15.815,1.302,21.608c-0.91,2.108-7.015,9.284-13.304,15.884
		c-28.174,29.038-36.663,52.155-36.663,98.033c0,46.522,9.157,80.663,29.118,108.906c2.833,3.939,12.394,15.089,21.182,24.799
		c28.197,30.858,33.783,42.768,33.783,72.416c-0.173,17.174-1.244,26.239-6.301,44.761c-8.431,31.813-5.575,47.087,12.233,67.025
		c12.048,13.557,13.131,18.326,8.961,40.855c-4.815,24.741-6.635,35.592-8.984,57.27c-3.363,27.148-5.54,33.207-13.983,36.721
		c-5.322,2.28-10.781,2.039-16.391-0.576c-2.776-1.29-10.344-7.925-18.637-16.414c-15.665-16.322-23.221-21.885-33.265-24.5
		c-16.506-4.135-29.833-1.164-59.158,13.396c-16.782,8.374-20.975,10.125-25.847,10.125c-5.448,0.138-6.139-0.23-8.65-3.778
		c-3.409-4.93-4.458-14.19-3.594-27.897c1.106-14.997,4.031-27.506,13.707-56.993c9.664-28.842,12.002-38.989,12.382-50.139
		c0.058-11.138-2.35-18.429-8.109-24.246c-6.347-6.301-12.037-8.086-41.535-12.947c-44.991-7.544-74.201-16.172-102.076-30.005
		c-55.023-27.598-96.501-76.655-122.412-145.062c-6.606-17.404-11.455-33.576-22.069-73.591
		c-13.655-52.178-14.887-54.712-35.943-76.712"/>
</g>
</svg>
