<?xml version="1.0" encoding="utf-8"?>
<!-- Generator: Adobe Illustrator 16.0.0, SVG Export Plug-In . SVG Version: 6.00 Build 0)  -->
<!DOCTYPE svg PUBLIC "-//W3C//DTD SVG 1.1//EN" "http://www.w3.org/Graphics/SVG/1.1/DTD/svg11.dtd">
<svg version="1.1" id="Layer_1" xmlns="http://www.w3.org/2000/svg" xmlns:xlink="http://www.w3.org/1999/xlink" x="0px" y="0px"
	 width="64px" height="64px" viewBox="0 0 64 64" enable-background="new 0 0 64 64" xml:space="preserve">
<g transform="translate(0,508) scale(0.084783,-0.084783)">
	<path fill="#010101" d="M91.704,5373.328c-10.482-10.217-14.531-19.967-16.034-38.46c-1.797-22.311,10.752-40.527,37.36-54.246
		c5.54-2.833,13.477-6.185,17.698-7.228c19.069-3.19,61.664-1.474,53.163,3.628c-7.372,4.423-36.692,9.889-46.258,15.849
		c-19.904,12.717-20.387,26.643-15.89,38.443c3.709,9.335,19.886,22.109,39.122,30.743c9.238,4.141,15.498,3.006,27.661,7.498
		c30.662,11.167,44.052,10.758,59.7-2.511l5.73-4.705l115.552,0.207l115.725,0.369l-0.15,8.823
		c-1.302,23.1-7.188,27.656-38.679,29.447c-8.8,0.541-16.506,1.244-16.621,1.601c-1.152,0.927,3.467,11.777,11.081,26.953
		c13.811,26.815,32.505,52.328,43.517,58.611c4.826,2.886,6.093,3.058,14.882,2.569c11.173-0.593,17.45-3.122,23.14-9.675
		c4.734-5.477,5.978-9.964,7.763-27.996c1.221-11.046,2.592-17.272,5.356-24.171c13.338-34.883,53.618-73.354,76.021-72.813
		c7.625,0.173,11.081,2.522,15.308,10.781c3.974,7.435,4.343,15.815,1.302,21.608c-0.91,2.108-7.015,9.284-13.304,15.884
		c-28.174,29.038-36.663,52.155-36.663,98.033c0,46.528,9.157,80.669,29.118,108.912c2.833,3.928,12.394,15.083,21.182,24.793
		c28.197,30.852,33.783,42.762,33.783,72.41c-0.173,17.18-1.244,26.239-6.301,44.767c-8.431,31.808-5.575,47.093,12.233,67.025
		c12.048,13.557,13.131,18.326,8.961,40.861c-4.815,24.735-6.635,35.592-8.984,57.258c-3.363,27.154-5.54,33.213-13.983,36.732
		c-5.322,2.269-10.781,2.033-16.391-0.587c-2.776-1.278-10.344-7.919-18.637-16.408c-15.665-16.316-23.221-21.885-33.265-24.5
		c-16.506-4.135-29.833-1.164-59.158,13.396c-16.782,8.368-20.975,10.131-25.847,10.131c-5.448,0.126-6.139-0.236-8.65-3.79
		c-3.409-4.918-4.458-14.179-3.594-27.897c1.106-14.997,4.031-27.506,13.707-56.981c9.664-28.842,12.002-38.995,12.382-50.145
		c0.058-11.132-2.35-18.429-8.109-24.252c-6.347-6.295-12.037-8.08-41.535-12.941c-44.991-7.544-74.201-16.172-102.076-30.005
		c-55.023-27.598-96.501-76.655-122.412-145.062c-6.606-17.41-11.455-33.576-22.069-73.597
		c-13.655-52.167-14.888-54.701-35.943-76.712"/>
</g>
</svg>
