<?xml version="1.0" encoding="utf-8"?>
<!-- Generator: Adobe Illustrator 16.0.0, SVG Export Plug-In . SVG Version: 6.00 Build 0)  -->
<!DOCTYPE svg PUBLIC "-//W3C//DTD SVG 1.1//EN" "http://www.w3.org/Graphics/SVG/1.1/DTD/svg11.dtd">
<svg version="1.1" id="Layer_1" xmlns="http://www.w3.org/2000/svg" xmlns:xlink="http://www.w3.org/1999/xlink" x="0px" y="0px"
	 width="64px" height="64px" viewBox="0 0 64 64" enable-background="new 0 0 64 64" xml:space="preserve">
<path fill="#010101" d="M55.872,7.759l1.599-1.501c-1.462-0.636-2.369-0.483-2.835-0.288c-0.121,0.042-0.22,0.09-0.295,0.132
	l2.336-2.497c-1.016-0.951-3.181-0.519-4.313-0.068c-0.172,0.063-0.325,0.127-0.449,0.191c-1.308,0.655-2.556,2.168-2.733,2.391
	c-2.908,0.174-5.382,0.813-7.47,1.681c-2.74,1.125-4.833,2.644-6.404,4.033c-1.54,1.364-3.303,2.276-4.826,2.85
	c-1.954,0.725-3.498,0.896-3.628,0.74c-4.885-5.641-11.512-6.62-11.512-6.62s1.01-1.685,1.01-3.451c0-2.406-2.038-3.747-3.315-3.247
	c-0.087,0.033-0.168,0.08-0.247,0.128c-1.111,0.631-1.365,2.715-0.548,4.827C11.92,6.874,10.741,5.91,10.07,6.174
	c-0.066,0.025-0.127,0.059-0.186,0.094C9.022,6.737,8.828,8.343,9.463,9.964c0.066,0.167,0.145,0.318,0.224,0.473
	c-0.484-0.483-1.03-0.708-1.48-0.531C8.157,9.927,8.109,9.952,8.063,9.98c-0.697,0.361-0.86,1.646-0.35,2.946
	c0.147,0.375,0.336,0.712,0.545,0.994c-0.011,0.055-0.026,0.109-0.037,0.166c0,0-0.967,0.439-1.645,1.115
	c-0.873,0.875-0.678,1.694-0.678,1.694s1.023-0.426,1.861-0.593c0.84-0.168,1.609,0.084,1.609,0.084
	c-0.378,2.779,2.309,3.736,2.309,3.736s-0.669,1.552-1.535,5.752c-1.342,6.52-0.218,8.2,3.066,11.312
	c2.268,2.15,8.174,4.082,12.462,5.459l-0.048,0.052c0,0,1.857,2.792,3.726,4.408c0.708,0.614,1.41,1.067,2.095,1.391
	c-0.101,0.383-0.201,0.764-0.299,1.147c-0.58,2.29-1.158,4.58-1.704,6.729c-0.008,0.042-0.019,0.078-0.029,0.118
	c-0.015,0-0.034,0-0.048,0c-1.683-0.078-3.121-0.167-4.13-0.013c-0.504,0.072-0.894,0.231-1.118,0.4
	c-0.109,0.082-0.189,0.169-0.23,0.224c-0.042,0.054-0.061,0.083-0.061,0.083l0.086,0.07c0,0,0.081-0.126,0.29-0.253
	c0.214-0.13,0.579-0.239,1.063-0.263c0.957-0.063,2.323,0.194,3.993,0.383c-0.004,0.017-0.009,0.032-0.014,0.05
	c-0.04,0.212-0.132,0.405-0.253,0.58c-0.12,0.171-0.27,0.304-0.438,0.394c-0.176,0.09-0.333,0.126-0.578,0.143
	c-1.032,0.036-1.995,0.132-2.883,0.25c-1.773,0.248-3.229,0.603-4.207,0.984c-0.491,0.191-0.855,0.403-1.075,0.593
	c-0.224,0.201-0.269,0.366-0.271,0.355l0.096,0.051c0,0,0.02-0.03,0.057-0.09c0.042-0.055,0.104-0.119,0.209-0.203
	c0.213-0.159,0.574-0.33,1.063-0.477c0.975-0.299,2.435-0.517,4.187-0.636c0.362-0.024,0.741-0.042,1.125-0.059
	c0.688,0.006,1.416,0.027,2.12,0.071c0.261,0.015,0.484-0.028,0.671-0.105c0.009,0.042,0.015,0.086,0.023,0.129
	c0.041,0.192,0.107,0.39,0.215,0.575c0.115,0.177,0.306,0.333,0.428,0.527c0.252,0.383,0.453,0.796,0.557,1.138
	c0.055,0.169,0.068,0.316,0.088,0.418c0.012,0.113,0.019,0.175,0.019,0.175L30.502,62c0,0,0.023-0.058,0.066-0.161
	c0.04-0.112,0.082-0.274,0.107-0.473c0.063-0.402,0.018-0.958-0.144-1.473c-0.08-0.255-0.125-0.538-0.246-0.753
	c-0.109-0.182-0.253-0.318-0.398-0.428c0.081,0.02,0.162,0.042,0.251,0.061c0.27,0.055,0.582,0.092,0.909,0.089
	c0.329-0.015,0.68-0.102,1.033-0.115c0.351-0.017,0.705-0.015,1.033-0.003c0.164,0.003,0.319,0.024,0.468,0.038
	c0.145,0.021,0.291,0.036,0.409,0.068c0.127,0.029,0.229,0.071,0.325,0.111c0.079,0.046,0.167,0.091,0.203,0.13
	c0.053,0.029,0.085,0.092,0.102,0.132c0.018,0.037,0.029,0.06,0.029,0.06l0.104-0.033c0,0-0.004-0.022-0.01-0.065
	c-0.004-0.043-0.007-0.104-0.062-0.195c-0.04-0.104-0.119-0.17-0.207-0.265c-0.094-0.077-0.206-0.167-0.333-0.234
	c-0.363-0.217-0.843-0.378-1.358-0.498c0.03-0.055,0.061-0.126,0.098-0.225c0.084-0.211,0.155-0.504,0.178-0.796
	c0.005-0.086,0.029-0.174,0.042-0.261c0.211,0.068,0.45,0.119,0.701,0.138c0.255,0,0.532-0.062,0.809-0.049
	c0.544,0.024,1.098,0.11,1.469,0.267c0.182,0.076,0.326,0.182,0.388,0.255c0.083,0.074,0.1,0.172,0.105,0.16l0.105-0.026
	c-0.008-0.006,0.018-0.067-0.032-0.215c-0.045-0.159-0.167-0.324-0.344-0.496c-0.353-0.35-0.938-0.638-1.542-0.812
	c-0.302-0.083-0.608-0.213-0.902-0.229c-0.295-0.018-0.571,0.041-0.798,0.127c-0.064,0.024-0.114,0.053-0.17,0.078
	c0.037-0.086,0.074-0.177,0.093-0.264l0.105-0.366c0.139-0.492,0.281-0.994,0.426-1.503c0.417-1.477,0.854-3.025,1.296-4.593
	c0.59-0.032,1.146-0.134,1.66-0.286c1.188-0.351,2.689-1.648,4.154-3.935c3.237-1.173,7.977-3.225,10.978-6.945
	c0.524-0.597,1.033-1.244,1.512-1.944c4.322-6.317,2.73-13.041,2.73-13.041C60.946,16.027,55.872,7.759,55.872,7.759z
	 M32.132,57.869c-0.376-0.05-0.753-0.153-1.107-0.151c-0.355,0.005-0.68,0.081-0.952,0.177c-0.047,0.015-0.08,0.034-0.122,0.049
	c0.026-0.088,0.043-0.173,0.056-0.248c0.042-0.095,0.076-0.191,0.103-0.292c0.018-0.065,0.036-0.129,0.057-0.193
	c0.16,0.014,0.324,0.026,0.49,0.034l0.177,0.009l0.043,0.004l0.068-0.002l0.087-0.003c0.099,0.005,0.28-0.021,0.426-0.056
	c0.216-0.051,0.418-0.159,0.609-0.284c0.042,0.063,0.094,0.128,0.123,0.202c0.11,0.237,0.217,0.475,0.299,0.654
	c0.029,0.067,0.052,0.127,0.071,0.18C32.417,57.917,32.275,57.889,32.132,57.869z M32.593,53.534
	c-0.13,0.513-0.256,1.019-0.381,1.514l-0.094,0.371c-0.023,0.105-0.045,0.175-0.09,0.271c-0.083,0.182-0.194,0.348-0.324,0.474
	c-0.132,0.128-0.284,0.223-0.453,0.274c-0.084,0.018-0.131,0.043-0.267,0.051l-0.085,0.008l-0.024,0.004
	c0.042-0.002-0.001,0,0.003,0l-0.04,0.002l-0.169,0.002c-0.103,0.001-0.199-0.002-0.3-0.002c0.593-2.103,1.225-4.335,1.855-6.569
	c0.098-0.343,0.189-0.686,0.283-1.024c0.409,0.122,0.808,0.203,1.2,0.246C33.326,50.647,32.951,52.123,32.593,53.534z"/>
</svg>
