<?xml version="1.0" encoding="utf-8"?>
<!-- Generator: Adobe Illustrator 16.0.0, SVG Export Plug-In . SVG Version: 6.00 Build 0)  -->
<!DOCTYPE svg PUBLIC "-//W3C//DTD SVG 1.1//EN" "http://www.w3.org/Graphics/SVG/1.1/DTD/svg11.dtd">
<svg version="1.1" id="Layer_1" xmlns="http://www.w3.org/2000/svg" xmlns:xlink="http://www.w3.org/1999/xlink" x="0px" y="0px"
	 width="64px" height="64px" viewBox="0 0 64 64" enable-background="new 0 0 64 64" xml:space="preserve">
<path class="tag-color" stroke="#010101" stroke-width="0.4278" stroke-miterlimit="10" d="M46.708,38.143l-3.177,1.533l-4.343,1.012
	l-5.034,2.159l2.062,3.215l-1.841,5.875l-0.121,1.74l0.129,0.74l3.264,2.244l-2.471-0.198l-0.313,0.985l2.685,2.526l-2.342-0.42
	l-1.084-0.413l-2.586,0.804l-5.052-0.24l2.927-1.625l3.15-0.805l-0.41-9.766l-1.721-3.507l-3.548-2.312l-1.657,2.799l-5.009-0.812
	l-1.947,0.907l-1.986-1.234l-0.02,2.524l-3.644-3.468l-5.625-0.208l0.109-2.125l1.608-1.208l2.924,1.204l3.059,1.428
	c0,0,4.03,1.27,3.901,1.27l2.698-0.271l2.643-2.385l-0.172-2.036l-6.693-6.826l-0.633-4.436L15.5,26.25l-0.704,1.072l-0.478-1.947
	L14,23.188l-0.809,0.498l-0.875-4.211l-1.867-2.207l-0.25,3.049L8.591,21.25l-2.082-0.474l-1.603-4.988c0,0-0.825-1.17-0.867-0.994
	L2,14.314l3.271-1.656L2,10.284l3.068,0.027l0.569-0.893l0.505-2.534l0.67,0.242l0.616,0.021l1.746-2.095l1.105,1.851l1.055-1.275
	l2.602-1.603L14.27,6.6l2.096-0.623l2.763,0.644l-1.406,2.331l-1.797,1.204l-1.428,0.853l-2.318,0.108l0.204,0.824l2.11,2.253
	l3.414,0.831l2.927,1.399l2.986,1.048l-2.32,1.402l3.727,0.513l-1.674,0.701l-0.778,0.479l7.476,3.808l6.79,1.498l-0.847-3.967
	l1.094-4.124l3.211-4.375l4.548-1.994l7.035-0.774l6.629,4.165c0,0,3.269,7.688,3.289,7.751c0.042,0.129-1.559,7.673-1.559,7.673
	l-1.22,2.31l-1.992-6.426l-1.666-3.548l-2.875-3.188l0.427,1.529l1.861,5.029l1.327,9.086l-3.496,3.14l-2.256,0.301l-0.766-6.754
	l-0.661-2.895l-2-2.562l0.046,1.375l0.727,4.711l-0.565,2.575l-2.355,1.037l2.404-0.104"/>
</svg>
