<?xml version="1.0" encoding="utf-8"?>
<!-- Generator: Adobe Illustrator 16.0.0, SVG Export Plug-In . SVG Version: 6.00 Build 0)  -->
<!DOCTYPE svg PUBLIC "-//W3C//DTD SVG 1.1//EN" "http://www.w3.org/Graphics/SVG/1.1/DTD/svg11.dtd">
<svg id="Layer_1" data-name="Layer 1" xmlns="http://www.w3.org/2000/svg" viewBox="0 0 64 64">
    <defs>
        <style>.cls-1{fill:#010101;}</style>
    </defs>
    <title>tags</title>
    <path class="cls-1"
          d="M34.35,58.22c0.05,0.05.08,0.08,0,.16l2.24,0a2.36,2.36,0,0,1-2.23-2.28v2.15Zm-7,.13h2.29V56.07A2.29,2.29,0,0,1,27.37,58.35ZM15,10.68L29.63,29.77l0,0.08V58.22l-0.11.11-6.56,0-2.42,2.42v0.84a0,0,0,0,0,0,0H43.42a0,0,0,0,0,0,0V60.89L40.9,58.36c-4.7.14-2.37,2.5,0.19,2.71a0.09,0.09,0,0,0,.07-0.16,2.68,2.68,0,0,1-.43-2.42,0.09,0.09,0,0,0-.08-0.14H34.48c-0.05-.05.08-0.31-0.13-0.13V29.85l0-.08L55.28,2.57l-0.1-.21H19.11m9.66,19.56L39.6,8.33l0.1,0h5.95l0.1,0.21L32.1,26.11H31.9l-3.13-4V21.91ZM17.94,2.35H8.83l-0.1.21,6,7.86C25.18,24,51.41,2.35,17.94,2.35Z"/>
</svg>
