<?xml version="1.0" encoding="utf-8"?>
<!-- Generator: Adobe Illustrator 16.0.0, SVG Export Plug-In . SVG Version: 6.00 Build 0)  -->
<!DOCTYPE svg PUBLIC "-//W3C//DTD SVG 1.1//EN" "http://www.w3.org/Graphics/SVG/1.1/DTD/svg11.dtd">
<svg version="1.1" id="Layer_1" xmlns="http://www.w3.org/2000/svg" xmlns:xlink="http://www.w3.org/1999/xlink" x="0px" y="0px"
	 width="64px" height="64px" viewBox="0 0 64 64" enable-background="new 0 0 64 64" xml:space="preserve">
<g>
	<g>
		<g>
			<g>
				<path class="tag-color" d="M25.207,3.482c-1.682,2.008-2.868,5.047-1.736,7.594c0.99,2.211,3.656,3.189,3.178,5.949
					c-0.225,1.312-1.08,2.15-1.592,3.287c-0.492,1.105,1.142,2.078,1.639,0.963c0.43-0.959,1.11-1.773,1.504-2.773
					c0.637-1.623,0.516-3.365-0.289-4.898c-0.484-0.92-1.366-1.529-2.068-2.264c-0.852-0.883-1.031-2.168-0.822-3.336
					c0.201-1.113,0.879-2.404,1.527-3.178C27.33,3.893,25.99,2.543,25.207,3.482L25.207,3.482z"/>
			</g>
		</g>
		<g>
			<g>
				<path class="tag-color" d="M32.52,3.482c-1.678,2.008-2.867,5.047-1.73,7.594c0.986,2.211,3.651,3.189,3.172,5.949
					c-0.223,1.312-1.08,2.15-1.588,3.287c-0.495,1.105,1.144,2.078,1.642,0.963c0.423-0.959,1.11-1.773,1.499-2.773
					c0.641-1.623,0.52-3.365-0.289-4.898c-0.48-0.92-1.363-1.529-2.062-2.264c-0.854-0.883-1.039-2.168-0.826-3.336
					c0.199-1.113,0.877-2.404,1.53-3.178C34.643,3.893,33.311,2.543,32.52,3.482L32.52,3.482z"/>
			</g>
		</g>
		<g>
			<g>
				<path class="tag-color" d="M39.768,3.482c-1.68,2.008-2.867,5.047-1.736,7.594c0.992,2.211,3.658,3.189,3.18,5.949
					c-0.225,1.312-1.08,2.15-1.592,3.287c-0.492,1.105,1.141,2.078,1.638,0.963c0.43-0.959,1.11-1.773,1.505-2.773
					c0.637-1.623,0.516-3.365-0.287-4.898c-0.486-0.92-1.369-1.529-2.07-2.264c-0.852-0.883-1.031-2.168-0.822-3.336
					c0.203-1.113,0.878-2.404,1.527-3.178C41.893,3.893,40.553,2.545,39.768,3.482L39.768,3.482z"/>
			</g>
		</g>
	</g>
	<g>
		<path class="tag-color" d="M62,54.469H2c0.004,4.342,3.313,6.354,5.978,6.367h48.046C59.201,60.822,61.986,58.324,62,54.469
			L62,54.469z"/>
		<path class="tag-color" d="M50.599,23.834h-35.8V47.32c0.005,3.189,2.752,5.713,5.719,5.719h23.226
			c3.349-0.008,5.632-2.822,5.62-5.719v-1.949c6.629-0.006,11.438-4.98,11.436-10.783C60.801,28.682,56.086,23.83,50.599,23.834z
			 M49.363,40.889V28.252h1.235c4.542-0.008,5.998,4.287,5.978,6.367C56.578,37.98,54.091,41.203,49.363,40.889z"/>
	</g>
</g>
</svg>
