<?xml version="1.0" encoding="utf-8"?>
<!-- Generator: Adobe Illustrator 16.0.0, SVG Export Plug-In . SVG Version: 6.00 Build 0)  -->
<!DOCTYPE svg PUBLIC "-//W3C//DTD SVG 1.1//EN" "http://www.w3.org/Graphics/SVG/1.1/DTD/svg11.dtd">
<svg id="Layer_1" data-name="Layer 1" xmlns="http://www.w3.org/2000/svg" viewBox="0 0 64 64">
    <path class="tag-color"
          d="M25.37,2a2.47,2.47,0,0,0-1.76.78l-7.79,7.61a2,2,0,0,0-.62,1A2.2,2.2,0,0,0,17,14l12.15,3.24c-0.16,5-4.7,11.32-5.41,14.89L19.24,44.45A3,3,0,0,0,19,45.78V59a3,3,0,1,0,6.06,0V46.22l4.54-12.47,2.22,0.58V46.9a1.65,1.65,0,0,0,.6,1.56L44.24,60.71a3,3,0,1,0,4.36-4.2L37.87,45.4V35.95c0.23-2.62,2.35-10.26,4.08-15.21l7.69,2.06a2.14,2.14,0,0,0,2.88-2.52s0-.07,0-0.1L50.62,8.67a2.24,2.24,0,0,0-2.1-2.08,2.13,2.13,0,0,0-.4,0A2.18,2.18,0,0,0,46.4,9.35l1.42,8.55L34.39,14.3,32,13.64,21.42,10.82l5.16-5a2.2,2.2,0,0,0,.26-3.22A2.06,2.06,0,0,0,25.37,2h0ZM36.67,2.67a5.41,5.41,0,1,0,5.4,5.4A5.42,5.42,0,0,0,36.67,2.67Z"/>
</svg>
