<?xml version="1.0" encoding="utf-8"?>
<!-- Generator: Adobe Illustrator 16.0.0, SVG Export Plug-In . SVG Version: 6.00 Build 0)  -->
<!DOCTYPE svg PUBLIC "-//W3C//DTD SVG 1.1//EN" "http://www.w3.org/Graphics/SVG/1.1/DTD/svg11.dtd">
<svg version="1.1" id="Layer_1" xmlns="http://www.w3.org/2000/svg" xmlns:xlink="http://www.w3.org/1999/xlink" x="0px" y="0px"
	 width="64px" height="64px" viewBox="0 0 64 64" enable-background="new 0 0 64 64" xml:space="preserve">
<g>
	<path class="tag-color" d="M28.996,2c0,2.507-0.021,5.018,0.004,7.522c0.019,1.883-0.492,3.879,1.645,5.217
		c0.537,0.34,0.492,1.601,0.785,2.682c6.926,1.245,12.65,4.682,16.369,11.033c2.83,4.837,3.596,10.082,2.615,15.527
		C48.547,54.322,38.621,62.26,28.1,61.994C17.505,61.719,8.051,53.641,6.553,43.381c-1.646-11.292,4.444-23.138,19.175-26.088
		c0.16-0.876,0.037-1.896,0.45-2.208C29,12.94,27.894,9.94,28.002,7.245c0.125-3.066,0.039-2.117,0.039-5.186
		c0.32-0.008,0.641-0.017,0.963-0.024 M23.695,43.791c3.148,0,6.039,0,8.955,0c0-3.137,0-6.031,0-8.895c-3.107,0-5.998,0-8.955,0
		C23.695,37.92,23.695,40.683,23.695,43.791z M41.984,35.573c-2.77-0.268-5.301-0.509-7.92-0.758c0,3.097,0,5.922,0,9.105
		c2.693-0.261,5.217-0.506,7.92-0.769C41.984,40.628,41.984,38.335,41.984,35.573z M32.809,33.585
		c-0.221-2.287-0.307-4.242-0.656-6.147c-0.098-0.541-0.928-1.279-1.484-1.345c-1.577-0.187-3.208-0.192-4.78-0.01
		c-0.579,0.066-1.436,0.807-1.528,1.356c-0.344,1.957-0.413,3.964-0.604,6.146c2.285,0,4.315,0,6.347,0
		C30.885,33.585,31.672,33.585,32.809,33.585z M33.213,52.89c7.586-1.157,7.6-0.551,8.451-8.55
		c-2.555,0.254-5.064,0.499-7.648,0.752C33.748,47.704,33.496,50.148,33.213,52.89z M15.222,44.336
		c1.141,7.618,1.281,7.763,8.011,8.412c-0.253-2.581-0.498-5.105-0.753-7.713C20.01,44.797,17.735,44.58,15.222,44.336z
		 M33.197,26.521c0.293,2.527,0.551,4.784,0.824,7.144c2.615,0.224,5.07,0.433,7.566,0.649
		C40.824,27.344,40.768,27.266,33.197,26.521z M23.29,26.368c-6.706,0.696-8.156,2.272-7.511,7.963
		c2.257-0.235,4.509-0.475,6.744-0.709C22.794,31.062,23.026,28.854,23.29,26.368z M24.791,24.845c2.407,0,4.601,0,6.803,0
		c-0.266-4.788-0.551-5.231-3.245-5.222C25.29,19.635,24.954,20.111,24.791,24.845z M13.812,35.987
		c-5.378,0.517-5.645,0.752-5.21,4.522c0.2,1.737,2.057,2.414,5.21,1.842C13.812,40.244,13.812,38.118,13.812,35.987z
		 M48.219,36.779c-1.643-0.312-3.246-0.613-4.918-0.934c0,2.401,0,4.505,0,6.59C48.184,42.995,48.727,42.399,48.219,36.779z
		 M24.846,54.523c0.67,5.11,0.845,5.347,4.336,4.968c3.398-0.364,1.52-3.22,2.818-4.968C29.285,54.523,27.185,54.523,24.846,54.523z
		 M39.396,53.136c-6.529,0.704-7.23,1.3-6.943,5.896C37.006,58.344,37.891,57.592,39.396,53.136z M17.438,26.37
		c6.272-0.676,7.216-1.539,6.614-6.044C20.255,20.58,18.206,22.782,17.438,26.37z M32.41,20.197
		c-0.049,4.854,1.471,6.073,6.857,5.687C38.533,22.241,36.15,20.536,32.41,20.197z M47.75,43.286
		c-5.121,0.854-5.447,1.287-5.652,7.172C46.551,49.034,47.639,47.688,47.75,43.286z M47.793,35.31
		c-0.211-3.802-2.314-5.683-5.65-6.484C43.039,35.421,42.266,34.733,47.793,35.31z M12.054,27.804
		c0.186,0.184,0.371,0.365,0.558,0.546c2.541-0.674,4.561-1.85,4.654-5.473C15.318,24.718,13.686,26.259,12.054,27.804z
		 M45.105,50.951c-3.41,0.444-4.781,2.059-4.727,5.016C41.812,54.449,43.244,52.925,45.105,50.951z M12.161,51.473
		c1.488,1.465,2.977,2.935,4.971,4.9C16.763,52.791,15.131,51.467,12.161,51.473z M43.674,28.669
		c0.307-0.262,0.617-0.533,0.924-0.799c-1.391-1.562-2.785-3.125-4.18-4.688c-0.334,0.328-0.674,0.653-1.008,0.983
		C40.83,25.671,42.252,27.171,43.674,28.669z M30.869,16.162c-1.209-0.72-1.861-1.419-2.398-1.339
		c-0.558,0.08-1.007,0.914-1.498,1.416c0.49,0.394,0.974,1.084,1.478,1.101C29.043,17.358,29.656,16.79,30.869,16.162z"/>
	<path class="tag-color" d="M47.824,25.109c-0.371-3.082-1.666-4.88-4.623-5.212c3.07-0.019,4.211-1.855,4.359-5.383
		c1.236,4.516,1.236,4.516,5.107,5.479C49.557,20.566,47.461,21.546,47.824,25.109z"/>
	<path class="tag-color" d="M10.309,14.774c-0.402-2.8-1.807-4.434-5.01-4.732c3.327-0.019,4.564-1.687,4.725-4.896
		c1.34,4.105,1.34,4.105,5.529,4.979C12.185,10.648,9.915,11.536,10.309,14.774z"/>
	<path class="tag-color" d="M54.67,55.587c-0.309-3.085-1.389-4.884-3.855-5.214c2.562-0.018,3.514-1.852,3.633-5.385
		c1.033,4.52,1.033,4.52,4.254,5.479C56.111,51.042,54.367,52.021,54.67,55.587z"/>
</g>
</svg>
