<?xml version="1.0" encoding="utf-8"?>
<!-- Generator: Adobe Illustrator 16.0.0, SVG Export Plug-In . SVG Version: 6.00 Build 0)  -->
<!DOCTYPE svg PUBLIC "-//W3C//DTD SVG 1.1//EN" "http://www.w3.org/Graphics/SVG/1.1/DTD/svg11.dtd">
<svg version="1.1" id="Layer_1" xmlns="http://www.w3.org/2000/svg" xmlns:xlink="http://www.w3.org/1999/xlink" x="0px" y="0px"
	 width="64px" height="64px" viewBox="0 0 64 64" enable-background="new 0 0 64 64" xml:space="preserve">
<g id="Layer_2">
	<path class="tag-color" d="M21.475,61.967c0.632-0.247,0.386-0.687,0.245-1.092L15.028,42.6c2.499,3.2,6.084,5.668,10.851,3.925
		c6.893-2.526,7.274-7.514,9.398-8.385c3.549-1.112,5.349,2.982,12.452,0.388c8.397-3.079,4.966-15.599,1.773-24.338
		c0,0-1.127,0.291-1.373-0.615C44.706,1.086,35.809,2.205,35.902,2.234c3.593,1.061,5.23,4.598,6.448,7.661
		c1.078,2.682,2.158,5.809-0.146,2.197C34.917,0.622,26.785,2.058,26.785,2.058c8.696,0.739,7.237,7.444,4.544,13.677
		c-2.263,5.231-0.681,9.54-0.681,9.54c-14.459-3.534-19.632,9.813-19.632,9.813c0.249,0.69,0.624,1.637,1.12,2.695l8.528,23.443
		C20.664,61.227,20.899,62.189,21.475,61.967z M23.006,39.372c-3.301,0.926-5.221-2.334-5.221-2.334
		c2.02-3.284,4.554-3.814,6.267-3.897c2.962-0.14,6.133,2,6.133,2C28.388,35.895,26.308,38.446,23.006,39.372z M45.578,31.111
		c-3.116,1.424-6.349,0.813-8.214,1.403c0,0,1.042-3.683,3.391-5.488c1.368-1.044,3.639-2.275,7.308-1.069
		C48.063,25.957,48.697,29.686,45.578,31.111z"/>
</g>
</svg>
