<?xml version="1.0" encoding="utf-8"?>
<!-- Generator: Adobe Illustrator 16.0.0, SVG Export Plug-In . SVG Version: 6.00 Build 0)  -->
<!DOCTYPE svg PUBLIC "-//W3C//DTD SVG 1.1//EN" "http://www.w3.org/Graphics/SVG/1.1/DTD/svg11.dtd">
<svg version="1.1" id="Layer_1" xmlns="http://www.w3.org/2000/svg" xmlns:xlink="http://www.w3.org/1999/xlink" x="0px" y="0px"
	 width="64px" height="64px" viewBox="0 0 64 64" enable-background="new 0 0 64 64" xml:space="preserve">
<g>
	<path fill="#010101" d="M57.587,17.814c-0.441-2.913-7.628-9.25-14.173-9.25c-3.679,0-6.131,1.028-7.584,1.929
		c0.097,0.105,0.193,0.207,0.297,0.329c0.538,0.64,1.061,1.531,1.472,2.589c0.426,1.055,0.725,2.281,1.119,3.544
		c0.355,1.234,1.004,2.552,1.508,4.08c0.235,0.769,0.463,1.575,0.534,2.468c0.081,0.881,0.039,1.86-0.359,2.8
		c-0.81,1.963-3.09,2.805-4.726,3.113c-0.53,0.103-0.975,0.108-1.472,0.165c-0.49-0.03-0.997-0.027-1.485-0.137
		c-1.003-0.186-1.938-0.683-2.7-1.332c-1.492-1.359-2.267-3.117-2.919-4.779c-0.64-1.684-1.133-3.359-1.659-4.959
		c-0.266-0.802-0.513-1.581-0.798-2.344c-0.28-0.758-0.58-1.519-0.698-2.298c-0.137-0.773-0.128-1.565,0.115-2.269
		c0.244-0.7,0.71-1.274,1.248-1.685c0.57-0.421,1.186-0.691,1.798-0.87c-0.935-0.215-1.871-0.36-2.757-0.36
		c-4.362,0-10.359,5.449-10.359,12.537c0,7.084-0.541,10.625-3.27,10.08c-2.721-0.543-5.109-7.629-5.109-7.629L2,24.898
		c0,0,1.635,12.537,10.422,12.537c3.853,0,10.291-5.426,11.242-7.326c-0.527,3.59-3.503,4.908-3.272,5.069
		c1.701,1.165,5.658,1.859,5.658,3.892c0,3.269,0.2,14.168,0.749,15.533c0.543,1.359,7.354,1.085,7.354-0.82
		c0-1.905,0.276-10.08,0.276-10.08s2.438,0.765,4.551,0.765s4.226-0.632,4.226-0.632s0.968,9.463,1.516,10.554
		c0.549,1.091,4.903,1.091,6.538,0c1.634-1.09-0.19-9.417,3.35-15.411c3.546-5.997,3.378-15.419,3.8-18.165
		C58.833,18.068,62,15.321,62,15.321S58.035,16.082,57.587,17.814z M20.894,23.127c-0.776,0-1.405-0.632-1.405-1.407
		c0-0.779,0.629-1.406,1.405-1.406c0.773,0,1.407,0.627,1.407,1.406C22.301,22.495,21.667,23.127,20.894,23.127z"/>
	<path fill="#010101" d="M24.786,11.501c-0.205,0.687-0.182,1.446-0.013,2.185c0.172,0.744,0.51,1.449,0.841,2.192
		c0.344,0.735,0.654,1.517,0.981,2.296c0.639,1.564,1.259,3.198,2.004,4.776c0.756,1.56,1.64,3.117,2.876,4.145
		c0.342,0.213,0.641,0.475,1.014,0.6c0.339,0.191,0.729,0.261,1.103,0.35c0.386,0.074,0.789,0.055,1.178,0.075
		c0.393-0.055,0.839-0.088,1.174-0.15c0.413-0.115,0.907-0.183,1.247-0.326c0.354-0.137,0.712-0.253,1.022-0.462
		c0.651-0.365,1.172-0.854,1.42-1.482c0.546-1.25,0.262-2.841-0.163-4.245c-0.399-1.432-0.995-2.779-1.336-4.154
		c-0.344-1.333-0.623-2.518-0.93-3.532c-0.311-1.011-0.713-1.823-1.147-2.417c-0.425-0.605-0.872-0.981-1.178-1.237
		c-0.323-0.233-0.498-0.358-0.498-0.358v0c-0.026-0.009-0.207-0.167-0.521-0.333c-0.351-0.197-0.919-0.453-1.682-0.629
		C31.431,8.62,30.484,8.509,29.415,8.6c-0.22,0.018-0.429,0.047-0.64,0.082c-0.109,0.016-0.215,0.037-0.321,0.058
		c-0.163,0.033-0.323,0.072-0.486,0.115c-0.684,0.188-1.381,0.482-2.016,0.962C25.421,10.225,24.997,10.818,24.786,11.501z"/>
</g>
</svg>
