<?xml version="1.0" encoding="utf-8"?>
<!-- Generator: Adobe Illustrator 16.0.0, SVG Export Plug-In . SVG Version: 6.00 Build 0)  -->
<!DOCTYPE svg PUBLIC "-//W3C//DTD SVG 1.1//EN" "http://www.w3.org/Graphics/SVG/1.1/DTD/svg11.dtd">
<svg version="1.1" id="Layer_1" xmlns="http://www.w3.org/2000/svg" xmlns:xlink="http://www.w3.org/1999/xlink" x="0px" y="0px"
	 width="64px" height="64px" viewBox="0 0 64 64" enable-background="new 0 0 64 64" xml:space="preserve">
<g>
	<path fill="#010101" d="M30.852,21.586c-0.019,1.934-1.806,4.024-4.095,4.024v32.88c0,4.68-6.372,4.68-6.386,0V25.61
		c-2.226,0-4.161-1.728-4.159-4.297V3.191c-0.002-1.568,2.269-1.631,2.285,0.062v13.387h1.874V3.133
		c0-1.439,2.205-1.535,2.214,0.059v13.449h1.945V3.162c0.001-1.523,2.145-1.582,2.13,0.059v13.42h1.965V3.162
		c-0.012-1.503,2.211-1.565,2.227,0.059V21.586L30.852,21.586z"/>
	<path fill="#010101" d="M47.788,7.407V58.49c0.009,4.561-6.359,4.486-6.369,0V38.203h-3.378V7.407
		C38.035,0.232,47.797,0.232,47.788,7.407L47.788,7.407z"/>
</g>
</svg>
