<?xml version="1.0" encoding="utf-8"?>
<!-- Generator: Adobe Illustrator 16.0.0, SVG Export Plug-In . SVG Version: 6.00 Build 0)  -->
<!DOCTYPE svg PUBLIC "-//W3C//DTD SVG 1.1//EN" "http://www.w3.org/Graphics/SVG/1.1/DTD/svg11.dtd">
<svg version="1.1" id="Layer_1" xmlns="http://www.w3.org/2000/svg" xmlns:xlink="http://www.w3.org/1999/xlink" x="0px" y="0px"
	 width="64px" height="64px" viewBox="0 0 64 64" enable-background="new 0 0 64 64" xml:space="preserve">
<g>
	<g>
		<path class="tag-color" d="M18.477,25.627L4.071,25.629C2.931,25.629,2,24.701,2,23.563c0-1.155,0.931-2.082,2.071-2.082h14.121"/>
		<path class="tag-color" d="M43.949,21.487h13.83c1.14,0,2.064,0.919,2.064,2.055c0,1.153-0.925,2.072-2.064,2.072l-14.064-0.096"/>
		<path class="tag-color" d="M36.635,59.358H25.489c-1.144,0-2.073-0.913-2.073-2.055v-3.43c0-0.484,0.162-0.942,0.454-1.297
			l2.673-1.98l-3.584-16.602l-0.397-0.186c-1.069,0-1.954-0.798-2.067-1.865c-0.03-0.288-0.748-7.321-0.528-12.249
			c0.028-0.651,0.356-1.24,0.882-1.612c0.205-0.148,3.002-1.563,6.069-2.175c-0.839-1.746-2.258-3.673-2.355-4.227
			c-0.274-1.339-0.006-4.469,1.583-6.811c1.357-1.988,1.685-2.459,4.99-2.786l0,0c2.822,0.138,3.518,0.786,4.857,2.771
			c1.592,2.339,1.854,5.501,1.572,6.836c-0.083,0.443-1.289,2.549-2.166,4.383c3.109,0.68,5.676,1.864,5.88,2.009
			c0.526,0.372,0.851,0.959,0.88,1.61c0.225,4.93-0.49,11.965-0.525,12.267c-0.111,1.054-1,1.852-2.063,1.852h-0.404L35.584,50.41
			l2.674,2.167c0.293,0.358,0.451,0.814,0.451,1.299v3.43C38.709,58.445,37.775,59.358,36.635,59.358z"/>
	</g>
	<g>
		<path class="tag-color" d="M53.141,44.187c-4.896,0.001-8.863,3.965-8.863,8.868c0,0.002,0,0.003,0,0.003
			c0,4.891,3.969,8.859,8.865,8.857c4.892,0,8.857-3.969,8.857-8.86c0,0,0,0,0-0.002C61.995,48.149,58.032,44.187,53.141,44.187z"/>
	</g>
</g>
</svg>
