<?xml version="1.0" encoding="utf-8"?>
<!-- Generator: Adobe Illustrator 16.0.0, SVG Export Plug-In . SVG Version: 6.00 Build 0)  -->
<!DOCTYPE svg PUBLIC "-//W3C//DTD SVG 1.1//EN" "http://www.w3.org/Graphics/SVG/1.1/DTD/svg11.dtd">
<svg version="1.1" id="Layer_1" xmlns="http://www.w3.org/2000/svg" xmlns:xlink="http://www.w3.org/1999/xlink" x="0px" y="0px"
	 width="64px" height="64px" viewBox="0 0 64 64" enable-background="new 0 0 64 64" xml:space="preserve">
<g>
	<path fill="#010101" d="M37.427,30.418H26.396c-0.894,0-1.619-0.725-1.619-1.617c0-0.895,0.726-1.619,1.619-1.619h11.031
		c0.894,0,1.618,0.725,1.618,1.619C39.045,29.693,38.32,30.418,37.427,30.418z"/>
	<path fill="#010101" d="M37.194,25.299H26.396c-0.894,0-1.619-0.723-1.619-1.617s0.726-1.619,1.619-1.619h10.799
		c0.894,0,1.619,0.725,1.619,1.619S38.088,25.299,37.194,25.299z"/>
	<path fill="#010101" d="M60.381,25.299h-4.958c-0.895,0-1.618-0.723-1.618-1.617s0.724-1.619,1.618-1.619h4.958
		c0.894,0,1.619,0.725,1.619,1.619S61.275,25.299,60.381,25.299z"/>
	<path fill="#010101" d="M60.381,30.418h-4.958c-0.895,0-1.618-0.725-1.618-1.617c0-0.895,0.724-1.619,1.618-1.619h4.958
		c0.894,0,1.619,0.725,1.619,1.619C62,29.693,61.275,30.418,60.381,30.418z"/>
	<path fill="#010101" d="M8.575,25.299H3.619C2.726,25.299,2,24.576,2,23.682s0.726-1.619,1.619-1.619h4.956
		c0.895,0,1.618,0.725,1.618,1.619S9.47,25.299,8.575,25.299z"/>
	<path fill="#010101" d="M8.575,30.418H3.619C2.726,30.418,2,29.693,2,28.801c0-0.895,0.726-1.619,1.619-1.619h4.956
		c0.895,0,1.618,0.725,1.618,1.619C10.193,29.693,9.47,30.418,8.575,30.418z"/>
	<path fill="#010101" d="M23.665,56.295H12.354c-0.894,0-1.618-0.725-1.618-1.619v-6.146c0-0.369,0.126-0.727,0.356-1.012
		l1.198-1.494l-1.907-13.168h-0.32c-0.829,0-1.525-0.627-1.609-1.453C8.429,31.17,7.87,25.668,8.037,21.82
		c0.022-0.502,0.276-0.967,0.689-1.256c0.165-0.115,1.589-1.074,3.979-1.564c-0.691-1.445-1.018-3.115-1.074-3.438
		c-0.219-1.041-0.008-3.486,1.233-5.316c1.057-1.555,2.655-2.436,4.623-2.539l0.988-0.002c2.047,0.109,3.639,0.982,4.688,2.525
		c1.245,1.83,1.445,4.303,1.223,5.346c-0.062,0.34-0.386,1.988-1.071,3.424c2.427,0.52,3.815,1.455,3.978,1.57
		c0.413,0.285,0.667,0.752,0.69,1.254c0.171,3.846-0.39,9.35-0.414,9.584c-0.086,0.824-0.781,1.453-1.61,1.453h-0.32l-1.907,13.166
		l1.197,1.49c0.231,0.287,0.356,0.645,0.356,1.014v6.146C25.285,55.57,24.56,56.295,23.665,56.295z"/>
	<path fill="#010101" d="M51.254,56.295H39.941c-0.893,0-1.617-0.725-1.617-1.619v-6.146c0-0.369,0.127-0.727,0.356-1.012
		l1.199-1.494l-1.91-13.164h-0.316c-0.831,0-1.526-0.627-1.611-1.453c-0.023-0.232-0.583-5.734-0.414-9.58
		c0.021-0.504,0.277-0.967,0.688-1.256c0.165-0.117,1.587-1.076,3.979-1.568c-0.69-1.445-1.015-3.109-1.074-3.434
		c-0.218-1.041-0.007-3.494,1.238-5.322c1.057-1.553,2.652-2.432,4.62-2.539l0.986-0.002c2.047,0.109,3.639,0.982,4.688,2.527
		c1.245,1.83,1.447,4.303,1.224,5.346c-0.061,0.336-0.387,1.986-1.075,3.422c2.429,0.521,3.818,1.457,3.979,1.57
		c0.411,0.289,0.667,0.75,0.688,1.254c0.172,3.848-0.389,9.352-0.411,9.584c-0.085,0.826-0.78,1.453-1.611,1.453H53.23
		l-1.909,13.166l1.197,1.49c0.229,0.289,0.356,0.645,0.356,1.014v6.146C52.873,55.57,52.148,56.295,51.254,56.295z"/>
</g>
</svg>
