<?xml version="1.0" encoding="utf-8"?>
<!-- Generator: Adobe Illustrator 16.0.0, SVG Export Plug-In . SVG Version: 6.00 Build 0)  -->
<!DOCTYPE svg PUBLIC "-//W3C//DTD SVG 1.1//EN" "http://www.w3.org/Graphics/SVG/1.1/DTD/svg11.dtd">
<svg id="Layer_1" data-name="Layer 1" xmlns="http://www.w3.org/2000/svg" viewBox="0 0 64 64">
    <defs>
        <style>.cls-1{fill:#010101;}</style>
    </defs>
    <title>_</title>
    <path class="cls-1"
          d="M46.28,5.74A29.62,29.62,0,0,0,6,17.61,30.1,30.1,0,0,0,17.72,58.26,29.61,29.61,0,0,0,58,46.39,30.1,30.1,0,0,0,46.28,5.74Zm8,38.55L54,44.77,49.4,42.19a1.48,1.48,0,0,0-1.75.21L39,50.47a1.52,1.52,0,0,0-.34,1.74l1.78,3.89A25.18,25.18,0,0,1,27.69,57.2l0.74-3.79a1.51,1.51,0,0,0-.74-1.61L17.41,46a1.48,1.48,0,0,0-1.75.21l-2.79,2.6A25.69,25.69,0,0,1,7.34,38l4.27-.51a1.5,1.5,0,0,0,1.29-1.2l2.29-11.65A1.51,1.51,0,0,0,14.45,23L9.5,20.21c0.09-.17.16-0.33,0.25-0.5a25.35,25.35,0,0,1,8.83-9.41l1.53,3.28a1.49,1.49,0,0,0,1.54.85l11.69-1.5a1.5,1.5,0,0,0,1.28-1.22l0.94-5A25.31,25.31,0,0,1,50,13.95l-4.15,3.94a1.52,1.52,0,0,0-.33,1.74l5,10.74a1.5,1.5,0,0,0,1.54.85l5.26-.68A25.59,25.59,0,0,1,54.24,44.29Z"/>
    <path class="cls-1"
          d="M37.74,22.41a1.5,1.5,0,0,0-.63-0.68,1.47,1.47,0,0,0-.91-0.17l-11.69,1.5a1.5,1.5,0,0,0-1.28,1.22L21,35.94a1.51,1.51,0,0,0,.75,1.61l10.33,5.71A1.49,1.49,0,0,0,33.87,43l8.58-8.14a1.52,1.52,0,0,0,.33-1.74Z"/>
</svg>
