<?xml version="1.0" encoding="utf-8"?>
<!-- Generator: Adobe Illustrator 16.0.0, SVG Export Plug-In . SVG Version: 6.00 Build 0)  -->
<!DOCTYPE svg PUBLIC "-//W3C//DTD SVG 1.1//EN" "http://www.w3.org/Graphics/SVG/1.1/DTD/svg11.dtd">
<svg version="1.1" id="Layer_1" xmlns="http://www.w3.org/2000/svg" xmlns:xlink="http://www.w3.org/1999/xlink" x="0px" y="0px"
	 width="64px" height="64px" viewBox="0 0 64 64" enable-background="new 0 0 64 64" xml:space="preserve">
<path class="tag-color" d="M25.31,26.913c0,0-2.293,2.832-0.429,4.603c1.863,1.771,3.533-0.191,6.423-2.986
	c2.888-2.796,17.7-16.867,17.7-16.867s0.512-0.888,0.465-1.68c-0.047-0.791,9.923-5.823,10.529-5.87C60.603,4.065,62,4.53,62,5.65
	c0,1.116-0.466,2.515-2.469,2.003c-2.003-0.514-2.563,3.587-4.52,4.891l-1.443-0.046c0,0-1.166,0.046-2.237,1.118
	c-1.07,1.07-24.04,24.412-24.04,24.412s0.466,2.423,2.283,2.562c1.815,0.14,3.121-0.699,3.866-1.258s1.677,0.279,1.537,1.258
	c-0.139,0.979-0.513,2.562-3.168,3.913c-2.654,1.352-5.684,1.118-7.361,7.549c-1.677,6.429-7.313,8.991-10.621,7.359
	c-3.309-1.631-5.917-4.145-9.504-8.385c-3.588-4.239-3.916-10.344,5.543-13.744c9.457-3.401,6.999-7.163,11.658-11.356
	c4.658-4.194,5.946-0.482,4.48,0.289L25.31,26.913z"/>
</svg>
