<?xml version="1.0" encoding="utf-8"?>
<!-- Generator: Adobe Illustrator 16.0.0, SVG Export Plug-In . SVG Version: 6.00 Build 0)  -->
<!DOCTYPE svg PUBLIC "-//W3C//DTD SVG 1.1//EN" "http://www.w3.org/Graphics/SVG/1.1/DTD/svg11.dtd">
<svg version="1.1" id="Layer_1" xmlns="http://www.w3.org/2000/svg" xmlns:xlink="http://www.w3.org/1999/xlink" x="0px" y="0px"
	 width="64px" height="64px" viewBox="0 0 64 64" enable-background="new 0 0 64 64" xml:space="preserve">
<path fill="#010101" d="M61.819,26.93c-1.062-0.276-2.694,3.96-6.527,3.96c-4.921,0-7.237-8.485-14.928-8.485
	c-6.103,0-7.961,4.864-8.365,4.864c-0.403,0-2.262-4.864-8.363-4.864c-7.69,0-10.008,8.485-14.93,8.485
	c-3.832,0-5.462-4.236-6.525-3.96c-0.994,0.259,1.831,14.666,15.293,14.666c8.734,0,13.869-6.948,14.525-6.948
	c0.658,0,5.793,6.948,14.526,6.948C59.987,41.597,62.812,27.188,61.819,26.93z"/>
</svg>
