<?xml version="1.0" encoding="utf-8"?>
<!-- Generator: Adobe Illustrator 16.0.0, SVG Export Plug-In . SVG Version: 6.00 Build 0)  -->
<!DOCTYPE svg PUBLIC "-//W3C//DTD SVG 1.1//EN" "http://www.w3.org/Graphics/SVG/1.1/DTD/svg11.dtd">
<svg version="1.1" id="Layer_1" xmlns="http://www.w3.org/2000/svg" xmlns:xlink="http://www.w3.org/1999/xlink" x="0px" y="0px"
	 width="64px" height="64px" viewBox="0 0 64 64" enable-background="new 0 0 64 64" xml:space="preserve">
<g>
	<path fill="#010101" d="M32.506,34.099c-4.21-5.971-9.185-9.991-12.375-9.991c-0.696,0-1.304,0.18-1.809,0.54
		c-0.396,0.288-0.705,0.655-0.921,1.101c-0.006,0.009-0.016,0.015-0.021,0.024L2.107,54.468c-0.162,0.31-0.14,0.687,0.06,0.971
		c0.175,0.249,0.465,0.4,0.763,0.4c0.041,0,0.082-0.006,0.13-0.012l32.285-4.66c0.101-0.02,0.198-0.059,0.28-0.106
		c0.366-0.087,0.712-0.218,0.991-0.421C39.877,48.337,36.938,40.396,32.506,34.099z M35.539,49.127
		c-0.127,0.094-0.292,0.152-0.491,0.179c-2.056,0.29-6.72-2.981-11.086-9.192c-4.248-6.035-5.843-11.604-4.92-13.51
		c0.085-0.192,0.206-0.333,0.354-0.447c0.19-0.127,0.43-0.188,0.738-0.188c2.123,0,6.646,3.219,10.857,9.202
		C35.985,42.275,37.009,48.091,35.539,49.127z"/>
	<g>
		<path fill="#010101" d="M38.84,31.085c-0.22,0-0.442-0.006-0.674-0.021c-0.506-0.021-0.904-0.459-0.87-0.974
			c0.02-0.506,0.495-0.909,0.974-0.871c5.992,0.325,11.088-4.294,11.401-10.271c0.246-4.677-3.36-8.681-8.037-8.923
			c-1.79-0.099-3.46,0.506-4.768,1.69c-1.316,1.176-2.089,2.798-2.177,4.559c-0.075,1.365,0.383,2.669,1.296,3.689
			c0.912,1.012,2.17,1.606,3.527,1.68c1.011,0.062,2.038-0.298,2.813-0.999c0.772-0.691,1.225-1.647,1.284-2.686
			c0.024-0.517,0.496-0.918,0.972-0.883c0.511,0.033,0.906,0.466,0.877,0.975c-0.084,1.536-0.755,2.946-1.897,3.977
			c-1.139,1.027-2.604,1.55-4.144,1.464c-1.862-0.094-3.564-0.915-4.809-2.292c-1.241-1.38-1.872-3.167-1.78-5.021
			c0.118-2.259,1.113-4.335,2.792-5.848c1.686-1.513,3.847-2.27,6.11-2.16c5.698,0.298,10.088,5.184,9.79,10.881
			C51.169,25.82,45.548,31.085,38.84,31.085z"/>
	</g>
	<g>
		<path fill="#010101" d="M57.833,43.244c-1.923,0-3.482-1.561-3.482-3.474c0-1.618,1.314-2.929,2.929-2.929
			c0.393,0,0.715,0.321,0.715,0.714c0,0.402-0.322,0.718-0.715,0.718c-0.824,0-1.493,0.666-1.493,1.497
			c0,1.125-0.121,2.042,1.012,2.042c1.51,0,3.771-1.231,3.771-2.738c0-1.982-1.62-3.595-3.603-3.595
			c-2.58,0-4.683,2.096-4.683,4.674c0,0.402-0.315,0.726-0.714,0.726c-0.395,0-0.714-0.323-0.714-0.726
			c0-3.367,2.742-6.112,6.11-6.112C59.74,34.041,62,36.3,62,39.074C62,41.375,60.131,43.244,57.833,43.244z"/>
	</g>
	<g>
		<path fill="#010101" d="M43.521,39.365c-1.131,0-2.055-0.922-2.055-2.061c0-1.137,0.924-2.061,2.055-2.061
			c1.133,0,2.056,0.924,2.056,2.061C45.576,38.443,44.652,39.365,43.521,39.365z M44.157,37.978c0.005,0,0.009-0.011,0.009-0.024
			c0-0.017-0.004-0.027-0.009-0.027"/>
	</g>
	<g>
		<path fill="#010101" d="M50.76,31.598c-0.254,0-0.505-0.142-0.635-0.382c-0.19-0.348-0.056-0.785,0.293-0.972l5.762-3.077
			c0.347-0.191,0.782-0.055,0.971,0.294c0.189,0.346,0.056,0.782-0.293,0.969l-5.761,3.078C50.99,31.565,50.875,31.598,50.76,31.598
			z"/>
	</g>
	<g>
		<path fill="#010101" d="M25.794,21.47c-0.063,0-0.13-0.012-0.201-0.034c-0.383-0.115-0.592-0.513-0.478-0.895l1.524-5.038
			c0.121-0.38,0.522-0.592,0.899-0.477c0.375,0.114,0.591,0.516,0.478,0.894l-1.531,5.036C26.396,21.267,26.104,21.47,25.794,21.47z
			"/>
	</g>
	<g>
		<path fill="#010101" d="M49.093,46.858c-0.054,0-0.108-0.01-0.166-0.027l-6.913-1.668c-0.388-0.1-0.625-0.482-0.525-0.87
			c0.089-0.383,0.473-0.627,0.859-0.523l6.912,1.669c0.39,0.1,0.625,0.481,0.532,0.868C49.715,46.637,49.423,46.858,49.093,46.858z"
			/>
	</g>
</g>
</svg>
