<?xml version="1.0" encoding="utf-8"?>
<!-- Generator: Adobe Illustrator 16.0.0, SVG Export Plug-In . SVG Version: 6.00 Build 0)  -->
<!DOCTYPE svg PUBLIC "-//W3C//DTD SVG 1.1//EN" "http://www.w3.org/Graphics/SVG/1.1/DTD/svg11.dtd">
<svg version="1.1" id="Layer_1" xmlns="http://www.w3.org/2000/svg" xmlns:xlink="http://www.w3.org/1999/xlink" x="0px" y="0px"
	 width="64px" height="64px" viewBox="0 0 64 64" enable-background="new 0 0 64 64" xml:space="preserve">
<g>
	<path class="tag-color" d="M32,2C15.465,2,2,15.466,2,32s13.465,30,30,30c16.533,0,30-13.466,30-30S48.533,2,32,2z M28.668,55.065
		c-3.934-0.596-7.6-2.131-10.602-4.4l10.602-10.601V55.065z M28.668,30.601L13.336,45.933c-2.934-3.866-4.67-8.733-4.67-13.933
		c0-11.735,8.732-21.469,20.002-23.064V30.601z M35.332,55.065V40.064l10.6,10.601C42.932,53.002,39.268,54.531,35.332,55.065z
		 M50.664,45.933L35.332,30.601V8.936C46.602,10.531,55.336,20.265,55.336,32C55.336,37.267,53.598,42.066,50.664,45.933z"/>
</g>
</svg>
