<?xml version="1.0" encoding="utf-8"?>
<!-- Generator: Adobe Illustrator 16.0.0, SVG Export Plug-In . SVG Version: 6.00 Build 0)  -->
<!DOCTYPE svg PUBLIC "-//W3C//DTD SVG 1.1//EN" "http://www.w3.org/Graphics/SVG/1.1/DTD/svg11.dtd">
<svg id="Layer_1" data-name="Layer 1" xmlns="http://www.w3.org/2000/svg" viewBox="0 0 64 64">
    <defs>
        <style>.cls-1{fill:#010101;}</style>
    </defs>
    <title>_</title>
    <path class="cls-1" d="M32,61.77A17.41,17.41,0,0,0,49.41,44.35H14.59A17.41,17.41,0,0,0,32,61.77Z"/>
    <path class="cls-1" d="M49.41,33.74H35.8a4.14,4.14,0,0,1-7.59,0H14.59L7.12,42H56.88Z"/>
    <path class="cls-1"
          d="M32,27.94a4.14,4.14,0,0,1,3.8,2.49H49.41V23A17.47,17.47,0,0,0,36.12,6.14a4.13,4.13,0,0,0-8.24,0A17.47,17.47,0,0,0,14.59,23v7.39H28.2A4.14,4.14,0,0,1,32,27.94Z"/>
</svg>
