<?xml version="1.0" encoding="utf-8"?>
<!-- Generator: Adobe Illustrator 16.0.0, SVG Export Plug-In . SVG Version: 6.00 Build 0)  -->
<!DOCTYPE svg PUBLIC "-//W3C//DTD SVG 1.1//EN" "http://www.w3.org/Graphics/SVG/1.1/DTD/svg11.dtd">
<svg version="1.1" id="Layer_1" xmlns="http://www.w3.org/2000/svg" xmlns:xlink="http://www.w3.org/1999/xlink" x="0px" y="0px"
	 width="64px" height="64px" viewBox="0 0 64 64" enable-background="new 0 0 64 64" xml:space="preserve">
<g>
	<path class="tag-color" d="M21.03,7.834c-0.004,5.054,3.5,9.584,10.833,14.917c-0.556,1.369-2.097,4.316-2.873,5.353
		c-0.145,0.194-0.685,0.733-1.301,1.353c-3.803,3.8-12.494,12.487-13.066,21.391c-2.327,0.085-4.239,1.925-4.394,4.257
		c-0.173,2.508,1.726,4.695,4.236,4.868c0.931,0.065,1.829-0.157,2.628-0.631c0.499,0.675,1.064,1.545,1.696,2.161
		C18.971,61.678,19.213,62,19.468,62h20.259c0.314,0,0.606-0.377,0.789-0.623c0.182-0.257,0.228-0.695,0.127-0.988
		c-0.06-0.179-1.301-3.76-4.437-5.449c1.511-1.163,2.62-3.047,3.312-4.509c1.939,3.981,4.15,5.974,6.587,5.974
		c1.683,0,2.743-0.996,2.86-1.113c0.262-0.242,0.355-0.625,0.254-0.969l-5.061-16.877c3.105-0.745,6.962-3.71,8.656-6.812
		c1.203-2.21,1.288-4.336,0.23-6.134c-2.69-4.599-11.652-6.889-14.066-7.436c-0.797-2.745-4.485-14.028-11.789-14.999
		C26.873,2.024,26.573,2,26.279,2c-2.355,0-4.139,1.333-4.874,3.582 M51.124,29.71c-1.751,3.198-5.939,5.892-8.252,5.983
		c-0.296,0.016-0.57,0.159-0.741,0.402c-0.174,0.243-0.223,0.557-0.141,0.839l5.181,17.267c-0.259,0.137-0.627,0.268-1.066,0.268
		c-1.111,0-3.335-0.899-5.736-6.904c-0.145-0.371-0.535-0.618-0.93-0.598c-0.408,0.008-0.762,0.286-0.884,0.671
		c-0.539,1.71-2.507,6.188-5.158,6.423c-0.488,0.042-0.872,0.448-0.881,0.938c-0.01,0.498,0.36,1.187,0.855,1.244
		c2.521,0.306,4.06,2.089,4.835,3.919h-18.34c-0.669-1.225-1.241-1.666-1.704-2.409c-0.137-0.225-0.371-0.518-0.631-0.565
		c-0.265-0.049-0.532-0.057-0.745,0.097l-0.516,0.338c-0.485,0.337-1.075,0.482-1.669,0.436c-1.449-0.095-2.553-1.361-2.449-2.82
		c0.09-1.371,1.244-2.461,2.625-2.461c0.062,0,0.124,0.001,0.163,0.004l0.527,0.051c0.272,0.018,0.541-0.065,0.741-0.253
		c0.198-0.186,0.31-0.45,0.307-0.718c-0.063-8.45,9.089-17.597,12.531-21.036c0.788-0.786,1.263-1.255,1.494-1.562
		c1.594-2.125,3.114-6.491,3.181-6.679c0.152-0.455-0.052-0.958-0.473-1.174c-8.427-4.32-11.001-11.292-10.132-14.858
		c0.237-0.977,0.955-2.62,3.162-2.62c0.207,0,0.423,0.017,0.652,0.042c6.863,0.923,10.308,14.017,10.337,14.151
		c0.093,0.362,0.386,0.634,0.744,0.708c2.981,0.591,11.188,2.935,13.365,6.638C52.083,26.678,52,28.104,51.124,29.71z
		 M43.093,53.035 M37.92,35.769 M41.99,36.935l5.181,17.267"/>
</g>
</svg>
