<?xml version="1.0" encoding="utf-8"?>
<!-- Generator: Adobe Illustrator 16.0.0, SVG Export Plug-In . SVG Version: 6.00 Build 0)  -->
<!DOCTYPE svg PUBLIC "-//W3C//DTD SVG 1.1//EN" "http://www.w3.org/Graphics/SVG/1.1/DTD/svg11.dtd">
<svg version="1.1" id="Layer_1" xmlns="http://www.w3.org/2000/svg" xmlns:xlink="http://www.w3.org/1999/xlink" x="0px" y="0px"
	 width="64px" height="64px" viewBox="0 0 64 64" enable-background="new 0 0 64 64" xml:space="preserve">
<g id="Your_Icon">
	<path fill="#010101" d="M51.986,2c-1.676,0-3.036,1.36-3.036,3.034V28.84c0,0.844-0.683,1.518-1.517,1.518
		c-0.84,0-1.518-0.674-1.518-1.518v-8.812c0-1.676-1.358-3.038-3.043-3.038c-1.669,0-3.033,1.362-3.033,3.038v8.811
		c0,0.845-0.675,1.519-1.517,1.519s-1.515-0.674-1.515-1.519v-8.641c0-1.676-1.358-3.035-3.035-3.035
		c-1.683,0-3.033,1.358-3.033,3.035v8.642c0,0.844-0.686,1.518-1.521,1.518s-1.514-0.674-1.514-1.518V5.034
		C27.705,3.36,26.343,2,24.667,2s-3.035,1.36-3.035,3.034v31.711c0,1.821-1.474,3.295-3.292,3.295c-1.814,0-3.288-1.474-3.288-3.295
		v-6.145c0-1.677-1.356-3.031-3.033-3.031c-1.681,0-3.034,1.354-3.034,3.031v7.505l0.032,1.937C9.642,52.273,19.76,62,32.146,62
		c11.543,0,21.12-8.459,22.87-19.51v-0.542v-1.906V5.034C55.018,3.36,53.657,2,51.986,2z"/>
</g>
</svg>
