<?xml version="1.0" encoding="utf-8"?>
<!-- Generator: Adobe Illustrator 16.0.0, SVG Export Plug-In . SVG Version: 6.00 Build 0)  -->
<!DOCTYPE svg PUBLIC "-//W3C//DTD SVG 1.1//EN" "http://www.w3.org/Graphics/SVG/1.1/DTD/svg11.dtd">
<svg version="1.1" id="Layer_1" xmlns="http://www.w3.org/2000/svg" xmlns:xlink="http://www.w3.org/1999/xlink" x="0px" y="0px"
	 width="64px" height="64px" viewBox="0 0 64 64" enable-background="new 0 0 64 64" xml:space="preserve">
<g>
	<g>
		<path class="tag-color" d="M44.419,20.605c-5.425-2.445-10.153,0.701-12.516,2.811c-1.98-2.109-6.897-5.256-12.322-2.811
			C14.8,22.77,10.421,30.718,2,32.123c0,0,15.859,10.201,18.076,11.062c1.255,0.493,6.875,2.719,11.827-1.066
			c5.572,3.785,10.765,1.56,12.021,1.066C46.142,42.324,62,32.123,62,32.123C53.579,30.718,49.2,22.77,44.419,20.605z"/>
	</g>
	<path fill="#FFFFFF" stroke="#000000" stroke-miterlimit="10" d="M32.167,37.166c-5.867-0.143-19.5-6.267-19.5-6.267
		c2.753-0.275,11.232-0.766,15.812,0.54c0.997,0.289,2.02,0.488,3.053,0.607c1.159,0.143,2.356-0.124,3.482-0.387
		c0.283-0.068,0.562-0.141,0.84-0.221c4.578-1.306,13.059-0.815,15.812-0.54C51.667,30.899,38.034,37.023,32.167,37.166z"/>
</g>
</svg>
