<?xml version="1.0" encoding="utf-8"?>
<!-- Generator: Adobe Illustrator 16.0.0, SVG Export Plug-In . SVG Version: 6.00 Build 0)  -->
<!DOCTYPE svg PUBLIC "-//W3C//DTD SVG 1.1//EN" "http://www.w3.org/Graphics/SVG/1.1/DTD/svg11.dtd">
<svg version="1.1" id="Layer_1" xmlns="http://www.w3.org/2000/svg" xmlns:xlink="http://www.w3.org/1999/xlink" x="0px" y="0px"
	 width="64px" height="64px" viewBox="0 0 64 64" enable-background="new 0 0 64 64" xml:space="preserve">
<g>
	<path class="tag-color" d="M2,38.585c0,5.395,4.701,11.612,10.5,11.612h38.998c5.8,0,10.501-6.218,10.501-11.612
		c0-4.844-3.81-10.691-8.791-11.457c0.083-0.386,0.175-0.783,0.131-1.194c-0.659-5.916-7.843-8.237-11.314-7.744
		c-1.959,0.274-5.513,1.092-6.097,3.527c-2.174-6.094-6.651-7.914-12.276-7.914c-7.251,0-13.124,5.453-13.124,12.191
		c0,0.389,0.019,0.769,0.063,1.149C5.706,27.986,2,33.803,2,38.585z M26.114,42.4h-8.429c-1.138,0-1.802-0.645-1.802-1.543
		c0-0.43,0.148-0.859,0.429-1.248l6.909-9.648h-5.644c-0.856,0-1.5-0.499-1.5-1.375c0-0.819,0.684-1.46,1.5-1.46h7.85
		c1.244,0,1.805,0.799,1.805,1.547c0,0.473-0.197,1.011-0.474,1.368l-6.866,9.53h6.222c0.898,0,1.542,0.487,1.542,1.415
		C27.658,41.803,26.887,42.4,26.114,42.4z M36.82,42.4h-7.183c-0.688,0-1.269-0.348-1.269-1.055c0-0.345,0.172-0.661,0.28-0.833
		l4.849-6.823h-3.583c-0.771,0-1.394-0.488-1.394-1.353c0-0.855,0.623-1.351,1.394-1.351h7.015c0.279,0,1.006,0.129,1.006,0.968
		c0,0.407-0.087,0.603-0.321,0.921L32.747,39.7h4.073c0.774,0,1.396,0.487,1.396,1.351C38.216,41.908,37.592,42.4,36.82,42.4z
		 M47.137,42.4h-7.184c-0.685,0-1.263-0.348-1.263-1.055c0-0.345,0.169-0.661,0.278-0.833l4.848-6.823h-3.583
		c-0.775,0-1.393-0.488-1.393-1.353c0-0.855,0.618-1.351,1.393-1.351h7.014c0.281,0,1.009,0.129,1.009,0.968
		c0,0.407-0.09,0.603-0.324,0.921L43.063,39.7h4.074c0.776,0,1.398,0.487,1.398,1.351C48.535,41.908,47.913,42.4,47.137,42.4z"/>
</g>
</svg>
