<?xml version="1.0" encoding="utf-8"?>
<!-- Generator: Adobe Illustrator 16.0.0, SVG Export Plug-In . SVG Version: 6.00 Build 0)  -->
<!DOCTYPE svg PUBLIC "-//W3C//DTD SVG 1.1//EN" "http://www.w3.org/Graphics/SVG/1.1/DTD/svg11.dtd">
<svg version="1.1" id="Layer_1" xmlns="http://www.w3.org/2000/svg" xmlns:xlink="http://www.w3.org/1999/xlink" x="0px" y="0px"
	 width="64px" height="64px" viewBox="0 0 64 64" enable-background="new 0 0 64 64" xml:space="preserve">
<g>
	<polygon fill="#010101" points="62,21.819 32,33.998 2,21.819 32,9.64 	"/>
	<path fill="#010101" d="M32,35.989l-20.002-8.115v12.667c0,1.354,8.948,8.258,20.002,8.258c11.054,0,20.001-6.903,20.001-8.258
		V27.874L32,35.989z"/>
	<path fill="#010101" d="M57.725,39.349c1.083,0,1.96-0.919,1.96-2.053c0-0.89-0.545-1.641-1.301-1.925V25.297l-1.2,0.482v9.553
		c-0.819,0.247-1.42,1.028-1.42,1.964C55.764,38.43,56.642,39.349,57.725,39.349z"/>
	<path fill="#010101" d="M59.01,53.38c0,0.552,0.552,0.735,0.98,0c1.472-6.25,0.185-12.254-0.305-14.031
		c-1.96,1.715-3.921-0.062-3.921-0.062s-0.736,2.818-0.858,4.718c-0.123,1.899-0.031,3.619,0.094,5.182
		c0.062,1.688,0.457,3.58,0.764,4.56c0.306,0.98,0.918,0.49,0.918,0.49"/>
	<path fill="#010101" d="M57.725,53.864c0.123-0.371,0.857-0.361,0.857-0.361"/>
	<path fill="#010101" d="M57.112,54.237"/>
</g>
</svg>
