<?xml version="1.0" encoding="utf-8"?>
<!-- Generator: Adobe Illustrator 16.0.0, SVG Export Plug-In . SVG Version: 6.00 Build 0)  -->
<!DOCTYPE svg PUBLIC "-//W3C//DTD SVG 1.1//EN" "http://www.w3.org/Graphics/SVG/1.1/DTD/svg11.dtd">
<svg id="Layer_1" data-name="Layer 1" xmlns="http://www.w3.org/2000/svg" viewBox="0 0 64 64">
    <path class="tag-color" d="M32.25,16.11a1.85,1.85,0,0,1-1.85-1.85V3.76a1.85,1.85,0,1,1,3.7,0V14.25A1.85,1.85,0,0,1,32.25,16.11Z"/>
    <path class="tag-color" d="M32.25,62a1.85,1.85,0,0,1-1.85-1.85V49.67a1.85,1.85,0,1,1,3.7,0V60.16A1.85,1.85,0,0,1,32.25,62Z"/>
    <path class="tag-color" d="M60.94,34.31H50.45a1.85,1.85,0,1,1,0-3.7H60.94A1.85,1.85,0,1,1,60.94,34.31Z"/>
    <path class="tag-color" d="M14,34.31H3.55a1.85,1.85,0,1,1,0-3.7H14A1.85,1.85,0,1,1,14,34.31Z"/>
    <path class="tag-color" d="M52.54,54.61a1.85,1.85,0,0,1-1.31-.54l-7.42-7.42A1.85,1.85,0,0,1,46.43,44l7.42,7.42A1.85,1.85,0,0,1,52.54,54.61Z"/>
    <path class="tag-color" d="M19.37,21.44a1.85,1.85,0,0,1-1.31-.54l-7.42-7.42a1.85,1.85,0,0,1,2.62-2.62l7.42,7.42A1.85,1.85,0,0,1,19.37,21.44Z"/>
    <path class="tag-color" d="M12,54.61a1.85,1.85,0,0,1-1.31-3.16L18.06,44a1.85,1.85,0,1,1,2.62,2.62l-7.42,7.42A1.84,1.84,0,0,1,12,54.61Z"/>
    <path class="tag-color" d="M45.12,21.44a1.85,1.85,0,0,1-1.31-3.16l7.42-7.42a1.85,1.85,0,0,1,2.62,2.62L46.43,20.9A1.84,1.84,0,0,1,45.12,21.44Z"/>
    <path class="tag-color" d="M32.25,44.53A12.07,12.07,0,1,1,44.32,32.46,12.09,12.09,0,0,1,32.25,44.53Z"/>
</svg>
