<?xml version="1.0" encoding="utf-8"?>
<!-- Generator: Adobe Illustrator 16.0.0, SVG Export Plug-In . SVG Version: 6.00 Build 0)  -->
<!DOCTYPE svg PUBLIC "-//W3C//DTD SVG 1.1//EN" "http://www.w3.org/Graphics/SVG/1.1/DTD/svg11.dtd">
<svg id="Layer_1" data-name="Layer 1" xmlns="http://www.w3.org/2000/svg" viewBox="0 0 64 64">
    <path class="tag-color"
          d="M48.83,21.12c14.18,0,12.9,6.53,12.9,6.53s-1,7.82-2.1,10c0,0-1.6,5.26-10.8,5.26S38,37.61,38,37.61c-1.08-2.15-2.1-10-2.1-10a2.9,2.9,0,0,1,0-.76l-2.11-1.05h0a4.78,4.78,0,0,0-3.61,0l-2.11,1.05a2.94,2.94,0,0,1,0,.76s-1,7.82-2.1,10c0,0-1.6,5.26-10.8,5.26s-10.8-5.26-10.8-5.26c-1.08-2.15-2.1-10-2.1-10S1,21.12,15.18,21.12c7.15,0,10.37,1.66,11.8,3.31l2-1a7.41,7.41,0,0,1,6,0l2,1c1.43-1.65,4.65-3.31,11.8-3.31"/>
</svg>
