<?xml version="1.0" encoding="utf-8"?>
<!-- Generator: Adobe Illustrator 16.0.0, SVG Export Plug-In . SVG Version: 6.00 Build 0)  -->
<!DOCTYPE svg PUBLIC "-//W3C//DTD SVG 1.1//EN" "http://www.w3.org/Graphics/SVG/1.1/DTD/svg11.dtd">
<svg version="1.1" id="Layer_1" xmlns="http://www.w3.org/2000/svg" xmlns:xlink="http://www.w3.org/1999/xlink" x="0px" y="0px"
	 width="64px" height="64px" viewBox="0 0 64 64" enable-background="new 0 0 64 64" xml:space="preserve">
<g>
	<g>
		<path fill="#010101" d="M58.131,38.647h-0.005c2.534-3.326,3.952-7.218,3.87-11.348C61.764,15.42,49.192,6.031,33.919,6.332
			C18.649,6.633,6.46,16.51,6.694,28.387c0.005,0.219,0.014,0.435,0.024,0.651l0.75-0.481c-0.004-0.062,4.03-2.143,4.03-2.211
			c0-8.64,12.53-16.947,22.418-16.947c8.914,0,24.183,5.114,24.183,17.945c0,3.879-2.228,7.764-4.636,10.886
			c-2.019,3.126,0.386,10.159,0.386,10.159l-7.908-4.213c-2.074,0.645-5.271,0.947-6.146,1.196
			c-1.061,2.476-2.705,3.866-2.705,3.866c2.789-0.195,4.936-0.67,7.421-1.455l14.011,6.024
			C58.521,53.807,53.777,44.224,58.131,38.647z M20.895,25.727C10.619,25.523,2.158,31.842,2.002,39.838
			c-0.056,2.781,0.902,5.395,2.604,7.637H4.604c2.929,3.75-0.268,10.2-0.268,10.2l9.429-4.052c2.033,0.641,4.246,1.012,6.555,1.059
			c10.281,0.203,18.741-6.115,18.897-14.112C39.374,32.573,31.171,25.928,20.895,25.727z"/>
	</g>
</g>
</svg>
