<?xml version="1.0" encoding="utf-8"?>
<!-- Generator: Adobe Illustrator 16.0.0, SVG Export Plug-In . SVG Version: 6.00 Build 0)  -->
<!DOCTYPE svg PUBLIC "-//W3C//DTD SVG 1.1//EN" "http://www.w3.org/Graphics/SVG/1.1/DTD/svg11.dtd">
<svg version="1.1" id="Layer_1" xmlns="http://www.w3.org/2000/svg" xmlns:xlink="http://www.w3.org/1999/xlink" x="0px" y="0px"
	 width="64px" height="64px" viewBox="0 0 64 64" enable-background="new 0 0 64 64" xml:space="preserve">
<g>
	<path fill="#010101" d="M16.606,22.356V62h32.845V22.356H16.606z"/>
	<path fill="#010101" d="M41.834,3.493l-4.616,2.311l-0.477-0.961c-1.279-2.543-4.381-3.572-6.912-2.292l-6.783,3.39
		c-2.532,1.275-3.571,4.375-2.291,6.917l0.475,0.952l-4.592,2.312l-2.089,1.046l2.091,4.142l2.064-1.035L43.902,7.643l2.089-1.043
		L43.9,2.451L41.834,3.493z M22.809,12.724c-1.001-2-0.187-4.441,1.813-5.448l5.332-2.671c1.999-1.005,4.447-0.197,5.449,1.812
		l0.119,0.238L22.927,12.96L22.809,12.724z"/>
</g>
</svg>
