<?xml version="1.0" encoding="utf-8"?>
<!-- Generator: Adobe Illustrator 19.1.0, SVG Export Plug-In . SVG Version: 6.00 Build 0)  -->
<!DOCTYPE svg PUBLIC "-//W3C//DTD SVG 1.1//EN" "http://www.w3.org/Graphics/SVG/1.1/DTD/svg11.dtd">
<svg version="1.1" id="Layer_1" xmlns="http://www.w3.org/2000/svg" xmlns:xlink="http://www.w3.org/1999/xlink" x="0px" y="0px"
	 viewBox="-31 29 36 44" enable-background="new -31 29 36 44" xml:space="preserve">
<path d="M-4.1,49.5h-1.6l-5.4-10.3V36l-1.6,0.9l0.9,0.8v1.6h-2.5V36l-1.6,0.9l0.9,0.8v1.6l-5.4,10.3h-1.6v4.7h2.3L-20.4,66
	c0,0,5.5-0.5,7.4-0.5S-5.6,66-5.6,66l-0.7-11.8h2.3V49.5z M-13,60.6c-1.5,0-2.7-1.2-2.7-2.7c0-1.5,1.2-2.7,2.7-2.7s2.7,1.2,2.7,2.7
	C-10.3,59.4-11.5,60.6-13,60.6z"/>
</svg>
