<?xml version="1.0" encoding="utf-8"?>
<!-- Generator: Adobe Illustrator 16.0.0, SVG Export Plug-In . SVG Version: 6.00 Build 0)  -->
<!DOCTYPE svg PUBLIC "-//W3C//DTD SVG 1.1//EN" "http://www.w3.org/Graphics/SVG/1.1/DTD/svg11.dtd">
<svg version="1.1" id="Layer_1" xmlns="http://www.w3.org/2000/svg" xmlns:xlink="http://www.w3.org/1999/xlink" x="0px" y="0px"
	 width="300px" height="300px" viewBox="0 0 300 300" style="enable-background:new 0 0 300 300;" xml:space="preserve">
<g id="Restricted">
</g>
<g id="Help">
</g>
<g>
	<path style="fill-rule:evenodd;clip-rule:evenodd;" d="M201.123,267.45c-6.359-5.487-12.726-10.971-19.085-16.459
		c-2.879-2.483-5.759-4.977-8.753-7.559c-7.543,8.035-15.039,16.013-22.602,24.068c-7.61-8.049-15.158-16.034-22.755-24.068
		c-8.988,7.986-17.889,15.893-26.786,23.797c-0.088-0.041-0.173-0.086-0.258-0.128c0.307-1.977,0.617-3.954,0.931-5.932
		c1.194-7.589,2.395-15.179,3.595-22.759c1.207-7.589,2.42-15.174,3.624-22.761c1.2-7.588,2.39-15.18,3.596-22.77
		c1.265-8.036,2.545-16.072,3.823-24.106c0.624-3.915,1.273-7.825,1.855-11.75c0.106-0.719,0.312-0.997,1.065-0.997
		c20.424,0.025,40.849,0.03,61.273,0.04c0.035,0,0.077,0.019,0.293,0.069c0.421,2.26,0.861,4.593,1.285,6.927
		c1.552,8.489,3.098,16.976,4.639,25.468c1.606,8.856,3.2,17.712,4.805,26.57c1.696,9.385,3.397,18.77,5.097,28.155
		c1.363,7.517,2.726,15.028,4.102,22.544c0.041,0.227,0.17,0.437,0.256,0.659C201.123,266.788,201.123,267.119,201.123,267.45z"/>
	<path style="fill-rule:evenodd;clip-rule:evenodd;" d="M118.331,32.5c2.068,0.357,4.139,0.701,6.204,1.071
		c8.169,1.46,15.244,5.217,21.809,10.167c6.228,4.699,10.966,10.607,14.731,17.379c2.757,4.947,5.533,9.88,7.404,15.252
		c3.006,8.634,5.27,17.463,6.521,26.528c0.5,3.604,0.953,7.213,1.407,10.816c0.086,0.695,0.086,1.401,0.13,2.228
		c-17.162,0-34.246,0-51.316,0c0.389-4.527,0.822-9.075,1.174-13.629c0.54-7.002,0.074-13.936-2.479-20.528
		c-2.43-6.276-6.514-11.105-13.449-12.563c-7.013-1.479-14.219,0.572-18.164,7.09c-2.308,3.809-2.783,9.26,0.043,12.747
		c1.934,2.386,5.156,2.782,7.059,0.819c1.188-1.226,1.273-2.636,0.719-4.136c-0.523-1.433-1.643-2.145-3.115-2.272
		c-0.852-0.076-1.709-0.014-2.588-0.014c-0.294-3.415,2.665-7.158,6.426-7.944c7.659-1.601,14.16,2.903,15.693,10.872
		c1.557,8.06-2.222,16.903-9.156,21.139c-4.12,2.519-8.664,3.357-13.457,2.902c-4.3-0.413-8.521-1.151-12.348-3.319
		c-8.702-4.938-13.749-12.525-15.96-22.146c-0.261-1.157-0.494-2.322-0.741-3.48c0-3.395,0-6.798,0-10.194
		c0.2-0.997,0.399-2.002,0.597-3c2.404-11.907,9.023-20.944,18.952-27.678c6.176-4.18,13.141-6.264,20.442-7.349
		c2.075-0.307,4.169-0.506,6.255-0.759C113.527,32.5,115.929,32.5,118.331,32.5z"/>
	<path style="fill-rule:evenodd;clip-rule:evenodd;" d="M150.033,142.909c-12.72,0-25.435,0.009-38.147-0.003
		c-3.433-0.004-6.277-2.347-6.921-5.617c-0.639-3.283,1.142-6.552,4.336-7.782c0.792-0.311,1.686-0.49,2.528-0.491
		c25.39-0.033,50.782-0.042,76.171-0.038c4.048,0,6.877,2.577,7.347,6.605c0.36,3.077-2.078,6.376-5.326,7.153
		c-0.596,0.145-1.226,0.176-1.845,0.177c-12.713,0.01-25.426,0.008-38.143,0.008C150.033,142.917,150.033,142.913,150.033,142.909z"
		/>
	<path style="fill-rule:evenodd;clip-rule:evenodd;" d="M149.873,154.101c-10.48,0-20.951,0.012-31.429-0.006
		c-2.992-0.005-4.782-1.946-4.599-4.894c0.119-1.922,1.674-3.587,3.607-3.844c0.365-0.042,0.738-0.073,1.111-0.074
		c20.913-0.004,41.818-0.008,62.734-0.004c2.473,0,4.157,1.292,4.608,3.478c0.409,2.002-0.592,4.167-2.439,4.953
		c-0.695,0.292-1.518,0.372-2.289,0.375C170.742,154.109,160.308,154.101,149.873,154.101z"/>
	<path style="fill-rule:evenodd;clip-rule:evenodd;" d="M150.517,118.017c9.855,0.001,19.716,0.001,29.569,0
		c2.561,0,4.42,1.883,4.418,4.484c-0.005,2.555-1.902,4.474-4.453,4.472c-19.129-0.01-38.264-0.021-57.394-0.034
		c-1.469-0.001-2.959,0.244-4.302-0.719c-1.621-1.159-2.352-3.176-1.733-5.145c0.575-1.836,2.251-3.058,4.208-3.059
		C130.728,118.015,140.628,118.017,150.517,118.017z"/>
</g>
</svg>
