<?xml version="1.0" encoding="utf-8"?>
<svg version="1.1" id="Layer_1" xmlns="http://www.w3.org/2000/svg" xmlns:xlink="http://www.w3.org/1999/xlink" x="0px" y="0px"
	 viewBox="0 0 512 512" enable-background="new 0 0 512 512" xml:space="preserve">
<g>
	<path d="M380.6,324.5c-53.5-4.1-99.4-34.9-124.6-62.6c-25.1,27.8-71,58.5-124.6,62.6C75.2,328.8,22.3,303,26.2,244.4
		c1.3-19.8,14.7-46.2,42.4-44c2.6,0.2,4.8,0.7,6.9,1.6c0.1,0,0.1,0.1,0.1,0.1c10.9,2.9,19,12.8,19,24.7c0,14.1-11.5,25.6-25.6,25.6
		c-12.8,0-23.4-9.4-25.3-21.7c-0.1-0.1-0.1-0.3-0.3-0.4c-8.4,22.5,7.5,47.3,25.1,50.3c60,10.4,81.9-84,138.2-92.7
		c20.4-3.1,37.6,3.1,49.2,14.5c11.6-11.3,28.7-17.6,49.2-14.5c56.3,8.6,78.3,103.1,138.2,92.7c17.6-3,33.5-27.8,25.1-50.3
		c-0.1,0.1-0.2,0.3-0.3,0.4c-1.8,12.3-12.4,21.7-25.3,21.7c-14.1,0-25.6-11.5-25.6-25.6c0-11.9,8-21.8,19-24.7c0,0,0.1-0.1,0.1-0.1
		c2-0.9,4.3-1.4,6.9-1.6c27.7-2.2,41.1,24.1,42.4,44C489.8,303,436.9,328.8,380.6,324.5z"/>
</g>
</svg>
